G04 DipTrace 4.3.0.3*
G04 G2L.gbr*
%MOMM*%
G04 #@! TF.FileFunction,Copper,L2,Inr*
G04 #@! TF.Part,Single*
G04 #@! TA.AperFunction,ViaPad*
%ADD17C,0.6*%
G04 #@! TA.AperFunction,CopperBalancing*
%ADD18C,1.0*%
%ADD29C,0.8*%
G04 #@! TA.AperFunction,ComponentPad*
%ADD33R,1.92X1.92*%
%ADD34C,1.92*%
%ADD39C,1.2192*%
%FSLAX35Y35*%
G04*
G71*
G90*
G75*
G01*
G04 Inner1*
%LPD*%
D17*
X3245000Y3185000D3*
X3055000Y2480000D3*
X2415000Y3415000D3*
X2280000Y3220000D3*
X2220000Y2545000D3*
X2215000Y2465000D3*
X2275000Y2415000D3*
Y2345000D3*
X2280000Y2275000D3*
X2185000Y2630000D3*
Y2795000D3*
X2475000Y3715000D3*
X1880000Y3570000D3*
X1765000Y3500000D3*
X1760000Y3380000D3*
X1820000Y3240000D3*
X1910000Y3125000D3*
X2430000Y2925000D3*
X1115000Y2940000D3*
X1770000Y2365000D3*
X1765000Y2295000D3*
X1760000Y2230000D3*
X1780000Y2460000D3*
X1820000Y2535000D3*
X1840000Y2625000D3*
X1825000Y2715000D3*
X4190000Y1710000D3*
X3995000Y1580000D3*
X1975000Y2210000D3*
X2165000Y1815000D3*
X2255000D3*
X2505000D3*
X2425000D3*
X2345000D3*
X3700000Y1840000D3*
X3540000Y3080000D3*
X3440000Y3060000D3*
X3360000Y3055000D3*
X1335000Y2000000D3*
X1380000Y1915000D3*
X1480000Y1905000D3*
X1565000Y1935000D3*
X1580000Y2020000D3*
X3205000Y1825000D3*
X4580000Y2010000D3*
X4655000D3*
X2785000Y3525000D3*
X2830000Y3480000D3*
X2835000Y3420000D3*
X3665000Y3775000D3*
X3600000D3*
X3530000Y3770000D3*
X3480000Y3730000D3*
X3475000Y3650000D3*
X3480000Y3585000D3*
Y3520000D3*
X4715000Y2085000D3*
X3570000Y3360000D3*
X3650000Y3350000D3*
X3785000Y3300000D3*
X3820000Y3260000D3*
X3845000Y3210000D3*
X3840000Y3140000D3*
X3820000Y3085000D3*
X3825000Y3025000D3*
X3835000Y2745000D3*
Y2685000D3*
X3865000Y2625000D3*
X3940000Y2610000D3*
X4010000Y2615000D3*
X3925000Y3990000D3*
X3830000D3*
X3950000Y4200000D3*
X3815000Y4065000D3*
Y4140000D3*
X3825000Y4210000D3*
X3410000Y3135000D3*
X3480000Y3140000D3*
X3545000Y3135000D3*
X3580000Y2745000D3*
X3585000Y2690000D3*
X3555000Y2635000D3*
X3320000Y2555000D3*
X3550000Y2525000D3*
X3500000Y2480000D3*
X3525000Y2410000D3*
X3390000Y2345000D3*
X3320000Y2385000D3*
X1140000Y1695000D3*
X1210000Y1685000D3*
X1265000Y1695000D3*
X1320000Y1720000D3*
X1380000D3*
X1515000Y1695000D3*
X1505000Y1640000D3*
Y1580000D3*
X1565000Y1585000D3*
X1645000Y1575000D3*
X1740000Y1570000D3*
X1750000Y1635000D3*
X1855000Y1575000D3*
X1940000D3*
X2030000Y1585000D3*
X2100000Y1605000D3*
X2180000D3*
X2265000Y1600000D3*
X2340000D3*
X2420000Y1590000D3*
X2500000Y1600000D3*
X2950000Y2590000D3*
X3360000Y3110000D3*
X4135000Y2725000D3*
X2550000Y2330000D3*
X143727Y5060333D2*
D18*
X5358460D1*
X142861Y4960667D2*
X5361240D1*
X142041Y4861000D2*
X5364066D1*
X141175Y4761333D2*
X5366846D1*
X140355Y4661667D2*
X5369626D1*
X139489Y4562000D2*
X1163063D1*
X1576904D2*
X4213076D1*
X4626917D2*
X5372406D1*
X138623Y4462333D2*
X1082354D1*
X1657660D2*
X2599840D1*
X3952985D2*
X4132367D1*
X4707627D2*
X5375231D1*
X137803Y4362667D2*
X1050954D1*
X1689059D2*
X2582477D1*
X3952985D2*
X4100921D1*
X4739072D2*
X5378011D1*
X136937Y4263000D2*
X1053232D1*
X1686735D2*
X2633519D1*
X3952985D2*
X4103245D1*
X4736748D2*
X5380791D1*
X136117Y4163333D2*
X1090192D1*
X1649821D2*
X4140205D1*
X4699834D2*
X5383571D1*
X135251Y4063667D2*
X1182113D1*
X1557855D2*
X4232126D1*
X4607868D2*
X5386351D1*
X134385Y3964000D2*
X5389176D1*
X133564Y3864333D2*
X5391956D1*
X132699Y3764667D2*
X5394736D1*
X131878Y3665000D2*
X5397516D1*
X131012Y3565333D2*
X4479495D1*
X4770472D2*
X5400296D1*
X130146Y3465667D2*
X2316468D1*
X2513519D2*
X4447002D1*
X4803011D2*
X5403122D1*
X129326Y3366000D2*
X2315557D1*
X2514476D2*
X4479997D1*
X4770016D2*
X5405902D1*
X128460Y3266333D2*
X1347178D1*
X1562822D2*
X2179111D1*
X2380856D2*
X3173467D1*
X3316559D2*
X4456025D1*
X4793988D2*
X5408682D1*
X127640Y3166667D2*
X1312406D1*
X1597594D2*
X2183076D1*
X2376937D2*
X3134639D1*
X3355342D2*
X4453245D1*
X4796768D2*
X5411462D1*
X126774Y3067000D2*
X1369281D1*
X1540719D2*
X4487152D1*
X4762861D2*
X5414287D1*
X125908Y2967333D2*
X4447275D1*
X4802738D2*
X5417067D1*
X125088Y2867667D2*
X2103415D1*
X2266559D2*
X4473343D1*
X4776624D2*
X5419847D1*
X124222Y2768000D2*
X1334736D1*
X1575264D2*
X2076618D1*
X2293356D2*
X4032516D1*
X4237497D2*
X4459671D1*
X4790342D2*
X5422627D1*
X123402Y2668333D2*
X1314502D1*
X1595498D2*
X2080492D1*
X2289528D2*
X4040173D1*
X4229795D2*
X4450830D1*
X4799183D2*
X5425407D1*
X122536Y2568667D2*
X1399769D1*
X1510231D2*
X2093480D1*
X2329222D2*
X2994593D1*
X3115400D2*
X4447002D1*
X4803011D2*
X5428232D1*
X121670Y2469000D2*
X2103096D1*
X2371514D2*
X2943597D1*
X3166396D2*
X4447002D1*
X4803011D2*
X5431012D1*
X120850Y2369333D2*
X2165941D1*
X2384046D2*
X2445895D1*
X2654111D2*
X4447002D1*
X4803011D2*
X5433792D1*
X119984Y2269667D2*
X2168128D1*
X2391839D2*
X2457744D1*
X2642262D2*
X5436572D1*
X119163Y2170000D2*
X5439398D1*
X118298Y2070333D2*
X5442178D1*
X117432Y1970667D2*
X5444958D1*
X116611Y1871000D2*
X5447738D1*
X115745Y1771333D2*
X5450518D1*
X114925Y1671667D2*
X5453343D1*
X114059Y1572000D2*
X1281644D1*
X1458369D2*
X4331657D1*
X4508337D2*
X5456123D1*
X113193Y1472333D2*
X1122503D1*
X1617510D2*
X2912471D1*
X3497985D2*
X4172516D1*
X4667477D2*
X5458903D1*
X112373Y1372667D2*
X1065355D1*
X1674613D2*
X2888454D1*
X3497985D2*
X4115368D1*
X4724626D2*
X5461683D1*
X111507Y1273000D2*
X1048037D1*
X1691976D2*
X2930791D1*
X3497985D2*
X4098005D1*
X4741989D2*
X5464508D1*
X110641Y1173333D2*
X1063350D1*
X1676663D2*
X4113363D1*
X4726631D2*
X5467288D1*
X109821Y1073667D2*
X1117536D1*
X1622477D2*
X4167503D1*
X4672490D2*
X5470068D1*
X108955Y974000D2*
X1261364D1*
X1478649D2*
X4311377D1*
X4528617D2*
X5472848D1*
X108135Y874333D2*
X5475628D1*
X107269Y774667D2*
X5478454D1*
X106403Y675000D2*
X5481234D1*
X105583Y575333D2*
X5484014D1*
X104717Y475667D2*
X5486794D1*
X103896Y376000D2*
X5489574D1*
X103031Y276333D2*
X5492399D1*
X102165Y176667D2*
X5495179D1*
X101344Y77000D2*
X5497959D1*
X100479Y-22667D2*
X505856D1*
X3630333Y4553000D2*
X3943000D1*
Y4217000D1*
X3607000D1*
Y4240675D1*
X3594758Y4234057D1*
X3573033Y4225261D1*
X3550295Y4219574D1*
X3526987Y4217107D1*
X3503562Y4217907D1*
X3480477Y4221960D1*
X3458181Y4229187D1*
X3437107Y4239446D1*
X3417667Y4252538D1*
X3400237Y4268208D1*
X3394273Y4275305D1*
X3379506Y4260235D1*
X3361047Y4245791D1*
X3340758Y4234057D1*
X3319033Y4225261D1*
X3296295Y4219574D1*
X3272987Y4217107D1*
X3249562Y4217907D1*
X3226477Y4221960D1*
X3204181Y4229187D1*
X3183107Y4239446D1*
X3163667Y4252538D1*
X3146237Y4268208D1*
X3140273Y4275305D1*
X3125506Y4260235D1*
X3107047Y4245791D1*
X3086758Y4234057D1*
X3065033Y4225261D1*
X3042295Y4219574D1*
X3018987Y4217107D1*
X2995562Y4217907D1*
X2972477Y4221960D1*
X2950181Y4229187D1*
X2929107Y4239446D1*
X2909667Y4252538D1*
X2892237Y4268208D1*
X2886273Y4275305D1*
X2883143Y4271807D1*
X2877782Y4266195D1*
X2872169Y4260836D1*
X2866314Y4255742D1*
X2860230Y4250923D1*
X2853930Y4246391D1*
X2847427Y4242155D1*
X2840735Y4238224D1*
X2833870Y4234605D1*
X2826844Y4231308D1*
X2819673Y4228339D1*
X2812374Y4225704D1*
X2804960Y4223409D1*
X2797448Y4221459D1*
X2789854Y4219858D1*
X2782194Y4218609D1*
X2774485Y4217715D1*
X2766743Y4217179D1*
X2758984Y4217000D1*
X2751225Y4217180D1*
X2743483Y4217718D1*
X2735774Y4218613D1*
X2728114Y4219863D1*
X2720521Y4221466D1*
X2713009Y4223418D1*
X2705596Y4225714D1*
X2698296Y4228351D1*
X2691126Y4231321D1*
X2684101Y4234620D1*
X2677236Y4238239D1*
X2670546Y4242172D1*
X2664044Y4246410D1*
X2657744Y4250943D1*
X2651661Y4255762D1*
X2645807Y4260857D1*
X2640195Y4266218D1*
X2634836Y4271831D1*
X2629742Y4277686D1*
X2624923Y4283770D1*
X2620391Y4290070D1*
X2616155Y4296573D1*
X2612224Y4303265D1*
X2608605Y4310130D1*
X2605308Y4317156D1*
X2602339Y4324327D1*
X2599704Y4331626D1*
X2597409Y4339040D1*
X2595459Y4346552D1*
X2593858Y4354146D1*
X2592609Y4361806D1*
X2591715Y4369515D1*
X2591179Y4377257D1*
X2591000Y4385016D1*
X2591180Y4392775D1*
X2591718Y4400517D1*
X2592613Y4408226D1*
X2593863Y4415886D1*
X2595466Y4423479D1*
X2597418Y4430991D1*
X2599714Y4438404D1*
X2602351Y4445704D1*
X2605321Y4452874D1*
X2608620Y4459899D1*
X2612239Y4466764D1*
X2616172Y4473454D1*
X2620410Y4479956D1*
X2624943Y4486256D1*
X2629762Y4492339D1*
X2634857Y4498193D1*
X2640218Y4503805D1*
X2645831Y4509164D1*
X2651686Y4514258D1*
X2657770Y4519077D1*
X2664070Y4523609D1*
X2670573Y4527845D1*
X2677265Y4531776D1*
X2684130Y4535395D1*
X2691156Y4538692D1*
X2698327Y4541661D1*
X2705626Y4544296D1*
X2713040Y4546591D1*
X2720552Y4548541D1*
X2728146Y4550142D1*
X2735806Y4551391D1*
X2743515Y4552285D1*
X2751257Y4552821D1*
X2759016Y4553000D1*
X2766775Y4552820D1*
X2774517Y4552282D1*
X2782226Y4551387D1*
X2789886Y4550137D1*
X2797479Y4548534D1*
X2804991Y4546582D1*
X2812404Y4544286D1*
X2819704Y4541649D1*
X2826874Y4538679D1*
X2833899Y4535380D1*
X2840764Y4531761D1*
X2847454Y4527828D1*
X2853956Y4523590D1*
X2860256Y4519057D1*
X2866339Y4514238D1*
X2872193Y4509143D1*
X2877805Y4503782D1*
X2883164Y4498169D1*
X2885975Y4494938D1*
X2892065Y4501613D1*
X2909471Y4517309D1*
X2928893Y4530430D1*
X2949951Y4540720D1*
X2972237Y4547980D1*
X2995316Y4552067D1*
X3018739Y4552902D1*
X3042051Y4550469D1*
X3064797Y4544816D1*
X3086535Y4536052D1*
X3106842Y4524348D1*
X3125322Y4509931D1*
X3139913Y4494844D1*
X3146065Y4501613D1*
X3163471Y4517309D1*
X3182893Y4530430D1*
X3203951Y4540720D1*
X3226237Y4547980D1*
X3249316Y4552067D1*
X3272739Y4552902D1*
X3296051Y4550469D1*
X3318797Y4544816D1*
X3340535Y4536052D1*
X3360842Y4524348D1*
X3379322Y4509931D1*
X3393913Y4494844D1*
X3400065Y4501613D1*
X3417471Y4517309D1*
X3436893Y4530430D1*
X3457951Y4540720D1*
X3480237Y4547980D1*
X3503316Y4552067D1*
X3526739Y4552902D1*
X3550051Y4550469D1*
X3572797Y4544816D1*
X3594535Y4536052D1*
X3607009Y4528862D1*
X3607000Y4553000D1*
X3630333D1*
X1681128Y1246688D2*
X1678516Y1223503D1*
X1674178Y1200578D1*
X1668140Y1178040D1*
X1660434Y1156018D1*
X1651104Y1134632D1*
X1640202Y1114004D1*
X1627789Y1094248D1*
X1613934Y1075474D1*
X1598715Y1057789D1*
X1582217Y1041291D1*
X1564532Y1026071D1*
X1545759Y1012216D1*
X1526004Y999802D1*
X1505376Y988900D1*
X1483990Y979569D1*
X1461968Y971863D1*
X1439431Y965823D1*
X1416505Y961485D1*
X1393320Y958873D1*
X1370004Y958000D1*
X1346688Y958872D1*
X1323503Y961484D1*
X1300578Y965822D1*
X1278040Y971860D1*
X1256018Y979566D1*
X1234632Y988896D1*
X1214004Y999798D1*
X1194248Y1012211D1*
X1175474Y1026066D1*
X1157789Y1041285D1*
X1141291Y1057783D1*
X1126071Y1075468D1*
X1112216Y1094241D1*
X1099802Y1113996D1*
X1088900Y1134624D1*
X1079569Y1156010D1*
X1071863Y1178032D1*
X1065823Y1200569D1*
X1061485Y1223495D1*
X1058873Y1246680D1*
X1058000Y1269996D1*
X1058872Y1293312D1*
X1061484Y1316497D1*
X1065822Y1339422D1*
X1071860Y1361960D1*
X1079566Y1383982D1*
X1088896Y1405368D1*
X1099798Y1425996D1*
X1112211Y1445752D1*
X1126066Y1464526D1*
X1141285Y1482211D1*
X1157783Y1498709D1*
X1175468Y1513929D1*
X1194241Y1527784D1*
X1213996Y1540198D1*
X1234624Y1551100D1*
X1256010Y1560431D1*
X1278032Y1568137D1*
X1300569Y1574177D1*
X1323495Y1578515D1*
X1346680Y1581127D1*
X1369996Y1582000D1*
X1393312Y1581128D1*
X1416497Y1578516D1*
X1439422Y1574178D1*
X1461960Y1568140D1*
X1483982Y1560434D1*
X1505368Y1551104D1*
X1525996Y1540202D1*
X1545752Y1527789D1*
X1564526Y1513934D1*
X1582211Y1498715D1*
X1598709Y1482217D1*
X1613929Y1464532D1*
X1627784Y1445759D1*
X1640198Y1426004D1*
X1651100Y1405376D1*
X1660431Y1383990D1*
X1668137Y1361968D1*
X1674177Y1339431D1*
X1678515Y1316505D1*
X1681127Y1293320D1*
X1682000Y1270000D1*
X1681128Y1246688D1*
X4731128D2*
X4728516Y1223503D1*
X4724178Y1200578D1*
X4718140Y1178040D1*
X4710434Y1156018D1*
X4701104Y1134632D1*
X4690202Y1114004D1*
X4677789Y1094248D1*
X4663934Y1075474D1*
X4648715Y1057789D1*
X4632217Y1041291D1*
X4614532Y1026071D1*
X4595759Y1012216D1*
X4576004Y999802D1*
X4555376Y988900D1*
X4533990Y979569D1*
X4511968Y971863D1*
X4489431Y965823D1*
X4466505Y961485D1*
X4443320Y958873D1*
X4420004Y958000D1*
X4396688Y958872D1*
X4373503Y961484D1*
X4350578Y965822D1*
X4328040Y971860D1*
X4306018Y979566D1*
X4284632Y988896D1*
X4264004Y999798D1*
X4244248Y1012211D1*
X4225474Y1026066D1*
X4207789Y1041285D1*
X4191291Y1057783D1*
X4176071Y1075468D1*
X4162216Y1094241D1*
X4149802Y1113996D1*
X4138900Y1134624D1*
X4129569Y1156010D1*
X4121863Y1178032D1*
X4115823Y1200569D1*
X4111485Y1223495D1*
X4108873Y1246680D1*
X4108000Y1269996D1*
X4108872Y1293312D1*
X4111484Y1316497D1*
X4115822Y1339422D1*
X4121860Y1361960D1*
X4129566Y1383982D1*
X4138896Y1405368D1*
X4149798Y1425996D1*
X4162211Y1445752D1*
X4176066Y1464526D1*
X4191285Y1482211D1*
X4207783Y1498709D1*
X4225468Y1513929D1*
X4244241Y1527784D1*
X4263996Y1540198D1*
X4284624Y1551100D1*
X4306010Y1560431D1*
X4328032Y1568137D1*
X4350569Y1574177D1*
X4373495Y1578515D1*
X4396680Y1581127D1*
X4419996Y1582000D1*
X4443312Y1581128D1*
X4466497Y1578516D1*
X4489422Y1574178D1*
X4511960Y1568140D1*
X4533982Y1560434D1*
X4555368Y1551104D1*
X4575996Y1540202D1*
X4595752Y1527789D1*
X4614526Y1513934D1*
X4632211Y1498715D1*
X4648709Y1482217D1*
X4663929Y1464532D1*
X4677784Y1445759D1*
X4690198Y1426004D1*
X4701100Y1405376D1*
X4710431Y1383990D1*
X4718137Y1361968D1*
X4724177Y1339431D1*
X4728515Y1316505D1*
X4731127Y1293320D1*
X4732000Y1270000D1*
X4731128Y1246688D1*
Y4296688D2*
X4728516Y4273503D1*
X4724178Y4250578D1*
X4718140Y4228040D1*
X4710434Y4206018D1*
X4701104Y4184632D1*
X4690202Y4164004D1*
X4677789Y4144248D1*
X4663934Y4125474D1*
X4648715Y4107789D1*
X4632217Y4091291D1*
X4614532Y4076071D1*
X4595759Y4062216D1*
X4576004Y4049802D1*
X4555376Y4038900D1*
X4533990Y4029569D1*
X4511968Y4021863D1*
X4489431Y4015823D1*
X4466505Y4011485D1*
X4443320Y4008873D1*
X4420004Y4008000D1*
X4396688Y4008872D1*
X4373503Y4011484D1*
X4350578Y4015822D1*
X4328040Y4021860D1*
X4306018Y4029566D1*
X4284632Y4038896D1*
X4264004Y4049798D1*
X4244248Y4062211D1*
X4225474Y4076066D1*
X4207789Y4091285D1*
X4191291Y4107783D1*
X4176071Y4125468D1*
X4162216Y4144241D1*
X4149802Y4163996D1*
X4138900Y4184624D1*
X4129569Y4206010D1*
X4121863Y4228032D1*
X4115823Y4250569D1*
X4111485Y4273495D1*
X4108873Y4296680D1*
X4108000Y4319996D1*
X4108872Y4343312D1*
X4111484Y4366497D1*
X4115822Y4389422D1*
X4121860Y4411960D1*
X4129566Y4433982D1*
X4138896Y4455368D1*
X4149798Y4475996D1*
X4162211Y4495752D1*
X4176066Y4514526D1*
X4191285Y4532211D1*
X4207783Y4548709D1*
X4225468Y4563929D1*
X4244241Y4577784D1*
X4263996Y4590198D1*
X4284624Y4601100D1*
X4306010Y4610431D1*
X4328032Y4618137D1*
X4350569Y4624177D1*
X4373495Y4628515D1*
X4396680Y4631127D1*
X4419996Y4632000D1*
X4443312Y4631128D1*
X4466497Y4628516D1*
X4489422Y4624178D1*
X4511960Y4618140D1*
X4533982Y4610434D1*
X4555368Y4601104D1*
X4575996Y4590202D1*
X4595752Y4577789D1*
X4614526Y4563934D1*
X4632211Y4548715D1*
X4648709Y4532217D1*
X4663929Y4514532D1*
X4677784Y4495759D1*
X4690198Y4476004D1*
X4701100Y4455376D1*
X4710431Y4433990D1*
X4718137Y4411968D1*
X4724177Y4389431D1*
X4728515Y4366505D1*
X4731127Y4343320D1*
X4732000Y4320000D1*
X4731128Y4296688D1*
X1681128D2*
X1678516Y4273503D1*
X1674178Y4250578D1*
X1668140Y4228040D1*
X1660434Y4206018D1*
X1651104Y4184632D1*
X1640202Y4164004D1*
X1627789Y4144248D1*
X1613934Y4125474D1*
X1598715Y4107789D1*
X1582217Y4091291D1*
X1564532Y4076071D1*
X1545759Y4062216D1*
X1526004Y4049802D1*
X1505376Y4038900D1*
X1483990Y4029569D1*
X1461968Y4021863D1*
X1439431Y4015823D1*
X1416505Y4011485D1*
X1393320Y4008873D1*
X1370004Y4008000D1*
X1346688Y4008872D1*
X1323503Y4011484D1*
X1300578Y4015822D1*
X1278040Y4021860D1*
X1256018Y4029566D1*
X1234632Y4038896D1*
X1214004Y4049798D1*
X1194248Y4062211D1*
X1175474Y4076066D1*
X1157789Y4091285D1*
X1141291Y4107783D1*
X1126071Y4125468D1*
X1112216Y4144241D1*
X1099802Y4163996D1*
X1088900Y4184624D1*
X1079569Y4206010D1*
X1071863Y4228032D1*
X1065823Y4250569D1*
X1061485Y4273495D1*
X1058873Y4296680D1*
X1058000Y4319996D1*
X1058872Y4343312D1*
X1061484Y4366497D1*
X1065822Y4389422D1*
X1071860Y4411960D1*
X1079566Y4433982D1*
X1088896Y4455368D1*
X1099798Y4475996D1*
X1112211Y4495752D1*
X1126066Y4514526D1*
X1141285Y4532211D1*
X1157783Y4548709D1*
X1175468Y4563929D1*
X1194241Y4577784D1*
X1213996Y4590198D1*
X1234624Y4601100D1*
X1256010Y4610431D1*
X1278032Y4618137D1*
X1300569Y4624177D1*
X1323495Y4628515D1*
X1346680Y4631127D1*
X1369996Y4632000D1*
X1393312Y4631128D1*
X1416497Y4628516D1*
X1439422Y4624178D1*
X1461960Y4618140D1*
X1483982Y4610434D1*
X1505368Y4601104D1*
X1525996Y4590202D1*
X1545752Y4577789D1*
X1564526Y4563934D1*
X1582211Y4548715D1*
X1598709Y4532217D1*
X1613929Y4514532D1*
X1627784Y4495759D1*
X1640198Y4476004D1*
X1651100Y4455376D1*
X1660431Y4433990D1*
X1668137Y4411968D1*
X1674177Y4389431D1*
X1678515Y4366505D1*
X1681127Y4343320D1*
X1682000Y4320000D1*
X1681128Y4296688D1*
X4480333Y2618000D2*
X4480675D1*
X4476723Y2625019D1*
X4467174Y2646424D1*
X4460697Y2668950D1*
X4457418Y2692157D1*
X4457401Y2715595D1*
X4460645Y2738808D1*
X4467089Y2761343D1*
X4476607Y2782762D1*
X4489012Y2802648D1*
X4504065Y2820613D1*
X4515301Y2830745D1*
X4504237Y2841208D1*
X4489158Y2859152D1*
X4476723Y2879019D1*
X4467174Y2900424D1*
X4460697Y2922950D1*
X4457418Y2946157D1*
X4457401Y2969595D1*
X4460645Y2992808D1*
X4467089Y3015343D1*
X4476607Y3036762D1*
X4489012Y3056648D1*
X4504065Y3074613D1*
X4515301Y3084745D1*
X4504237Y3095208D1*
X4489158Y3113152D1*
X4476723Y3133019D1*
X4467174Y3154424D1*
X4460697Y3176950D1*
X4457418Y3200157D1*
X4457401Y3223595D1*
X4460645Y3246808D1*
X4467089Y3269343D1*
X4476607Y3290762D1*
X4489012Y3310648D1*
X4504065Y3328613D1*
X4515301Y3338745D1*
X4511807Y3341857D1*
X4506195Y3347218D1*
X4500836Y3352831D1*
X4495742Y3358686D1*
X4490923Y3364770D1*
X4486391Y3371070D1*
X4482155Y3377573D1*
X4478224Y3384265D1*
X4474605Y3391130D1*
X4471308Y3398156D1*
X4468339Y3405327D1*
X4465704Y3412626D1*
X4463409Y3420040D1*
X4461459Y3427552D1*
X4459858Y3435146D1*
X4458609Y3442806D1*
X4457715Y3450515D1*
X4457179Y3458257D1*
X4457000Y3466016D1*
X4457180Y3473775D1*
X4457718Y3481517D1*
X4458613Y3489226D1*
X4459863Y3496886D1*
X4461466Y3504479D1*
X4463418Y3511991D1*
X4465714Y3519404D1*
X4468351Y3526704D1*
X4471321Y3533874D1*
X4474620Y3540899D1*
X4478239Y3547764D1*
X4482172Y3554454D1*
X4486410Y3560956D1*
X4490943Y3567256D1*
X4495762Y3573339D1*
X4500857Y3579193D1*
X4506218Y3584805D1*
X4511831Y3590164D1*
X4517686Y3595258D1*
X4523770Y3600077D1*
X4530070Y3604609D1*
X4536573Y3608845D1*
X4543265Y3612776D1*
X4550130Y3616395D1*
X4557156Y3619692D1*
X4564327Y3622661D1*
X4571626Y3625296D1*
X4579040Y3627591D1*
X4586552Y3629541D1*
X4594146Y3631142D1*
X4601806Y3632391D1*
X4609515Y3633285D1*
X4617257Y3633821D1*
X4625016Y3634000D1*
X4632775Y3633820D1*
X4640517Y3633282D1*
X4648226Y3632387D1*
X4655886Y3631137D1*
X4663479Y3629534D1*
X4670991Y3627582D1*
X4678404Y3625286D1*
X4685704Y3622649D1*
X4692874Y3619679D1*
X4699899Y3616380D1*
X4706764Y3612761D1*
X4713454Y3608828D1*
X4719956Y3604590D1*
X4726256Y3600057D1*
X4732339Y3595238D1*
X4738193Y3590143D1*
X4743805Y3584782D1*
X4749164Y3579169D1*
X4754258Y3573314D1*
X4759077Y3567230D1*
X4763609Y3560930D1*
X4767845Y3554427D1*
X4771776Y3547735D1*
X4775395Y3540870D1*
X4778692Y3533844D1*
X4781661Y3526673D1*
X4784296Y3519374D1*
X4786591Y3511960D1*
X4788541Y3504448D1*
X4790142Y3496854D1*
X4791391Y3489194D1*
X4792285Y3481485D1*
X4792821Y3473743D1*
X4793000Y3466000D1*
X4792820Y3458225D1*
X4792282Y3450483D1*
X4791387Y3442774D1*
X4790137Y3435114D1*
X4788534Y3427521D1*
X4786582Y3420009D1*
X4784286Y3412596D1*
X4781649Y3405296D1*
X4778679Y3398126D1*
X4775380Y3391101D1*
X4771761Y3384236D1*
X4767828Y3377546D1*
X4763590Y3371044D1*
X4759057Y3364744D1*
X4754238Y3358661D1*
X4749143Y3352807D1*
X4743782Y3347195D1*
X4738169Y3341836D1*
X4734938Y3339025D1*
X4737322Y3336931D1*
X4753616Y3320083D1*
X4767406Y3301131D1*
X4778425Y3280445D1*
X4786458Y3258426D1*
X4791348Y3235504D1*
X4793000Y3212000D1*
X4791382Y3188742D1*
X4786526Y3165812D1*
X4778526Y3143781D1*
X4767538Y3123079D1*
X4753775Y3104107D1*
X4737506Y3087235D1*
X4734820Y3085133D1*
X4737322Y3082931D1*
X4753616Y3066083D1*
X4767406Y3047131D1*
X4778425Y3026445D1*
X4786458Y3004426D1*
X4791348Y2981504D1*
X4793000Y2958000D1*
X4791382Y2934742D1*
X4786526Y2911812D1*
X4778526Y2889781D1*
X4767538Y2869079D1*
X4753775Y2850107D1*
X4737506Y2833235D1*
X4734820Y2831133D1*
X4737322Y2828931D1*
X4753616Y2812083D1*
X4767406Y2793131D1*
X4778425Y2772445D1*
X4786458Y2750426D1*
X4791348Y2727504D1*
X4793000Y2704000D1*
X4791382Y2680742D1*
X4786526Y2657812D1*
X4778526Y2635781D1*
X4769094Y2618010D1*
X4793000Y2618000D1*
Y2282000D1*
X4457000D1*
Y2618000D1*
X4480333D1*
X3344343Y3161870D2*
X3336331Y3139583D1*
X3323395Y3119745D1*
X3306233Y3103425D1*
X3285770Y3091502D1*
X3263109Y3084620D1*
X3239472Y3083150D1*
X3216133Y3087170D1*
X3194350Y3096465D1*
X3175297Y3110532D1*
X3160002Y3128614D1*
X3149290Y3149735D1*
X3143737Y3172758D1*
X3143644Y3196441D1*
X3149014Y3219507D1*
X3159559Y3240713D1*
X3174711Y3258915D1*
X3193651Y3273132D1*
X3215360Y3282599D1*
X3238667Y3286803D1*
X3262315Y3285520D1*
X3285030Y3278817D1*
X3305586Y3267057D1*
X3322877Y3250873D1*
X3335969Y3231137D1*
X3344157Y3208915D1*
X3346999Y3185403D1*
X3344343Y3161870D1*
X3154343Y2456870D2*
X3146331Y2434583D1*
X3133395Y2414745D1*
X3116233Y2398425D1*
X3095770Y2386502D1*
X3073109Y2379620D1*
X3049472Y2378150D1*
X3026133Y2382170D1*
X3004350Y2391465D1*
X2985297Y2405532D1*
X2970002Y2423614D1*
X2959290Y2444735D1*
X2953737Y2467758D1*
X2953644Y2491441D1*
X2959014Y2514507D1*
X2969559Y2535713D1*
X2984711Y2553915D1*
X3003651Y2568132D1*
X3025360Y2577599D1*
X3048667Y2581803D1*
X3072315Y2580520D1*
X3095030Y2573817D1*
X3115586Y2562057D1*
X3132877Y2545873D1*
X3145969Y2526137D1*
X3154157Y2503915D1*
X3156999Y2480403D1*
X3154343Y2456870D1*
X2514343Y3391870D2*
X2506331Y3369583D1*
X2493395Y3349745D1*
X2476233Y3333425D1*
X2455770Y3321502D1*
X2433109Y3314620D1*
X2409472Y3313150D1*
X2386133Y3317170D1*
X2364350Y3326465D1*
X2345297Y3340532D1*
X2330002Y3358614D1*
X2319290Y3379735D1*
X2313737Y3402758D1*
X2313644Y3426441D1*
X2319014Y3449507D1*
X2329559Y3470713D1*
X2344711Y3488915D1*
X2363651Y3503132D1*
X2385360Y3512599D1*
X2408667Y3516803D1*
X2432315Y3515520D1*
X2455030Y3508817D1*
X2475586Y3497057D1*
X2492877Y3480873D1*
X2505969Y3461137D1*
X2514157Y3438915D1*
X2516999Y3415403D1*
X2514343Y3391870D1*
X2379343Y3196870D2*
X2371331Y3174583D1*
X2358395Y3154745D1*
X2341233Y3138425D1*
X2320770Y3126502D1*
X2298109Y3119620D1*
X2274472Y3118150D1*
X2251133Y3122170D1*
X2229350Y3131465D1*
X2210297Y3145532D1*
X2195002Y3163614D1*
X2184290Y3184735D1*
X2178737Y3207758D1*
X2178644Y3231441D1*
X2184014Y3254507D1*
X2194559Y3275713D1*
X2209711Y3293915D1*
X2228651Y3308132D1*
X2250360Y3317599D1*
X2273667Y3321803D1*
X2297315Y3320520D1*
X2320030Y3313817D1*
X2340586Y3302057D1*
X2357877Y3285873D1*
X2370969Y3266137D1*
X2379157Y3243915D1*
X2381999Y3220403D1*
X2379343Y3196870D1*
X2319343Y2521870D2*
X2314703Y2508963D1*
X2335586Y2497057D1*
X2352877Y2480873D1*
X2365969Y2461137D1*
X2374157Y2438915D1*
X2376999Y2415403D1*
X2374343Y2391870D1*
X2370438Y2381009D1*
X2374157Y2368915D1*
X2376999Y2345403D1*
X2374343Y2321870D1*
X2372754Y2317452D1*
X2376160Y2309018D1*
X2381413Y2285925D1*
X2382000Y2275000D1*
X2379343Y2251870D1*
X2371331Y2229583D1*
X2358395Y2209745D1*
X2341233Y2193425D1*
X2320770Y2181502D1*
X2298109Y2174620D1*
X2274472Y2173150D1*
X2251133Y2177170D1*
X2229350Y2186465D1*
X2210297Y2200532D1*
X2195002Y2218614D1*
X2184290Y2239735D1*
X2178737Y2262758D1*
X2178644Y2286441D1*
X2182352Y2302366D1*
X2179290Y2309735D1*
X2173737Y2332758D1*
X2173644Y2356441D1*
X2176890Y2370384D1*
X2161378Y2378232D1*
X2142814Y2392937D1*
X2128140Y2411526D1*
X2118150Y2432999D1*
X2113381Y2456197D1*
X2114090Y2479869D1*
X2120239Y2502740D1*
X2124186Y2510045D1*
X2118737Y2532758D1*
X2118659Y2552532D1*
X2115297Y2555532D1*
X2100002Y2573614D1*
X2089290Y2594735D1*
X2083737Y2617758D1*
X2083644Y2641441D1*
X2089014Y2664507D1*
X2099559Y2685713D1*
X2114711Y2703915D1*
X2125605Y2712093D1*
X2115297Y2720532D1*
X2100002Y2738614D1*
X2089290Y2759735D1*
X2083737Y2782758D1*
X2083644Y2806441D1*
X2089014Y2829507D1*
X2099559Y2850713D1*
X2114711Y2868915D1*
X2133651Y2883132D1*
X2155360Y2892599D1*
X2178667Y2896803D1*
X2202315Y2895520D1*
X2225030Y2888817D1*
X2245586Y2877057D1*
X2262877Y2860873D1*
X2275969Y2841137D1*
X2284157Y2818915D1*
X2286999Y2795403D1*
X2284343Y2771870D1*
X2276331Y2749583D1*
X2263395Y2729745D1*
X2246233Y2713425D1*
X2244814Y2712598D1*
X2245586Y2712057D1*
X2262877Y2695873D1*
X2275969Y2676137D1*
X2284157Y2653915D1*
X2286999Y2630403D1*
X2286157Y2622659D1*
X2297877Y2610873D1*
X2310969Y2591137D1*
X2319157Y2568915D1*
X2321999Y2545403D1*
X2319343Y2521870D1*
X4234343Y2701870D2*
X4226331Y2679583D1*
X4213395Y2659745D1*
X4196233Y2643425D1*
X4175770Y2631502D1*
X4153109Y2624620D1*
X4129472Y2623150D1*
X4106133Y2627170D1*
X4084350Y2636465D1*
X4065297Y2650532D1*
X4050002Y2668614D1*
X4039290Y2689735D1*
X4033737Y2712758D1*
X4033644Y2736441D1*
X4039014Y2759507D1*
X4049559Y2780713D1*
X4064711Y2798915D1*
X4083651Y2813132D1*
X4105360Y2822599D1*
X4128667Y2826803D1*
X4152315Y2825520D1*
X4175030Y2818817D1*
X4195586Y2807057D1*
X4212877Y2790873D1*
X4225969Y2771137D1*
X4234157Y2748915D1*
X4236999Y2725403D1*
X4234343Y2701870D1*
X2649343Y2306870D2*
X2641331Y2284583D1*
X2628395Y2264745D1*
X2611233Y2248425D1*
X2590770Y2236502D1*
X2568109Y2229620D1*
X2544472Y2228150D1*
X2521133Y2232170D1*
X2499350Y2241465D1*
X2480297Y2255532D1*
X2465002Y2273614D1*
X2454290Y2294735D1*
X2448737Y2317758D1*
X2448644Y2341441D1*
X2454014Y2364507D1*
X2464559Y2385713D1*
X2479711Y2403915D1*
X2498651Y2418132D1*
X2520360Y2427599D1*
X2543667Y2431803D1*
X2567315Y2430520D1*
X2590030Y2423817D1*
X2610586Y2412057D1*
X2627877Y2395873D1*
X2640969Y2376137D1*
X2649157Y2353915D1*
X2651999Y2330403D1*
X2649343Y2306870D1*
X3159778Y1553000D2*
X3488000D1*
Y1217000D1*
X3152000D1*
Y1240675D1*
X3139758Y1234057D1*
X3118033Y1225261D1*
X3095295Y1219574D1*
X3071987Y1217107D1*
X3048562Y1217907D1*
X3025477Y1221960D1*
X3003181Y1229187D1*
X2982107Y1239446D1*
X2962667Y1252538D1*
X2945237Y1268208D1*
X2930158Y1286152D1*
X2917723Y1306019D1*
X2908174Y1327424D1*
X2901697Y1349950D1*
X2898418Y1373157D1*
X2898401Y1396595D1*
X2901645Y1419808D1*
X2908089Y1442343D1*
X2917607Y1463762D1*
X2930012Y1483648D1*
X2945065Y1501613D1*
X2962471Y1517309D1*
X2981893Y1530430D1*
X3002951Y1540720D1*
X3025237Y1547980D1*
X3048316Y1552067D1*
X3071739Y1552902D1*
X3095051Y1550469D1*
X3117797Y1544816D1*
X3139535Y1536052D1*
X3152009Y1528862D1*
X3152000Y1553000D1*
X3159778D1*
X1585918Y2670486D2*
X1579898Y2648105D1*
X1570083Y2627110D1*
X1556771Y2608137D1*
X1540367Y2591765D1*
X1521370Y2578490D1*
X1500355Y2568715D1*
X1477963Y2562738D1*
X1454873Y2560740D1*
X1431786Y2562782D1*
X1409405Y2568802D1*
X1388410Y2578617D1*
X1369437Y2591929D1*
X1353065Y2608333D1*
X1339790Y2627330D1*
X1330015Y2648345D1*
X1324038Y2670737D1*
X1322040Y2693827D1*
X1324082Y2716914D1*
X1330102Y2739295D1*
X1339917Y2760290D1*
X1353229Y2779263D1*
X1369633Y2795635D1*
X1388630Y2808910D1*
X1409645Y2818685D1*
X1432037Y2824662D1*
X1455127Y2826660D1*
X1478214Y2824618D1*
X1500595Y2818598D1*
X1521590Y2808783D1*
X1540563Y2795471D1*
X1556935Y2779067D1*
X1570210Y2760070D1*
X1579985Y2739055D1*
X1585962Y2716663D1*
X1587960Y2693700D1*
X1585918Y2670486D1*
Y3153086D2*
X1579898Y3130705D1*
X1570083Y3109710D1*
X1556771Y3090737D1*
X1540367Y3074365D1*
X1521370Y3061090D1*
X1500355Y3051315D1*
X1477963Y3045338D1*
X1454873Y3043340D1*
X1431786Y3045382D1*
X1409405Y3051402D1*
X1388410Y3061217D1*
X1369437Y3074529D1*
X1353065Y3090933D1*
X1339790Y3109930D1*
X1330015Y3130945D1*
X1324038Y3153337D1*
X1322040Y3176427D1*
X1324082Y3199514D1*
X1330102Y3221895D1*
X1339917Y3242890D1*
X1353229Y3261863D1*
X1369633Y3278235D1*
X1388630Y3291510D1*
X1409645Y3301285D1*
X1432037Y3307262D1*
X1455127Y3309260D1*
X1478214Y3307218D1*
X1500595Y3301198D1*
X1521590Y3291383D1*
X1540563Y3278071D1*
X1556935Y3261667D1*
X1570210Y3242670D1*
X1579985Y3221655D1*
X1585962Y3199263D1*
X1587960Y3176300D1*
X1585918Y3153086D1*
X5366392Y5135227D2*
X134587Y5159767D1*
X124083Y3926419D1*
X90434Y-29236D1*
X459043Y-23541D1*
X5508584Y54214D1*
X5497614Y446770D1*
X5366374Y5135230D1*
X2640271Y4503729D2*
D29*
X2877729Y4266271D1*
Y4503729D2*
X2640271Y4266271D1*
X4743729Y3584729D2*
X4506271Y3347271D1*
X4743729D2*
X4506271Y3584729D1*
X3152064Y1552936D2*
X3487936Y1217064D1*
Y1552936D2*
X3152064Y1217064D1*
D33*
X3775000Y4385000D3*
D34*
X3521000D3*
X3267000D3*
X3013000D3*
X2759000D3*
D33*
X4625000Y2450000D3*
D34*
Y2704000D3*
Y2958000D3*
Y3212000D3*
Y3466000D3*
D33*
X3320000Y1385000D3*
D34*
X3066000D3*
D39*
X1455000Y2693700D3*
Y3176300D3*
M02*
