G04 DipTrace 4.3.0.3*
G04 GBL.gbr*
%MOMM*%
G04 #@! TF.FileFunction,Copper,L4,Bot*
G04 #@! TF.Part,Single*
%AMOUTLINE0*
4,1,28,
0.65,0.503,
0.65,-0.503,
0.64158,-0.56693,
0.61691,-0.6265,
0.57766,-0.67766,
0.5265,-0.71691,
0.46693,-0.74158,
0.403,-0.75,
-0.403,-0.75,
-0.46693,-0.74158,
-0.5265,-0.71691,
-0.57766,-0.67766,
-0.61691,-0.6265,
-0.64158,-0.56693,
-0.65,-0.503,
-0.65,0.503,
-0.64158,0.56693,
-0.61691,0.6265,
-0.57766,0.67766,
-0.5265,0.71691,
-0.46693,0.74158,
-0.403,0.75,
0.403,0.75,
0.46693,0.74158,
0.5265,0.71691,
0.57766,0.67766,
0.61691,0.6265,
0.64158,0.56693,
0.65,0.503,
0*%
%AMOUTLINE4*
4,1,28,
-0.79999,-0.66002,
-0.80001,0.65998,
-0.79184,0.7221,
-0.76786,0.77998,
-0.72972,0.82969,
-0.68002,0.86783,
-0.62214,0.89181,
-0.56002,0.89999,
0.55998,0.90001,
0.6221,0.89184,
0.67998,0.86786,
0.72969,0.82972,
0.76783,0.78002,
0.79181,0.72213,
0.79999,0.66002,
0.80001,-0.65998,
0.79184,-0.7221,
0.76786,-0.77998,
0.72972,-0.82969,
0.68002,-0.86783,
0.62214,-0.89181,
0.56002,-0.89999,
-0.55998,-0.90001,
-0.6221,-0.89184,
-0.67998,-0.86786,
-0.72969,-0.82972,
-0.76783,-0.78002,
-0.79181,-0.72213,
-0.79999,-0.66002,
0*%
G04 #@! TA.AperFunction,Conductor*
%ADD15C,0.35*%
G04 #@! TA.AperFunction,ViaPad*
%ADD17C,0.6*%
G04 #@! TA.AperFunction,Conductor*
%ADD18C,1.0*%
%ADD19C,0.95*%
%ADD21C,2.0*%
%ADD22C,1.92*%
G04 #@! TA.AperFunction,CopperBalancing*
%ADD23C,0.7*%
%ADD27C,0.635*%
%ADD28C,0.33*%
%ADD30R,1.6X1.8*%
%ADD31R,1.8X1.6*%
G04 #@! TA.AperFunction,ComponentPad*
%ADD33R,1.92X1.92*%
%ADD34C,1.92*%
%ADD35R,0.95X2.15*%
%ADD36R,3.25X2.15*%
%ADD37R,2.15X0.95*%
%ADD38R,2.15X3.25*%
G04 #@! TA.AperFunction,ComponentPad*
%ADD39C,1.2192*%
%ADD57OUTLINE0*%
%ADD61OUTLINE4*%
%FSLAX35Y35*%
G04*
G71*
G90*
G75*
G01*
G04 Bottom*
%LPD*%
G36*
X2295435Y3194275D2*
X2362295Y3233696D1*
X2364416Y3235817D1*
X2295817Y3304416D1*
X2293696Y3302295D1*
X2254275Y3235435D1*
X2295435Y3194275D1*
G37*
G36*
X2399565Y3440725D2*
X2332705Y3401304D1*
X2330584Y3399183D1*
X2399183Y3330584D1*
X2401304Y3332705D1*
X2440725Y3399565D1*
X2399565Y3440725D1*
G37*
X2280000Y3220000D2*
D17*
X2336570Y3276570D1*
D18*
Y3336570D1*
X2358430Y3358430D1*
D17*
X2415000Y3415000D1*
G36*
X2425000Y3445000D2*
X2486055Y3477443D1*
X2492549Y3477742D1*
X2494010Y3359137D1*
X2487516Y3358838D1*
X2425000Y3385000D1*
Y3445000D1*
G37*
G36*
X2407724Y3385896D2*
X2482873Y3366493D1*
X2485873D1*
Y3463507D1*
X2482873D1*
X2407724Y3444104D1*
Y3385896D1*
G37*
X2415000Y3415000D2*
D17*
X2495000D1*
D18*
X2545000D1*
X2550000Y3420000D1*
G36*
X3275000Y3165000D2*
X3305426Y3094619D1*
Y3087119D1*
X3184574D1*
Y3094619D1*
X3215000Y3165000D1*
X3275000D1*
G37*
G36*
X3215583Y3190883D2*
X3195971Y3094806D1*
Y3091806D1*
X3294029D1*
Y3094806D1*
X3274417Y3190883D1*
X3215583D1*
G37*
X3245000Y3030000D2*
D18*
Y3085000D1*
D17*
Y3185000D1*
G36*
X3085000Y2510000D2*
X3148058Y2532204D1*
X3154530Y2531609D1*
X3151871Y2414689D1*
X3145398Y2415283D1*
X3085000Y2450000D1*
Y2510000D1*
G37*
G36*
X3047724Y2450896D2*
X3122873Y2431493D1*
X3125873D1*
Y2528507D1*
X3122873D1*
X3047724Y2509104D1*
Y2450896D1*
G37*
X3055000Y2480000D2*
D17*
X3135000D1*
D18*
X3200000D1*
X3210000Y2470000D1*
G36*
X3260000Y2645000D2*
X3274819Y2523285D1*
Y2515785D1*
X3145181D1*
Y2523285D1*
X3160000Y2645000D1*
X3260000D1*
G37*
G36*
X3160000Y2564998D2*
X3125964Y2682268D1*
X3125606Y2691261D1*
X3284143Y2693117D1*
X3284501Y2684125D1*
X3260000Y2564998D1*
X3160000D1*
G37*
X3210000Y2470000D2*
D18*
Y2749997D1*
X3205000Y2754997D1*
G36*
X3255000Y2944997D2*
X3284295Y2826769D1*
Y2817769D1*
X3125705D1*
Y2826769D1*
X3155000Y2944997D1*
X3255000D1*
G37*
G36*
X3155000Y2855000D2*
X3180000Y3036993D1*
X3181718Y3044293D1*
X3290579Y2962559D1*
X3288861Y2955258D1*
X3255000Y2855000D1*
X3155000D1*
G37*
X3205000Y2754997D2*
D18*
Y2990000D1*
X3245000Y3030000D1*
G36*
X4275000Y2935000D2*
X4305000Y2835000D1*
Y2826000D1*
X4225000Y2745000D1*
X4145000Y2835000D1*
X4175000Y2935000D1*
X4275000D1*
G37*
G36*
X4175000Y2840000D2*
X4145000Y2940000D1*
X4225000Y3030000D1*
X4305000Y2949000D1*
Y2940000D1*
X4275000Y2840000D1*
X4175000D1*
G37*
X4225000Y2745000D2*
D18*
Y3030000D1*
G36*
X4275000Y3220000D2*
X4305000Y3120000D1*
Y3111000D1*
X4225000Y3030000D1*
X4145000Y3120000D1*
X4175000Y3220000D1*
X4275000D1*
G37*
G36*
X4218761Y3291317D2*
X4308470D1*
X4311296Y3287500D1*
X4276710Y3219661D1*
X4218761Y3291317D1*
G37*
G36*
X4182516Y3336218D2*
X4180016Y3238782D1*
Y3234032D1*
X4279984D1*
Y3238782D1*
X4277484Y3336218D1*
X4182516D1*
G37*
X4225000Y3030000D2*
D18*
Y3232500D1*
X4230000Y3237500D1*
D19*
Y3335000D1*
G36*
X4122323Y2672935D2*
X4124235Y2696998D1*
X4125448Y2699742D1*
X4135000Y2725000D1*
X4162781Y2713677D1*
X4152309Y2702500D1*
X4122323Y2672935D1*
G37*
G36*
X4152500Y2725000D2*
X4305000Y2726114D1*
X4225000Y2745000D1*
X4153831Y2737754D1*
X4145000Y2736017D1*
X4117500Y2725000D1*
X4152500D1*
G37*
X4135000D2*
D15*
Y2685000D1*
X4225000D1*
Y2745000D1*
G36*
X2859409Y2395842D2*
X2817667Y2420000D1*
X2813071Y2424596D1*
X2845404Y2484208D1*
X2850000Y2479612D1*
X2884158Y2420591D1*
X2859409Y2395842D1*
G37*
G36*
X3008685Y2458433D2*
X3025002Y2479700D1*
X3027123Y2481821D1*
X3056821Y2452123D1*
X3054700Y2450002D1*
X3033433Y2433685D1*
X3008685Y2458433D1*
G37*
X2785000Y2495000D2*
D15*
X2927500Y2352500D1*
X3055000Y2480000D1*
G36*
X2802500Y2605000D2*
X2820000Y2570000D1*
Y2562500D1*
X2750000D1*
Y2570000D1*
X2767500Y2605000D1*
X2802500D1*
G37*
G36*
X3090001Y2767500D2*
X3125001Y2786666D1*
X3132990Y2787085D1*
Y2718273D1*
X3125001Y2717854D1*
X3090001Y2732500D1*
Y2767500D1*
G37*
X2785000Y2495000D2*
D15*
Y2605000D1*
X2930000Y2750000D1*
X3200003D1*
X3205000Y2754997D1*
G36*
X1542494Y2177499D2*
X1447495Y2129997D1*
X1442745D1*
X1442742Y2319997D1*
X1447492D1*
X1542493Y2272499D1*
X1542494Y2177499D1*
G37*
G36*
X1487493Y2272498D2*
X1582492Y2319999D1*
X1587242D1*
X1587245Y2129999D1*
X1582495D1*
X1487494Y2177498D1*
X1487493Y2272498D1*
G37*
X1399993Y2224997D2*
D19*
X1629993Y2225000D1*
G36*
X1380758Y2138585D2*
X1279996Y2048519D1*
X1272927Y2044773D1*
X1143582Y2161253D1*
X1150651Y2164998D1*
X1313582Y2205760D1*
X1380758Y2138585D1*
G37*
G36*
X1251733Y2143909D2*
X1352493Y2296164D1*
X1356027Y2299338D1*
X1401212Y2120671D1*
X1397679Y2117497D1*
X1318909Y2076735D1*
X1251733Y2143909D1*
G37*
G36*
X1333041Y2225210D2*
X1225238Y2120939D1*
X1221880Y2117580D1*
X1292581Y2046880D1*
X1295940Y2050239D1*
X1400208Y2158044D1*
X1333041Y2225210D1*
G37*
X1189997Y2085000D2*
D18*
X1260000D1*
D19*
X1399993Y2224997D1*
G36*
X1036359Y2048786D2*
X1099999Y2111889D1*
X1107490Y2114695D1*
Y2007802D1*
X1099999Y2004995D1*
X1078786Y2006359D1*
X1036359Y2048786D1*
G37*
G36*
X2358183Y1455785D2*
X2642277Y1387616D1*
X2645277D1*
Y1582384D1*
X2642277D1*
X2358183Y1514215D1*
Y1455785D1*
G37*
G36*
X4529842Y2462688D2*
X4525877Y2433216D1*
Y2423616D1*
X4724123D1*
Y2433216D1*
X4720158Y2462688D1*
X4529842D1*
G37*
X1189997Y2085000D2*
D17*
X1115000D1*
X1050000Y2020000D1*
Y1612280D1*
X1177280Y1485000D1*
X2665000D1*
D21*
X2825000Y1645000D1*
X3850000D1*
X4625000Y2420000D1*
D22*
Y2450000D1*
G36*
X4170000Y3905000D2*
X4108945Y4005000D1*
X4104546Y4012852D1*
X4225601Y4118717D1*
X4230000Y4110865D1*
X4269082Y4034537D1*
X4170000Y3905000D1*
G37*
G36*
X4268875Y3923945D2*
X4337503Y3842500D1*
X4230000Y3795000D1*
X4248986Y3747500D1*
X4210897Y3840892D1*
X4268875Y3923945D1*
G37*
G36*
X4121823Y4074238D2*
X4179747Y3995340D1*
X4182222Y3992865D1*
X4252135Y4062778D1*
X4249660Y4065253D1*
X4170762Y4123177D1*
X4121823Y4074238D1*
G37*
G36*
X4277484Y3793782D2*
X4279984Y3891218D1*
Y3895968D1*
X4180016D1*
Y3891218D1*
X4182516Y3793782D1*
X4277484D1*
G37*
X4150000Y4095000D2*
D23*
X4220000Y4025000D1*
D18*
Y3902500D1*
X4230000Y3892500D1*
D19*
Y3795000D1*
G36*
X4180000Y3662500D2*
X4129687Y3747500D1*
Y3752250D1*
X4330313D1*
Y3747500D1*
X4280000Y3662500D1*
X4180000D1*
G37*
G36*
X4280000Y3697500D2*
X4330313Y3612500D1*
Y3607750D1*
X4129687D1*
Y3612500D1*
X4180000Y3697500D1*
X4280000D1*
G37*
G36*
X4182516Y3796218D2*
X4180016Y3698782D1*
Y3694032D1*
X4279984D1*
Y3698782D1*
X4277484Y3796218D1*
X4182516D1*
G37*
G36*
X4277484Y3563782D2*
X4279984Y3661218D1*
Y3665968D1*
X4180016D1*
Y3661218D1*
X4182516Y3563782D1*
X4277484D1*
G37*
X4230000Y3795000D2*
D19*
Y3697500D1*
D18*
Y3662500D1*
D19*
Y3565000D1*
G36*
X4523626Y2577085D2*
X4602110Y2546000D1*
X4610183Y2540805D1*
X4537073Y2427920D1*
X4529000Y2433115D1*
X4452915Y2506374D1*
X4523626Y2577085D1*
G37*
G36*
X4330722Y3641434D2*
X4149100Y3747500D1*
X4145680Y3750796D1*
X4334079Y3816108D1*
X4337500Y3812813D1*
X4401433Y3712145D1*
X4330722Y3641434D1*
G37*
G36*
X4223418Y3747958D2*
X4240938Y3745482D1*
X4245688D1*
Y3844518D1*
X4240938D1*
X4223418Y3842042D1*
Y3747958D1*
G37*
X4625000Y2450000D2*
D18*
X4580000D1*
X4460000Y2570000D1*
Y3582867D1*
X4247867Y3795000D1*
D19*
X4230000D1*
X1190003Y1805000D2*
D18*
X1280550D1*
X1320000D1*
X1393027D1*
X1470005D1*
X1630005Y1645000D1*
X1834970D1*
X1946780D1*
X2010003D1*
X2087360Y1722357D1*
X2160003Y1795000D1*
X2306853D1*
X2430003D1*
X3945000Y2745000D2*
Y3030000D1*
Y3140000D1*
Y3210000D1*
Y3270000D1*
X3890110Y3324890D1*
X3837670Y3377330D1*
X3650000Y3565000D1*
X2785000Y3525000D2*
D15*
Y3465000D1*
X2740000Y3420000D1*
X2830000Y3480000D2*
X2800000D1*
X2740000Y3420000D1*
X2835000D2*
X2740000D1*
X1140000Y1695000D2*
Y1805000D1*
X1190003D1*
X1210000Y1685000D2*
Y1785003D1*
X1190003Y1805000D1*
X1265000Y1695000D2*
Y1789450D1*
X1280550Y1805000D1*
X1320000Y1720000D2*
Y1805000D1*
X1380000Y1720000D2*
Y1791973D1*
X1393027Y1805000D1*
X1515000Y1695000D2*
X1580005D1*
X1630005Y1645000D1*
X1505000Y1640000D2*
X1625005D1*
X1630005Y1645000D1*
X1505000Y1580000D2*
X1565005D1*
X1630005Y1645000D1*
X1565000Y1585000D2*
X1570005D1*
X1630005Y1645000D1*
X1645000Y1575000D2*
Y1630005D1*
X1630005Y1645000D1*
X1740000Y1570000D2*
X1705005D1*
X1630005Y1645000D1*
X1750000Y1635000D2*
X1640005D1*
X1630005Y1645000D1*
X1855000Y1575000D2*
Y1624970D1*
X1834970Y1645000D1*
X1940000Y1575000D2*
Y1638220D1*
X1946780Y1645000D1*
X2030000Y1585000D2*
Y1625004D1*
X2010003Y1645000D1*
X2100000Y1605000D2*
X2086520D1*
X2046520Y1645000D1*
D18*
X2010003D1*
X2180000Y1605000D2*
D15*
Y1629717D1*
X2087360Y1722357D1*
X2265000Y1600000D2*
Y1690003D1*
X2160003Y1795000D1*
X2340000Y1600000D2*
Y1761853D1*
X2306853Y1795000D1*
X2420000Y1590000D2*
Y1784997D1*
X2430003Y1795000D1*
X2500000Y1600000D2*
Y1725003D1*
X2430003Y1795000D1*
X3320000Y2385000D2*
Y2390000D1*
X3400000Y2470000D1*
X3390000Y2345000D2*
Y2460000D1*
X3400000Y2470000D1*
X3525000Y2410000D2*
X3465000Y2470000D1*
X3400000D1*
X3500000Y2480000D2*
X3410000D1*
X3400000Y2470000D1*
X3550000Y2525000D2*
X3455000D1*
X3400000Y2470000D1*
X3320000Y2555000D2*
Y2550000D1*
X3400000Y2470000D1*
X3555000Y2635000D2*
Y2685003D1*
X3485000Y2755003D1*
X3585000Y2690000D2*
X3550003D1*
X3485000Y2755003D1*
X3580000Y2745000D2*
X3495003D1*
X3485000Y2755003D1*
X3465000Y2775003D1*
D23*
Y3000000D1*
D15*
X3435000Y3030000D1*
X3545000Y3135000D2*
X3540000D1*
X3435000Y3030000D1*
X3480000Y3140000D2*
Y3075000D1*
X3435000Y3030000D1*
X3410000Y3135000D2*
Y3055000D1*
X3435000Y3030000D1*
X3950000Y4200000D2*
Y4175000D1*
X3870000Y4095000D1*
X3825000Y4210000D2*
Y4140000D1*
X3870000Y4095000D1*
X3815000Y4140000D2*
X3825000D1*
X3815000Y4065000D2*
X3840000D1*
X3870000Y4095000D1*
X3830000Y3990000D2*
Y4055000D1*
X3870000Y4095000D1*
X3925000Y3990000D2*
Y4040000D1*
X3870000Y4095000D1*
X3665000Y3775000D2*
Y3580000D1*
X3650000Y3565000D1*
X3600000Y3775000D2*
Y3615000D1*
X3650000Y3565000D1*
X3530000Y3770000D2*
Y3685000D1*
X3650000Y3565000D1*
X3480000Y3730000D2*
X3485000D1*
X3650000Y3565000D1*
X3475000Y3650000D2*
X3565000D1*
X3650000Y3565000D1*
X3480000Y3585000D2*
X3630000D1*
X3650000Y3565000D1*
X3480000Y3520000D2*
X3605000D1*
X3650000Y3565000D1*
X3570000Y3360000D2*
Y3485000D1*
X3650000Y3565000D1*
Y3350000D2*
Y3565000D1*
X3785000Y3300000D2*
Y3324660D1*
X3837670Y3377330D1*
X3820000Y3260000D2*
X3825220D1*
X3890110Y3324890D1*
X3845000Y3210000D2*
X3945000D1*
X3840000Y3140000D2*
X3945000D1*
X3820000Y3085000D2*
X3890000D1*
X3945000Y3030000D1*
X3825000Y3025000D2*
X3940000D1*
X3945000Y3030000D1*
X3835000Y2745000D2*
X3945000D1*
X3835000Y2685000D2*
X3885000D1*
X3945000Y2745000D1*
X3865000Y2625000D2*
Y2665000D1*
X3945000Y2745000D1*
X3940000Y2610000D2*
Y2740000D1*
X3945000Y2745000D1*
X4010000Y2615000D2*
Y2680000D1*
X3945000Y2745000D1*
X3360000Y3110000D2*
X3385000D1*
X3410000Y3135000D1*
X2159997Y2075000D2*
D23*
X2055000D1*
D18*
X1875000Y1895000D1*
D23*
Y1965000D1*
X1920000Y2010000D1*
D17*
X3245000Y3185000D3*
X3055000Y2480000D3*
X2415000Y3415000D3*
X2280000Y3220000D3*
X2220000Y2545000D3*
X2215000Y2465000D3*
X2275000Y2415000D3*
Y2345000D3*
X2280000Y2275000D3*
X2185000Y2630000D3*
Y2795000D3*
X2475000Y3715000D3*
X1880000Y3570000D3*
X1765000Y3500000D3*
X1760000Y3380000D3*
X1820000Y3240000D3*
X1910000Y3125000D3*
X2430000Y2925000D3*
X1115000Y2940000D3*
X1770000Y2365000D3*
X1765000Y2295000D3*
X1760000Y2230000D3*
X1780000Y2460000D3*
X1820000Y2535000D3*
X1840000Y2625000D3*
X1825000Y2715000D3*
X4190000Y1710000D3*
X3995000Y1580000D3*
X1975000Y2210000D3*
X2165000Y1815000D3*
X2255000D3*
X2505000D3*
X2425000D3*
X2345000D3*
X3700000Y1840000D3*
X3540000Y3080000D3*
X3440000Y3060000D3*
X3360000Y3055000D3*
X1335000Y2000000D3*
X1380000Y1915000D3*
X1480000Y1905000D3*
X1565000Y1935000D3*
X1580000Y2020000D3*
X3205000Y1825000D3*
X4580000Y2010000D3*
X4655000D3*
X2785000Y3525000D3*
X2830000Y3480000D3*
X2835000Y3420000D3*
X3665000Y3775000D3*
X3600000D3*
X3530000Y3770000D3*
X3480000Y3730000D3*
X3475000Y3650000D3*
X3480000Y3585000D3*
Y3520000D3*
X4715000Y2085000D3*
X3570000Y3360000D3*
X3650000Y3350000D3*
X3785000Y3300000D3*
X3820000Y3260000D3*
X3845000Y3210000D3*
X3840000Y3140000D3*
X3820000Y3085000D3*
X3825000Y3025000D3*
X3835000Y2745000D3*
Y2685000D3*
X3865000Y2625000D3*
X3940000Y2610000D3*
X4010000Y2615000D3*
X3925000Y3990000D3*
X3830000D3*
X3950000Y4200000D3*
X3815000Y4065000D3*
Y4140000D3*
X3825000Y4210000D3*
X3410000Y3135000D3*
X3480000Y3140000D3*
X3545000Y3135000D3*
X3580000Y2745000D3*
X3585000Y2690000D3*
X3555000Y2635000D3*
X3320000Y2555000D3*
X3550000Y2525000D3*
X3500000Y2480000D3*
X3525000Y2410000D3*
X3390000Y2345000D3*
X3320000Y2385000D3*
X1140000Y1695000D3*
X1210000Y1685000D3*
X1265000Y1695000D3*
X1320000Y1720000D3*
X1380000D3*
X1515000Y1695000D3*
X1505000Y1640000D3*
Y1580000D3*
X1565000Y1585000D3*
X1645000Y1575000D3*
X1740000Y1570000D3*
X1750000Y1635000D3*
X1855000Y1575000D3*
X1940000D3*
X2030000Y1585000D3*
X2100000Y1605000D3*
X2180000D3*
X2265000Y1600000D3*
X2340000D3*
X2420000Y1590000D3*
X2500000Y1600000D3*
X2950000Y2590000D3*
X3360000Y3110000D3*
X4135000Y2725000D3*
X2550000Y2330000D3*
X1915121Y2805083D2*
D27*
X2391373D1*
X1951398Y2741917D2*
X2419674D1*
X1957003Y2678750D2*
X2447975D1*
X1968989Y2615583D2*
X2453899D1*
X1948116Y2552417D2*
X2430839D1*
X1940551Y2489250D2*
X2430612D1*
X1904594Y2426083D2*
X2432115D1*
X2006860Y2362917D2*
X2425097D1*
X2065467Y2299750D2*
X2424414D1*
X1703937Y1983917D2*
X1970644D1*
X1693546Y1920750D2*
X1970644D1*
X1666977Y1857583D2*
X1970644D1*
X1891879Y1794417D2*
X1950820D1*
X2436980Y2545241D2*
Y2444700D1*
X2438646Y2424965D1*
X2444804Y2402498D1*
X2447238Y2396614D1*
X2440614Y2386291D1*
X2431938Y2364573D1*
X2427529Y2341605D1*
X2427546Y2318217D1*
X2431988Y2295255D1*
X2440697Y2273549D1*
X2453355Y2253884D1*
X2458276Y2248020D1*
X2091578Y2248029D1*
X2085136Y2264809D1*
X2072773Y2284662D1*
X2056876Y2301816D1*
X2038020Y2315652D1*
X2016886Y2325670D1*
X2012469Y2327175D1*
X2007999Y2328512D1*
X2003480Y2329678D1*
X2000515Y2330345D1*
Y2425524D1*
X1897508Y2425518D1*
X1900814Y2436806D1*
X1901971Y2443989D1*
X1909096Y2450171D1*
X1923539Y2468566D1*
X1934241Y2489361D1*
X1940814Y2511806D1*
X1943020Y2535000D1*
X1942921Y2539934D1*
X1941268Y2555674D1*
X1943539Y2558566D1*
X1954241Y2579361D1*
X1960814Y2601806D1*
X1963020Y2625090D1*
X1960780Y2648370D1*
X1954174Y2670805D1*
X1945011Y2689066D1*
X1945814Y2691806D1*
X1948020Y2715090D1*
X1945780Y2738370D1*
X1939174Y2760805D1*
X1928443Y2781585D1*
X1913972Y2799958D1*
X1896286Y2815261D1*
X1876023Y2826940D1*
X1853916Y2834573D1*
X1830764Y2837885D1*
X1807404Y2836755D1*
X1806004Y2836530D1*
X1820229Y2853630D1*
X2322019Y2866494D1*
X2333355Y2848884D1*
X2349507Y2831969D1*
X2368568Y2818417D1*
X2389849Y2808717D1*
X2397120Y2806450D1*
X2469516Y2644852D1*
X2473338Y2630378D1*
X2458178Y2612691D1*
X2446798Y2592365D1*
X2439642Y2570196D1*
X2436995Y2547029D1*
X2436980Y2545241D1*
X1976983Y1901980D2*
X1976978Y2024487D1*
X1702954Y2024479D1*
X1703020Y2020000D1*
X1700814Y1996806D1*
X1694241Y1974361D1*
X1685849Y1958054D1*
X1686538Y1954038D1*
X1688020Y1935000D1*
X1685814Y1911806D1*
X1679241Y1889361D1*
X1668539Y1868566D1*
X1654096Y1850171D1*
X1648731Y1845516D1*
X1885526Y1845519D1*
Y1788029D1*
X1950778Y1788021D1*
X1976978Y1814236D1*
X1976983Y1902003D1*
X2613018Y2224345D2*
X2613023Y1873843D1*
X2615176Y1869729D1*
X2617172Y1865511D1*
X2619007Y1861221D1*
X2620678Y1856864D1*
X2622182Y1852446D1*
X2623518Y1847975D1*
X2624683Y1843457D1*
X2625677Y1838897D1*
X2628018Y1815627D1*
X2628020Y1815000D1*
X2625814Y1791806D1*
X2619241Y1769361D1*
X2613023Y1757278D1*
Y1705998D1*
X2638240Y1731212D1*
X2638250Y2244281D1*
X2621432Y2229843D1*
X2613029Y2224983D1*
X2159994Y2248085D2*
D23*
X2159997Y2075000D1*
X2429994Y2248085D2*
X2429997Y2075000D1*
X2612926Y2075003D1*
X2595000Y2495000D2*
X2436955D1*
X1859995Y2225004D2*
X1859998Y2024575D1*
X2003123Y4455083D2*
D27*
X2534609D1*
X2003123Y4391917D2*
X2523717D1*
X2003123Y4328750D2*
X2530644D1*
X2003123Y4265583D2*
X2557213D1*
X2003123Y4202417D2*
X2614407D1*
X2003123Y4139250D2*
X3645631D1*
X2003123Y4076083D2*
X3645996D1*
X2003123Y4012917D2*
X3650644D1*
X2003123Y3949750D2*
X3650644D1*
X2003123Y3886583D2*
X3409700D1*
X2003123Y3823417D2*
X2346894D1*
X2603090D2*
X3340065D1*
X2003123Y3760250D2*
X2312031D1*
X2637954D2*
X3313450D1*
X2003123Y3697083D2*
X2306608D1*
X2643377D2*
X3312584D1*
X2036300Y3633917D2*
X2327207D1*
X2622778D2*
X2657337D1*
X2912667D2*
X3306432D1*
X2049379Y3570750D2*
X2381757D1*
X2971775D2*
X3311263D1*
X2036938Y3507583D2*
X2350084D1*
X2997023D2*
X3311126D1*
X2003123Y3444417D2*
X2345618D1*
X3002537D2*
X3329218D1*
X2003123Y3381250D2*
X2345618D1*
X2999711D2*
X3388053D1*
X2003123Y3318083D2*
X2354323D1*
X2968585D2*
X3403138D1*
X2014835Y3254917D2*
X2395201D1*
X2894802D2*
X3264004D1*
X2065056Y3191750D2*
X3086770D1*
X2079321Y3128583D2*
X3048216D1*
X2519145Y3065417D2*
X3040651D1*
X2656866Y3002250D2*
X3040651D1*
X2680838Y2939083D2*
X3039147D1*
X2704809Y2875917D2*
X2995533D1*
X2728780Y2812750D2*
X2985644D1*
X2752752Y2749583D2*
X2910358D1*
X3716938Y2496917D2*
X3757786D1*
X4128735D2*
X4285839D1*
X3692648Y2433750D2*
X4267519D1*
X2970864Y2370583D2*
X3013489D1*
X3689549D2*
X4204310D1*
X2920551Y2307417D2*
X3052591D1*
X3658058D2*
X4141145D1*
X2944523Y2244250D2*
X3231419D1*
X3524529D2*
X4077981D1*
X3018852Y2181083D2*
X4014817D1*
X2890621Y3256987D2*
X2872785Y3241942D1*
X2852942Y3229705D1*
X2831513Y3220526D1*
X2808965Y3214607D1*
X2785791Y3212076D1*
X2780300Y3211980D1*
X2699767D1*
X2690784Y3212232D1*
X2667670Y3215266D1*
X2645236Y3221684D1*
X2634098Y3218183D1*
X2626576Y3216208D1*
X2618966Y3214607D1*
X2611286Y3213382D1*
X2603555Y3212538D1*
X2595791Y3212075D1*
X2590300Y3211980D1*
X2508557Y3211984D1*
X2500784Y3212232D1*
X2493033Y3212863D1*
X2485322Y3213875D1*
X2477671Y3215266D1*
X2470097Y3217033D1*
X2462620Y3219171D1*
X2455257Y3221674D1*
X2448026Y3224538D1*
X2440945Y3227755D1*
X2434032Y3231316D1*
X2427303Y3235215D1*
X2420773Y3239440D1*
X2414461Y3243982D1*
X2408379Y3248829D1*
X2402544Y3253971D1*
X2396970Y3259393D1*
X2391669Y3265084D1*
X2386656Y3271030D1*
X2381942Y3277215D1*
X2377538Y3283625D1*
X2373456Y3290245D1*
X2369705Y3297057D1*
X2366294Y3304046D1*
X2363232Y3311195D1*
X2360526Y3318486D1*
X2358183Y3325902D1*
X2356208Y3333424D1*
X2354607Y3341034D1*
X2353382Y3348714D1*
X2352538Y3356445D1*
X2352075Y3364209D1*
X2351980Y3369700D1*
X2351984Y3471443D1*
X2352232Y3479216D1*
X2352863Y3486967D1*
X2353875Y3494678D1*
X2355266Y3502329D1*
X2357033Y3509903D1*
X2359171Y3517380D1*
X2361674Y3524743D1*
X2364538Y3531974D1*
X2367755Y3539055D1*
X2371316Y3545968D1*
X2375215Y3552697D1*
X2379440Y3559227D1*
X2383982Y3565539D1*
X2388834Y3571627D1*
X2391862Y3575132D1*
X2386819Y3577888D1*
X2368204Y3591833D1*
X2351762Y3608286D1*
X2337830Y3626910D1*
X2326689Y3647328D1*
X2318568Y3669124D1*
X2313632Y3691853D1*
X2311980Y3715054D1*
X2313647Y3738254D1*
X2318599Y3760980D1*
X2326734Y3782770D1*
X2337888Y3803181D1*
X2351833Y3821796D1*
X2368286Y3838238D1*
X2386910Y3852170D1*
X2407328Y3863311D1*
X2429124Y3871432D1*
X2451853Y3876368D1*
X2475054Y3878020D1*
X2498254Y3876353D1*
X2520980Y3871401D1*
X2542770Y3863266D1*
X2563181Y3852112D1*
X2581796Y3838167D1*
X2598238Y3821714D1*
X2612170Y3803090D1*
X2623311Y3782672D1*
X2631432Y3760876D1*
X2636368Y3738147D1*
X2638020Y3715000D1*
X2636353Y3691746D1*
X2631401Y3669020D1*
X2623266Y3647230D1*
X2612112Y3626819D1*
X2611908Y3626547D1*
X2621210Y3624962D1*
X2628796Y3623250D1*
X2636289Y3621166D1*
X2643677Y3618713D1*
X2648509Y3619480D1*
X2661833Y3631796D1*
X2678286Y3648238D1*
X2696910Y3662170D1*
X2717328Y3673311D1*
X2739124Y3681432D1*
X2761853Y3686368D1*
X2785054Y3688020D1*
X2808254Y3686353D1*
X2830980Y3681401D1*
X2852770Y3673266D1*
X2873181Y3662112D1*
X2891796Y3648167D1*
X2908238Y3631714D1*
X2920089Y3615873D1*
X2922292Y3614379D1*
X2940477Y3599876D1*
X2956413Y3582934D1*
X2969775Y3563896D1*
X2980292Y3543150D1*
X2987749Y3521118D1*
X2991995Y3498249D1*
X2993020Y3480000D1*
X2991892Y3464263D1*
X2996368Y3443147D1*
X2998020Y3420000D1*
X2996353Y3396746D1*
X2991401Y3374020D1*
X2983266Y3352230D1*
X2972112Y3331819D1*
X2958167Y3313204D1*
X2941714Y3296762D1*
X2923090Y3282830D1*
X2904765Y3272832D1*
X2890621Y3256987D1*
X4283399Y2521980D2*
X4143870D1*
X4141810Y2519074D1*
X4139010Y2515341D1*
X4136105Y2511689D1*
X4133096Y2508122D1*
X4129986Y2504642D1*
X4113060Y2488690D1*
X4094035Y2475309D1*
X4073299Y2464771D1*
X4051275Y2457292D1*
X4028411Y2453023D1*
X4005172Y2452052D1*
X3986980Y2453896D1*
X3985824Y2453553D1*
X3963093Y2448624D1*
X3939892Y2446980D1*
X3916693Y2448655D1*
X3893968Y2453614D1*
X3872181Y2461757D1*
X3871523Y2462116D1*
X3871199Y2462211D1*
X3869504Y2462042D1*
X3846267Y2463060D1*
X3823411Y2467374D1*
X3801402Y2474897D1*
X3780687Y2485476D1*
X3761689Y2498895D1*
X3744794Y2514882D1*
X3741691Y2518367D1*
X3738636Y2521980D1*
X3731980D1*
Y2530752D1*
X3727742Y2537047D1*
X3725281Y2541012D1*
X3722934Y2545045D1*
X3720704Y2549144D1*
X3718592Y2553305D1*
X3716600Y2557525D1*
X3714729Y2561801D1*
X3708511Y2580151D1*
X3707333Y2578125D1*
X3705621Y2573539D1*
X3707736Y2566170D1*
X3711989Y2543303D1*
X3713020Y2525000D1*
X3711353Y2501746D1*
X3706401Y2479020D1*
X3698266Y2457230D1*
X3687112Y2436819D1*
X3686036Y2435383D1*
X3686368Y2433147D1*
X3688020Y2410000D1*
X3686353Y2386746D1*
X3681401Y2364020D1*
X3673266Y2342230D1*
X3662112Y2321819D1*
X3648167Y2303204D1*
X3631714Y2286762D1*
X3613090Y2272830D1*
X3592672Y2261689D1*
X3570876Y2253568D1*
X3548147Y2248632D1*
X3524946Y2246980D1*
X3520483Y2247301D1*
X3513167Y2238204D1*
X3496714Y2221762D1*
X3478090Y2207830D1*
X3457672Y2196689D1*
X3435876Y2188568D1*
X3413147Y2183632D1*
X3389946Y2181980D1*
X3366746Y2183647D1*
X3344020Y2188599D1*
X3322230Y2196734D1*
X3301819Y2207888D1*
X3283204Y2221833D1*
X3277407Y2227633D1*
X3274020Y2228599D1*
X3252230Y2236734D1*
X3231819Y2247888D1*
X3213035Y2261980D1*
X3169700D1*
X3161925Y2262171D1*
X3154170Y2262746D1*
X3146452Y2263702D1*
X3138790Y2265038D1*
X3131204Y2266750D1*
X3123711Y2268833D1*
X3116330Y2271284D1*
X3109079Y2274095D1*
X3101976Y2277260D1*
X3095037Y2280772D1*
X3088279Y2284621D1*
X3081719Y2288799D1*
X3075374Y2293295D1*
X3069257Y2298098D1*
X3063385Y2303197D1*
X3057772Y2308579D1*
X3052430Y2314232D1*
X3047374Y2320141D1*
X3042615Y2326292D1*
X3038165Y2332670D1*
X3034035Y2339259D1*
X3030235Y2346045D1*
X3026773Y2353009D1*
X3023660Y2360135D1*
X3020901Y2367407D1*
X3018504Y2374805D1*
X3016475Y2382313D1*
X3014818Y2389911D1*
X3013538Y2397582D1*
X3012638Y2405307D1*
X3012119Y2413089D1*
X3011980Y2420058D1*
Y2439228D1*
X2995876Y2433568D1*
X2982403Y2430642D1*
X2979734Y2412671D1*
X2973326Y2390257D1*
X2963684Y2369032D1*
X2951019Y2349461D1*
X2935607Y2331970D1*
X2917766Y2316930D1*
X2919630Y2293155D1*
X2961988Y2181545D1*
X4011964Y2171872D1*
X4308067Y2467968D1*
X4296355Y2488046D1*
X4287256Y2509539D1*
X4283399Y2521980D1*
X2630433Y3011282D2*
X2559238Y3023693D1*
X2553238Y3031714D1*
X2536796Y3048167D1*
X2518181Y3062112D1*
X2497770Y3073266D1*
X2475980Y3081401D1*
X2453254Y3086353D1*
X2430054Y3088020D1*
X2406853Y3086368D1*
X2384124Y3081432D1*
X2362328Y3073311D1*
X2341910Y3062170D1*
X2341139Y3061689D1*
X2071846Y3108627D1*
X2073020Y3125000D1*
X2071368Y3148147D1*
X2066432Y3170876D1*
X2058311Y3192672D1*
X2047170Y3213090D1*
X2033238Y3231714D1*
X2016796Y3248167D1*
X1998181Y3262112D1*
X1996750Y3263000D1*
X1996756Y3456797D1*
X2003167Y3463204D1*
X2017112Y3481819D1*
X2028266Y3502230D1*
X2036401Y3524020D1*
X2041353Y3546746D1*
X2043020Y3570000D1*
X2041368Y3593147D1*
X2036432Y3615876D1*
X2028311Y3637672D1*
X2017170Y3658090D1*
X2003238Y3676714D1*
X1996750Y3683775D1*
X1996730Y4518250D1*
X2572890Y4518244D1*
X2571100Y4515934D1*
X2558817Y4496252D1*
X2548589Y4475429D1*
X2540520Y4453679D1*
X2534693Y4431223D1*
X2531168Y4408293D1*
X2529980Y4385124D1*
X2531143Y4361954D1*
X2534643Y4339020D1*
X2540446Y4316558D1*
X2548491Y4294799D1*
X2558697Y4273965D1*
X2570958Y4254270D1*
X2585148Y4235917D1*
X2601123Y4219093D1*
X2618717Y4203973D1*
X2637751Y4190709D1*
X2658030Y4179439D1*
X2679344Y4170279D1*
X2701475Y4163322D1*
X2724197Y4158640D1*
X2747276Y4156280D1*
X2770476Y4156268D1*
X2793557Y4158602D1*
X2816284Y4163260D1*
X2838424Y4170193D1*
X2859748Y4179330D1*
X2880038Y4190578D1*
X2886231Y4194556D1*
X2891751Y4190709D1*
X2912030Y4179439D1*
X2933344Y4170279D1*
X2955475Y4163322D1*
X2978197Y4158640D1*
X3001276Y4156280D1*
X3024476Y4156268D1*
X3047557Y4158602D1*
X3070284Y4163260D1*
X3092424Y4170193D1*
X3113748Y4179330D1*
X3134038Y4190578D1*
X3140231Y4194556D1*
X3145751Y4190709D1*
X3166030Y4179439D1*
X3187344Y4170279D1*
X3209475Y4163322D1*
X3232197Y4158640D1*
X3255276Y4156280D1*
X3278476Y4156268D1*
X3301557Y4158602D1*
X3324284Y4163260D1*
X3346424Y4170193D1*
X3367748Y4179330D1*
X3388038Y4190578D1*
X3394231Y4194556D1*
X3399751Y4190709D1*
X3420030Y4179439D1*
X3441344Y4170279D1*
X3463475Y4163322D1*
X3486197Y4158640D1*
X3509276Y4156280D1*
X3532476Y4156268D1*
X3545980Y4157339D1*
Y4155980D1*
X3652781D1*
X3652260Y4149544D1*
X3652053Y4144882D1*
X3651980Y4140217D1*
X3652041Y4135550D1*
X3652235Y4130888D1*
X3652562Y4126233D1*
X3653023Y4121589D1*
X3653616Y4116961D1*
X3654342Y4112351D1*
X3655199Y4107764D1*
X3656354Y4102497D1*
X3655296Y4097714D1*
X3654425Y4093129D1*
X3653686Y4088522D1*
X3653079Y4083895D1*
X3652604Y4079252D1*
X3652263Y4074598D1*
X3652055Y4069937D1*
X3651980Y4065271D1*
X3652039Y4060605D1*
X3652232Y4055942D1*
X3652558Y4051287D1*
X3653017Y4046643D1*
X3653609Y4042014D1*
X3654333Y4037404D1*
X3655188Y4032817D1*
X3656175Y4028256D1*
X3656980Y4024945D1*
X3656984Y3937612D1*
X3637297Y3935649D1*
X3631470Y3934536D1*
X3618680Y3936946D1*
X3595442Y3937956D1*
X3572297Y3935649D1*
X3553605Y3931284D1*
X3530162Y3933020D1*
X3506961Y3931384D1*
X3484228Y3926462D1*
X3462427Y3918356D1*
X3442001Y3907229D1*
X3423367Y3893309D1*
X3406904Y3876878D1*
X3404500Y3874038D1*
X3391956Y3867200D1*
X3373326Y3853273D1*
X3356869Y3836837D1*
X3342917Y3818226D1*
X3331757Y3797819D1*
X3323614Y3776032D1*
X3318655Y3753307D1*
X3316980Y3730108D1*
X3318624Y3706907D1*
X3319930Y3699081D1*
X3317430Y3691799D1*
X3313085Y3668949D1*
X3312036Y3645713D1*
X3314305Y3622564D1*
X3318395Y3604705D1*
X3316980Y3585108D1*
X3318624Y3561907D1*
X3320452Y3551541D1*
X3318655Y3543307D1*
X3316980Y3520108D1*
X3318624Y3496907D1*
X3323553Y3474176D1*
X3331667Y3452378D1*
X3342800Y3431956D1*
X3356727Y3413326D1*
X3373163Y3396869D1*
X3391774Y3382917D1*
X3395733Y3380448D1*
X3399762Y3378094D1*
X3403857Y3375855D1*
X3407586Y3373944D1*
X3407286Y3369977D1*
X3407067Y3365315D1*
X3406981Y3360650D1*
X3407029Y3355983D1*
X3407211Y3351320D1*
X3407526Y3346664D1*
X3407975Y3342020D1*
X3408556Y3337389D1*
X3409481Y3331573D1*
X3409476Y3297719D1*
X3391751Y3296995D1*
X3368882Y3292749D1*
X3346850Y3285292D1*
X3326104Y3274775D1*
X3320100Y3270988D1*
X3299124Y3266432D1*
X3277328Y3258311D1*
X3256910Y3247170D1*
X3244076Y3238020D1*
X3204700D1*
X3199208Y3237925D1*
X3191445Y3237462D1*
X3183714Y3236618D1*
X3176034Y3235393D1*
X3168423Y3233792D1*
X3160901Y3231817D1*
X3153486Y3229474D1*
X3146195Y3226768D1*
X3139046Y3223706D1*
X3132057Y3220295D1*
X3125244Y3216544D1*
X3118625Y3212462D1*
X3112215Y3208058D1*
X3106029Y3203344D1*
X3100084Y3198331D1*
X3094393Y3193030D1*
X3088970Y3187456D1*
X3083829Y3181621D1*
X3078981Y3175539D1*
X3074439Y3169226D1*
X3070214Y3162697D1*
X3066316Y3155968D1*
X3062754Y3149054D1*
X3059538Y3141974D1*
X3056674Y3134743D1*
X3054170Y3127380D1*
X3052033Y3119903D1*
X3050266Y3112329D1*
X3048875Y3104678D1*
X3047863Y3096967D1*
X3047232Y3089215D1*
X3046980Y3080219D1*
Y2979700D1*
X3047075Y2974208D1*
X3047538Y2966445D1*
X3048382Y2958714D1*
X3049608Y2951026D1*
X3046117Y2939615D1*
X3040370Y2934376D1*
X3034889Y2928858D1*
X3029689Y2923076D1*
X3024781Y2917043D1*
X3020177Y2910775D1*
X3015890Y2904287D1*
X3011929Y2897594D1*
X3008305Y2890713D1*
X3005025Y2883661D1*
X3002099Y2876456D1*
X2999533Y2869114D1*
X2997334Y2861655D1*
X2995507Y2854096D1*
X2994056Y2846455D1*
X2992986Y2838752D1*
X2992298Y2831006D1*
X2991995Y2823227D1*
X2991980Y2747527D1*
X2991968Y2747236D1*
X2987219Y2748714D1*
X2964252Y2752396D1*
X2940996Y2752771D1*
X2917923Y2749833D1*
X2895503Y2743641D1*
X2874192Y2734321D1*
X2854425Y2722064D1*
X2836603Y2707118D1*
X2825300Y2703020D1*
X2764079Y2703019D1*
X2654277Y2992284D1*
X2644344Y3005172D1*
X2630433Y3011282D1*
X2550000Y3420000D2*
D23*
X2352059D1*
X2550000D2*
Y3212033D1*
X3210000Y2470000D2*
Y2262033D1*
X4225000Y2745000D2*
Y2522071D1*
X3245000Y3030000D2*
X3047059D1*
X3245000Y3237967D2*
Y3030000D1*
X2992029Y2754992D2*
X3205000Y2754997D1*
X2785000Y2702967D2*
Y2495000D1*
X3775000Y4385000D2*
D28*
X3546044Y4156044D1*
D57*
X2740000Y3420000D3*
X2550000D3*
X3400000Y2470000D3*
X3210000D3*
D30*
X4150000Y4095000D3*
X3870000D3*
X4225000Y3030000D3*
X3945000D3*
X4225000Y2745000D3*
X3945000D3*
D57*
X3435000Y3030000D3*
X3245000D3*
D61*
X3205000Y2754997D3*
X3485000Y2755003D3*
D31*
X1189997Y2085000D3*
X1190003Y1805000D3*
X2159997Y2075000D3*
X2160003Y1795000D3*
X2429997Y2075000D3*
X2430003Y1795000D3*
D57*
X2785000Y2495000D3*
X2595000D3*
D33*
X3775000Y4385000D3*
D34*
X3521000D3*
X3267000D3*
X3013000D3*
X2759000D3*
D33*
X4625000Y2450000D3*
D34*
Y2704000D3*
Y2958000D3*
Y3212000D3*
Y3466000D3*
D35*
X1399995Y2224996D3*
X1629995Y2225000D3*
X1859995Y2225004D3*
D36*
X1630005Y1645000D3*
D37*
X4230000Y3795000D3*
Y3565000D3*
Y3335000D3*
D38*
X3650000Y3565000D3*
D33*
X3320000Y1385000D3*
D34*
X3066000D3*
D39*
X1455000Y2693700D3*
Y3176300D3*
M02*
