G04 DipTrace 4.3.0.3*
G04 GBS.gbr*
%MOMM*%
G04 #@! TF.FileFunction,Soldermask,Bot*
G04 #@! TF.Part,Single*
%AMOUTLINE1*
4,1,28,
0.6,0.49972,
0.6,-0.49972,
0.59287,-0.55388,
0.57323,-0.60128,
0.54199,-0.64199,
0.50128,-0.67323,
0.45388,-0.69287,
0.39972,-0.7,
-0.39972,-0.7,
-0.45388,-0.69287,
-0.50128,-0.67323,
-0.54199,-0.64199,
-0.57323,-0.60128,
-0.59287,-0.55388,
-0.6,-0.49972,
-0.6,0.49972,
-0.59287,0.55388,
-0.57323,0.60128,
-0.54199,0.64199,
-0.50128,0.67323,
-0.45388,0.69287,
-0.39972,0.7,
0.39972,0.7,
0.45388,0.69287,
0.50128,0.67323,
0.54199,0.64199,
0.57323,0.60128,
0.59287,0.55388,
0.6,0.49972,
0*%
%AMOUTLINE5*
4,1,28,
-0.74999,-0.65674,
-0.75001,0.65671,
-0.74312,0.70905,
-0.72419,0.75477,
-0.69406,0.79403,
-0.6548,0.82416,
-0.60908,0.8431,
-0.55674,0.84999,
0.5567,0.85001,
0.60905,0.84312,
0.65477,0.82419,
0.69403,0.79406,
0.72415,0.7548,
0.74309,0.70908,
0.74999,0.65674,
0.75001,-0.65671,
0.74312,-0.70905,
0.72419,-0.75477,
0.69406,-0.79403,
0.6548,-0.82416,
0.60908,-0.8431,
0.55674,-0.84999,
-0.5567,-0.85001,
-0.60905,-0.84312,
-0.65477,-0.82419,
-0.69403,-0.79406,
-0.72415,-0.7548,
-0.74309,-0.70908,
-0.74999,-0.65674,
0*%
%ADD40C,3.2*%
%ADD44C,1.1192*%
%ADD45R,2.05X3.15*%
%ADD46R,2.05X0.85*%
%ADD47R,3.15X2.05*%
%ADD48R,0.85X2.05*%
%ADD49C,1.82*%
%ADD50R,1.82X1.82*%
%ADD52R,1.7X1.5*%
%ADD53R,1.5X1.7*%
%ADD58OUTLINE1*%
%ADD62OUTLINE5*%
%FSLAX35Y35*%
G04*
G71*
G90*
G75*
G01*
G04 BotMask*
%LPD*%
D58*
X2740000Y3420000D3*
X2550000D3*
X3400000Y2470000D3*
X3210000D3*
D53*
X4150000Y4095000D3*
X3870000D3*
X4225000Y3030000D3*
X3945000D3*
X4225000Y2745000D3*
X3945000D3*
D58*
X3435000Y3030000D3*
X3245000D3*
D62*
X3205000Y2754997D3*
X3485000Y2755003D3*
D52*
X1189997Y2085000D3*
X1190003Y1805000D3*
X2159997Y2075000D3*
X2160003Y1795000D3*
X2429997Y2075000D3*
X2430003Y1795000D3*
D58*
X2785000Y2495000D3*
X2595000D3*
D50*
X3775000Y4385000D3*
D49*
X3521000D3*
X3267000D3*
X3013000D3*
X2759000D3*
D40*
X1370000Y1270000D3*
X4420000D3*
Y4320000D3*
X1370000D3*
D50*
X4625000Y2450000D3*
D49*
Y2704000D3*
Y2958000D3*
Y3212000D3*
Y3466000D3*
D48*
X1399995Y2224996D3*
X1629995Y2225000D3*
X1859995Y2225004D3*
D47*
X1630005Y1645000D3*
D46*
X4230000Y3795000D3*
Y3565000D3*
Y3335000D3*
D45*
X3650000Y3565000D3*
D50*
X3320000Y1385000D3*
D49*
X3066000D3*
D44*
X1455000Y2693700D3*
Y3176300D3*
M02*
