G04 DipTrace 4.3.0.3*
G04 GTO.gbr*
%MOMM*%
G04 #@! TF.FileFunction,Legend,Top*
G04 #@! TF.Part,Single*
%ADD10C,0.25*%
%ADD13C,0.12*%
%ADD54C,0.19608*%
%ADD55C,0.15686*%
%FSLAX35Y35*%
G04*
G71*
G90*
G75*
G01*
G04 TopSilk*
%LPD*%
X1519950Y1904947D2*
D10*
X1390050D1*
X1824947Y2660050D2*
Y2789950D1*
Y2475050D2*
Y2604950D1*
X2014000Y2260080D2*
Y2419920D1*
X1995080Y2260080D2*
Y2419920D1*
Y2260080D2*
X2054920D1*
X1995080Y2419920D2*
X2054920D1*
X2008973Y3367153D2*
Y3526993D1*
X1990053Y3367153D2*
Y3526993D1*
Y3367153D2*
X2049893D1*
X1990053Y3526993D2*
X2049893D1*
X1819947Y3170050D2*
Y3299950D1*
X4469000Y2040080D2*
Y2199920D1*
X4450080Y2040080D2*
Y2199920D1*
Y2040080D2*
X4509920D1*
X4450080Y2199920D2*
X4509920D1*
X3599920Y2590080D2*
X3540080D1*
X3599920Y2749920D2*
X3540080D1*
X3581087D2*
Y2590080D1*
X3600007Y2749920D2*
Y2590080D1*
X3945000Y4252000D2*
D13*
Y4518000D1*
X2589000D1*
Y4252000D1*
X3945000D1*
G36*
X3799600Y4209400D2*
X3799390Y4206189D1*
X3798762Y4203033D1*
X3797727Y4199986D1*
X3796304Y4197100D1*
X3794516Y4194424D1*
X3792395Y4192005D1*
X3789976Y4189884D1*
X3787300Y4188096D1*
X3784414Y4186673D1*
X3781367Y4185638D1*
X3778211Y4185010D1*
X3775000Y4184800D1*
X3771789Y4185010D1*
X3768633Y4185638D1*
X3765586Y4186673D1*
X3762700Y4188096D1*
X3760024Y4189884D1*
X3757605Y4192005D1*
X3755484Y4194424D1*
X3753696Y4197100D1*
X3752273Y4199986D1*
X3751238Y4203033D1*
X3750610Y4206189D1*
X3750400Y4209400D1*
D1*
X3750610Y4212611D1*
X3751238Y4215767D1*
X3752273Y4218814D1*
X3753696Y4221700D1*
X3755484Y4224376D1*
X3757605Y4226795D1*
X3760024Y4228916D1*
X3762700Y4230704D1*
X3765586Y4232127D1*
X3768633Y4233162D1*
X3771789Y4233790D1*
X3775000Y4234000D1*
X3778211Y4233790D1*
X3781367Y4233162D1*
X3784414Y4232127D1*
X3787300Y4230704D1*
X3789976Y4228916D1*
X3792395Y4226795D1*
X3794516Y4224376D1*
X3796304Y4221700D1*
X3797727Y4218814D1*
X3798762Y4215767D1*
X3799390Y4212611D1*
X3799600Y4209400D1*
D1*
G37*
X4492000Y2280000D2*
D13*
X4758000D1*
Y3636000D1*
X4492000D1*
Y2280000D1*
G36*
X4449400Y2425400D2*
X4446189Y2425610D1*
X4443033Y2426238D1*
X4439986Y2427273D1*
X4437100Y2428696D1*
X4434424Y2430484D1*
X4432005Y2432605D1*
X4429884Y2435024D1*
X4428096Y2437700D1*
X4426673Y2440586D1*
X4425638Y2443633D1*
X4425010Y2446789D1*
X4424800Y2450000D1*
X4425010Y2453211D1*
X4425638Y2456367D1*
X4426673Y2459414D1*
X4428096Y2462300D1*
X4429884Y2464976D1*
X4432005Y2467395D1*
X4434424Y2469516D1*
X4437100Y2471304D1*
X4439986Y2472727D1*
X4443033Y2473762D1*
X4446189Y2474390D1*
X4449400Y2474600D1*
D1*
X4452611Y2474390D1*
X4455767Y2473762D1*
X4458814Y2472727D1*
X4461700Y2471304D1*
X4464376Y2469516D1*
X4466795Y2467395D1*
X4468916Y2464976D1*
X4470704Y2462300D1*
X4472127Y2459414D1*
X4473162Y2456367D1*
X4473790Y2453211D1*
X4474000Y2450000D1*
X4473790Y2446789D1*
X4473162Y2443633D1*
X4472127Y2440586D1*
X4470704Y2437700D1*
X4468916Y2435024D1*
X4466795Y2432605D1*
X4464376Y2430484D1*
X4461700Y2428696D1*
X4458814Y2427273D1*
X4455767Y2426238D1*
X4452611Y2425610D1*
X4449400Y2425400D1*
D1*
G37*
X2417000Y3255000D2*
D13*
X2365000D1*
Y3203000D1*
X3085000D2*
Y3255000D1*
X3033000D1*
Y2535000D2*
X3085000D1*
Y2587000D1*
X2365000D2*
Y2535000D1*
X2417000D1*
G36*
X2274000Y3247000D2*
X2277263Y3246786D1*
X2280470Y3246148D1*
X2283567Y3245097D1*
X2286500Y3243651D1*
X2289219Y3241834D1*
X2291678Y3239678D1*
X2293834Y3237219D1*
X2295651Y3234500D1*
X2297097Y3231567D1*
X2298148Y3228470D1*
X2298786Y3225263D1*
X2299000Y3222000D1*
X2298786Y3218737D1*
X2298148Y3215530D1*
X2297097Y3212433D1*
X2295651Y3209500D1*
X2293834Y3206781D1*
X2291678Y3204322D1*
X2289219Y3202166D1*
X2286500Y3200349D1*
X2283567Y3198903D1*
X2280470Y3197852D1*
X2277263Y3197214D1*
X2274000Y3197000D1*
D1*
X2270737Y3197214D1*
X2267530Y3197852D1*
X2264433Y3198903D1*
X2261500Y3200349D1*
X2258781Y3202166D1*
X2256322Y3204322D1*
X2254166Y3206781D1*
X2252349Y3209500D1*
X2250903Y3212433D1*
X2249852Y3215530D1*
X2249214Y3218737D1*
X2249000Y3222000D1*
X2249214Y3225263D1*
X2249852Y3228470D1*
X2250903Y3231567D1*
X2252349Y3234500D1*
X2254166Y3237219D1*
X2256322Y3239678D1*
X2258781Y3241834D1*
X2261500Y3243651D1*
X2264433Y3245097D1*
X2267530Y3246148D1*
X2270737Y3246786D1*
X2274000Y3247000D1*
D1*
G37*
X4280000Y2016000D2*
D13*
Y2025000D1*
X3880000D1*
Y2016000D1*
X4280000Y1534000D2*
Y1525000D1*
X3880000D1*
Y1534000D1*
G36*
X3759000Y2060000D2*
X3762263Y2059786D1*
X3765470Y2059148D1*
X3768567Y2058097D1*
X3771500Y2056651D1*
X3774219Y2054834D1*
X3776678Y2052678D1*
X3778834Y2050219D1*
X3780651Y2047500D1*
X3782097Y2044567D1*
X3783148Y2041470D1*
X3783786Y2038263D1*
X3784000Y2035000D1*
X3783786Y2031737D1*
X3783148Y2028530D1*
X3782097Y2025433D1*
X3780651Y2022500D1*
X3778834Y2019781D1*
X3776678Y2017322D1*
X3774219Y2015166D1*
X3771500Y2013349D1*
X3768567Y2011903D1*
X3765470Y2010852D1*
X3762263Y2010214D1*
X3759000Y2010000D1*
D1*
X3755737Y2010214D1*
X3752530Y2010852D1*
X3749433Y2011903D1*
X3746500Y2013349D1*
X3743781Y2015166D1*
X3741322Y2017322D1*
X3739166Y2019781D1*
X3737349Y2022500D1*
X3735903Y2025433D1*
X3734852Y2028530D1*
X3734214Y2031737D1*
X3734000Y2035000D1*
X3734214Y2038263D1*
X3734852Y2041470D1*
X3735903Y2044567D1*
X3737349Y2047500D1*
X3739166Y2050219D1*
X3741322Y2052678D1*
X3743781Y2054834D1*
X3746500Y2056651D1*
X3749433Y2058097D1*
X3752530Y2059148D1*
X3755737Y2059786D1*
X3759000Y2060000D1*
D1*
G37*
X3490000Y1252000D2*
D13*
Y1518000D1*
X2896000D1*
Y1252000D1*
X3490000D1*
G36*
X3344600Y1209400D2*
X3344390Y1206189D1*
X3343762Y1203033D1*
X3342727Y1199986D1*
X3341304Y1197100D1*
X3339516Y1194424D1*
X3337395Y1192005D1*
X3334976Y1189884D1*
X3332300Y1188096D1*
X3329414Y1186673D1*
X3326367Y1185638D1*
X3323211Y1185010D1*
X3320000Y1184800D1*
X3316789Y1185010D1*
X3313633Y1185638D1*
X3310586Y1186673D1*
X3307700Y1188096D1*
X3305024Y1189884D1*
X3302605Y1192005D1*
X3300484Y1194424D1*
X3298696Y1197100D1*
X3297273Y1199986D1*
X3296238Y1203033D1*
X3295610Y1206189D1*
X3295400Y1209400D1*
D1*
X3295610Y1212611D1*
X3296238Y1215767D1*
X3297273Y1218814D1*
X3298696Y1221700D1*
X3300484Y1224376D1*
X3302605Y1226795D1*
X3305024Y1228916D1*
X3307700Y1230704D1*
X3310586Y1232127D1*
X3313633Y1233162D1*
X3316789Y1233790D1*
X3320000Y1234000D1*
X3323211Y1233790D1*
X3326367Y1233162D1*
X3329414Y1232127D1*
X3332300Y1230704D1*
X3334976Y1228916D1*
X3337395Y1226795D1*
X3339516Y1224376D1*
X3341304Y1221700D1*
X3342727Y1218814D1*
X3343762Y1215767D1*
X3344390Y1212611D1*
X3344600Y1209400D1*
D1*
G37*
X1690900Y2580253D2*
D10*
Y3289747D1*
X1219100Y2580253D2*
Y3289747D1*
Y2580253D2*
G03X1690900Y2580253I235900J20868D01*
G01*
Y3289747D2*
G03X1219100Y3289747I-235900J-20868D01*
G01*
X2786681Y4168869D2*
D55*
X2708852D1*
X2694365Y4173698D1*
X2689423Y4178528D1*
X2684594Y4188298D1*
Y4202898D1*
X2689423Y4212557D1*
X2772081Y4168869D2*
X2781740Y4178528D1*
X2786681Y4188298D1*
Y4202898D1*
X2781740Y4212557D1*
X2772081Y4222328D1*
X2757481Y4227157D1*
X2747711D1*
X2733223Y4222328D1*
X2723452Y4212557D1*
X2718623Y4202898D1*
Y4188298D1*
X2723452Y4178528D1*
X2733223Y4168869D1*
X2791511Y4137497D2*
X2723452D1*
X2772081D2*
X2786681Y4122897D1*
X2791511Y4113126D1*
Y4098638D1*
X2786681Y4088867D1*
X2772081Y4084038D1*
X2723452D1*
X2825540Y3994378D2*
X2723452D1*
X2776911D2*
X2786681Y4004036D1*
X2791511Y4013807D1*
Y4028407D1*
X2786681Y4038066D1*
X2776911Y4047836D1*
X2762311Y4052666D1*
X2752652D1*
X2738052Y4047836D1*
X2728394Y4038066D1*
X2723452Y4028407D1*
Y4013807D1*
X2728394Y4004036D1*
X2738052Y3994378D1*
X3036911Y4173698D2*
X3046681Y4178528D1*
X3051511Y4193128D1*
Y4207728D1*
X3046681Y4222328D1*
X3036911Y4227157D1*
X3027252Y4222328D1*
X3022311Y4212557D1*
X3017481Y4188298D1*
X3012652Y4178528D1*
X3002881Y4173698D1*
X2998052D1*
X2988394Y4178528D1*
X2983452Y4193128D1*
Y4207728D1*
X2988394Y4222328D1*
X2998052Y4227157D1*
X3051511Y4142326D2*
X2983452Y4122897D1*
X3051511Y4103467D1*
X2983452Y4084038D1*
X3051511Y4064609D1*
Y4008978D2*
X3046681Y4018636D1*
X3036911Y4028407D1*
X3022311Y4033236D1*
X3012652D1*
X2998052Y4028407D1*
X2988394Y4018636D1*
X2983452Y4008978D1*
Y3994378D1*
X2988394Y3984607D1*
X2998052Y3974949D1*
X3012652Y3970007D1*
X3022311D1*
X3036911Y3974949D1*
X3046681Y3984607D1*
X3051511Y3994378D1*
Y4008978D1*
X3296911Y4168757D2*
X3306681Y4178528D1*
X3311511Y4188298D1*
Y4202786D1*
X3306681Y4212557D1*
X3296911Y4222215D1*
X3282311Y4227157D1*
X3272652D1*
X3258052Y4222215D1*
X3248394Y4212557D1*
X3243452Y4202786D1*
Y4188298D1*
X3248394Y4178528D1*
X3258052Y4168757D1*
X3345540Y4137384D2*
X3243452D1*
X3345540Y4106012D2*
X3243452D1*
X3311511Y4057383D2*
X3262881Y4106012D1*
X3282311Y4086583D2*
X3243452Y4052553D1*
X3595540Y4168869D2*
X3493452D1*
X3546911D2*
X3556681Y4178528D1*
X3561511Y4188298D1*
Y4202898D1*
X3556681Y4212557D1*
X3546911Y4222328D1*
X3532311Y4227157D1*
X3522652D1*
X3508052Y4222328D1*
X3498394Y4212557D1*
X3493452Y4202898D1*
Y4188298D1*
X3498394Y4178528D1*
X3508052Y4168869D1*
X3595540Y4137497D2*
X3590711Y4132667D1*
X3595540Y4127726D1*
X3600481Y4132667D1*
X3595540Y4137497D1*
X3561511Y4132667D2*
X3493452D1*
X3561511Y4072095D2*
X3556681Y4081753D1*
X3546911Y4091524D1*
X3532311Y4096353D1*
X3522652D1*
X3508052Y4091524D1*
X3498394Y4081753D1*
X3493452Y4072095D1*
Y4057495D1*
X3498394Y4047724D1*
X3508052Y4038066D1*
X3522652Y4033124D1*
X3532311D1*
X3546911Y4038066D1*
X3556681Y4047724D1*
X3561511Y4057495D1*
Y4072095D1*
X3845428Y4217386D2*
Y4164040D1*
X3806569Y4193128D1*
Y4178528D1*
X3801740Y4168869D1*
X3796911Y4164040D1*
X3782311Y4159098D1*
X3772652D1*
X3758052Y4164040D1*
X3748281Y4173698D1*
X3743452Y4188298D1*
Y4202898D1*
X3748281Y4217386D1*
X3753223Y4222215D1*
X3762881Y4227157D1*
X3811511Y4127726D2*
X3743452Y4098526D1*
X3811511Y4069438D1*
X3845428Y4028295D2*
Y3974949D1*
X3806569Y4004036D1*
Y3989436D1*
X3801740Y3979778D1*
X3796911Y3974949D1*
X3782311Y3970007D1*
X3772652D1*
X3758052Y3974949D1*
X3748281Y3984607D1*
X3743452Y3999207D1*
Y4013807D1*
X3748281Y4028295D1*
X3753223Y4033124D1*
X3762881Y4038066D1*
X3626131Y1391681D2*
Y1313852D1*
X3621302Y1299365D1*
X3616472Y1294423D1*
X3606702Y1289594D1*
X3592102D1*
X3582443Y1294423D1*
X3626131Y1377081D2*
X3616472Y1386740D1*
X3606702Y1391681D1*
X3592102D1*
X3582443Y1386740D1*
X3572672Y1377081D1*
X3567843Y1362481D1*
Y1352711D1*
X3572672Y1338223D1*
X3582443Y1328452D1*
X3592102Y1323623D1*
X3606702D1*
X3616472Y1328452D1*
X3626131Y1338223D1*
X3657503Y1396511D2*
Y1328452D1*
Y1377081D2*
X3672103Y1391681D1*
X3681874Y1396511D1*
X3696362D1*
X3706133Y1391681D1*
X3710962Y1377081D1*
Y1328452D1*
X3800622Y1430540D2*
Y1328452D1*
Y1381911D2*
X3790964Y1391681D1*
X3781193Y1396511D1*
X3766593D1*
X3756934Y1391681D1*
X3747164Y1381911D1*
X3742334Y1367311D1*
Y1357652D1*
X3747164Y1343052D1*
X3756934Y1333394D1*
X3766593Y1328452D1*
X3781193D1*
X3790964Y1333394D1*
X3800622Y1343052D1*
X2287843Y1396511D2*
X2317043Y1328452D1*
X2346131Y1396511D1*
X2377503Y1430540D2*
X2382333Y1425711D1*
X2387274Y1430540D1*
X2382333Y1435481D1*
X2377503Y1430540D1*
X2382333Y1396511D2*
Y1328452D1*
X2476934Y1430540D2*
Y1328452D1*
Y1381911D2*
X2467276Y1391681D1*
X2457505Y1396511D1*
X2442905D1*
X2433247Y1391681D1*
X2423476Y1381911D1*
X2418647Y1367311D1*
Y1357652D1*
X2423476Y1343052D1*
X2433247Y1333394D1*
X2442905Y1328452D1*
X2457505D1*
X2467276Y1333394D1*
X2476934Y1343052D1*
X2508307Y1311606D2*
X2600624D1*
X2656255Y1396511D2*
X2646596Y1391681D1*
X2636826Y1381911D1*
X2631996Y1367311D1*
Y1357652D1*
X2636826Y1343052D1*
X2646596Y1333394D1*
X2656255Y1328452D1*
X2670855D1*
X2680626Y1333394D1*
X2690284Y1343052D1*
X2695226Y1357652D1*
Y1367311D1*
X2690284Y1381911D1*
X2680626Y1391681D1*
X2670855Y1396511D1*
X2656255D1*
X2726598D2*
Y1347881D1*
X2731427Y1333394D1*
X2741198Y1328452D1*
X2755798D1*
X2765457Y1333394D1*
X2780057Y1347881D1*
Y1396511D2*
Y1328452D1*
X2826029Y1430540D2*
Y1347881D1*
X2830858Y1333394D1*
X2840629Y1328452D1*
X2850288D1*
X2811429Y1396511D2*
X2845458D1*
X4286131Y3496681D2*
Y3418852D1*
X4281302Y3404365D1*
X4276472Y3399423D1*
X4266702Y3394594D1*
X4252102D1*
X4242443Y3399423D1*
X4286131Y3482081D2*
X4276472Y3491740D1*
X4266702Y3496681D1*
X4252102D1*
X4242443Y3491740D1*
X4232672Y3482081D1*
X4227843Y3467481D1*
Y3457711D1*
X4232672Y3443223D1*
X4242443Y3433452D1*
X4252102Y3428623D1*
X4266702D1*
X4276472Y3433452D1*
X4286131Y3443223D1*
X4317503Y3501511D2*
Y3433452D1*
Y3482081D2*
X4332103Y3496681D1*
X4341874Y3501511D1*
X4356362D1*
X4366133Y3496681D1*
X4370962Y3482081D1*
Y3433452D1*
X4460622Y3535540D2*
Y3433452D1*
Y3486911D2*
X4450964Y3496681D1*
X4441193Y3501511D1*
X4426593D1*
X4416934Y3496681D1*
X4407164Y3486911D1*
X4402334Y3472311D1*
Y3462652D1*
X4407164Y3448052D1*
X4416934Y3438394D1*
X4426593Y3433452D1*
X4441193D1*
X4450964Y3438394D1*
X4460622Y3448052D1*
X4227843Y3261511D2*
X4257043Y3193452D1*
X4286131Y3261511D1*
X4317503Y3295540D2*
X4322333Y3290711D1*
X4327274Y3295540D1*
X4322333Y3300481D1*
X4317503Y3295540D1*
X4322333Y3261511D2*
Y3193452D1*
X4416934Y3295540D2*
Y3193452D1*
Y3246911D2*
X4407276Y3256681D1*
X4397505Y3261511D1*
X4382905D1*
X4373247Y3256681D1*
X4363476Y3246911D1*
X4358647Y3232311D1*
Y3222652D1*
X4363476Y3208052D1*
X4373247Y3198394D1*
X4382905Y3193452D1*
X4397505D1*
X4407276Y3198394D1*
X4416934Y3208052D1*
X4448307Y3176606D2*
X4540624D1*
X4571996Y3295540D2*
X4576826Y3290711D1*
X4581767Y3295540D1*
X4576826Y3300481D1*
X4571996Y3295540D1*
X4576826Y3261511D2*
Y3193452D1*
X4613140Y3261511D2*
Y3193452D1*
Y3242081D2*
X4627740Y3256681D1*
X4637510Y3261511D1*
X4651998D1*
X4661769Y3256681D1*
X4666598Y3242081D1*
Y3193452D1*
X3937843Y3026511D2*
Y2958452D1*
Y3007081D2*
X3952443Y3021681D1*
X3962214Y3026511D1*
X3976702D1*
X3986472Y3021681D1*
X3991302Y3007081D1*
Y2958452D1*
Y3007081D2*
X4005902Y3021681D1*
X4015672Y3026511D1*
X4030160D1*
X4039931Y3021681D1*
X4044872Y3007081D1*
Y2958452D1*
X4134533Y3026511D2*
Y2958452D1*
Y3011911D2*
X4124874Y3021681D1*
X4115103Y3026511D1*
X4100616D1*
X4090845Y3021681D1*
X4081186Y3011911D1*
X4076245Y2997311D1*
Y2987652D1*
X4081186Y2973052D1*
X4090845Y2963394D1*
X4100616Y2958452D1*
X4115103D1*
X4124874Y2963394D1*
X4134533Y2973052D1*
X4165905Y3026511D2*
X4195105Y2958452D1*
X4224193Y3026511D1*
X4255565Y2941606D2*
X4347882D1*
X4379255Y3060540D2*
X4384084Y3055711D1*
X4389026Y3060540D1*
X4384084Y3065481D1*
X4379255Y3060540D1*
X4384084Y3026511D2*
Y2958452D1*
X4420398Y3026511D2*
Y2958452D1*
Y3007081D2*
X4434998Y3021681D1*
X4444769Y3026511D1*
X4459257D1*
X4469027Y3021681D1*
X4473857Y3007081D1*
Y2958452D1*
X3862843Y2796511D2*
Y2728452D1*
Y2777081D2*
X3877443Y2791681D1*
X3887214Y2796511D1*
X3901702D1*
X3911472Y2791681D1*
X3916302Y2777081D1*
Y2728452D1*
Y2777081D2*
X3930902Y2791681D1*
X3940672Y2796511D1*
X3955160D1*
X3964931Y2791681D1*
X3969872Y2777081D1*
Y2728452D1*
X4059533Y2796511D2*
Y2728452D1*
Y2781911D2*
X4049874Y2791681D1*
X4040103Y2796511D1*
X4025616D1*
X4015845Y2791681D1*
X4006186Y2781911D1*
X4001245Y2767311D1*
Y2757652D1*
X4006186Y2743052D1*
X4015845Y2733394D1*
X4025616Y2728452D1*
X4040103D1*
X4049874Y2733394D1*
X4059533Y2743052D1*
X4090905Y2796511D2*
X4120105Y2728452D1*
X4149193Y2796511D1*
X4180565Y2711606D2*
X4272882D1*
X4328513Y2796511D2*
X4318855Y2791681D1*
X4309084Y2781911D1*
X4304255Y2767311D1*
Y2757652D1*
X4309084Y2743052D1*
X4318855Y2733394D1*
X4328513Y2728452D1*
X4343113D1*
X4352884Y2733394D1*
X4362543Y2743052D1*
X4367484Y2757652D1*
Y2767311D1*
X4362543Y2781911D1*
X4352884Y2791681D1*
X4343113Y2796511D1*
X4328513D1*
X4398857D2*
Y2747881D1*
X4403686Y2733394D1*
X4413457Y2728452D1*
X4428057D1*
X4437715Y2733394D1*
X4452315Y2747881D1*
Y2796511D2*
Y2728452D1*
X4498288Y2830540D2*
Y2747881D1*
X4503117Y2733394D1*
X4512888Y2728452D1*
X4522546D1*
X4483688Y2796511D2*
X4517717D1*
X4181531Y2493184D2*
Y2405696D1*
X4137843Y2449384D2*
X4225331D1*
X4314991Y2500428D2*
X4266474D1*
X4261645Y2456740D1*
X4266474Y2461569D1*
X4281074Y2466511D1*
X4295562D1*
X4310162Y2461569D1*
X4319933Y2451911D1*
X4324762Y2437311D1*
Y2427652D1*
X4319933Y2413052D1*
X4310162Y2403281D1*
X4295562Y2398452D1*
X4281074D1*
X4266474Y2403281D1*
X4261645Y2408223D1*
X4256703Y2417881D1*
X4356134Y2466511D2*
X4385334Y2398452D1*
X4414422Y2466511D1*
X1264336Y2118384D2*
D54*
X1252263Y2112347D1*
X1240050Y2100134D1*
X1234013Y2088061D1*
Y2063774D1*
X1240050Y2051561D1*
X1252263Y2039488D1*
X1264336Y2033311D1*
X1282586Y2027274D1*
X1313050D1*
X1331160Y2033311D1*
X1343373Y2039488D1*
X1355446Y2051561D1*
X1361623Y2063774D1*
Y2088061D1*
X1355446Y2100134D1*
X1343373Y2112347D1*
X1331160Y2118384D1*
X1361623Y2181886D2*
X1234154Y2242673D1*
Y2157599D1*
X1671402Y2740664D2*
X1665365Y2752737D1*
X1653152Y2764950D1*
X1641079Y2770987D1*
X1616792D1*
X1604579Y2764950D1*
X1592506Y2752737D1*
X1586329Y2740664D1*
X1580292Y2722414D1*
Y2691950D1*
X1586329Y2673840D1*
X1592506Y2661627D1*
X1604579Y2649554D1*
X1616792Y2643377D1*
X1641079D1*
X1653152Y2649554D1*
X1665365Y2661627D1*
X1671402Y2673840D1*
X1789654Y2728450D2*
X1783477Y2710200D1*
X1771404Y2697987D1*
X1753154Y2691950D1*
X1747118D1*
X1728868Y2697987D1*
X1716795Y2710200D1*
X1710618Y2728450D1*
Y2734487D1*
X1716795Y2752737D1*
X1728868Y2764810D1*
X1747118Y2770846D1*
X1753154D1*
X1771404Y2764810D1*
X1783477Y2752737D1*
X1789654Y2728450D1*
Y2697987D1*
X1783477Y2667664D1*
X1771404Y2649414D1*
X1753154Y2643377D1*
X1741081D1*
X1722831Y2649414D1*
X1716795Y2661627D1*
X1533544Y2555664D2*
X1527508Y2567737D1*
X1515294Y2579950D1*
X1503221Y2585987D1*
X1478935D1*
X1466721Y2579950D1*
X1454648Y2567737D1*
X1448471Y2555664D1*
X1442435Y2537414D1*
Y2506950D1*
X1448471Y2488840D1*
X1454648Y2476627D1*
X1466721Y2464554D1*
X1478935Y2458377D1*
X1503221D1*
X1515294Y2464554D1*
X1527508Y2476627D1*
X1533544Y2488840D1*
X1572760Y2561560D2*
X1584973Y2567737D1*
X1603223Y2585846D1*
Y2458377D1*
X1678939Y2585846D2*
X1660689Y2579810D1*
X1648476Y2561560D1*
X1642439Y2531237D1*
Y2512987D1*
X1648476Y2482664D1*
X1660689Y2464414D1*
X1678939Y2458377D1*
X1691012D1*
X1709262Y2464414D1*
X1721335Y2482664D1*
X1727512Y2512987D1*
Y2531237D1*
X1721335Y2561560D1*
X1709262Y2579810D1*
X1691012Y2585846D1*
X1678939D1*
X1721335Y2561560D2*
X1648476Y2482664D1*
X1600876Y2356600D2*
X1594839Y2368673D1*
X1582626Y2380887D1*
X1570553Y2386923D1*
X1546266D1*
X1534053Y2380887D1*
X1521980Y2368673D1*
X1515803Y2356600D1*
X1509766Y2338350D1*
Y2307887D1*
X1515803Y2289777D1*
X1521980Y2277564D1*
X1534053Y2265491D1*
X1546266Y2259314D1*
X1570553D1*
X1582626Y2265491D1*
X1594839Y2277564D1*
X1600876Y2289777D1*
X1640091Y2362496D2*
X1652305Y2368673D1*
X1670555Y2386783D1*
Y2259314D1*
X1709770Y2362496D2*
X1721984Y2368673D1*
X1740234Y2386783D1*
Y2259314D1*
X1968544Y3692737D2*
X1962508Y3704810D1*
X1950294Y3717023D1*
X1938221Y3723060D1*
X1913935D1*
X1901721Y3717023D1*
X1889648Y3704810D1*
X1883471Y3692737D1*
X1877435Y3674487D1*
Y3644023D1*
X1883471Y3625914D1*
X1889648Y3613700D1*
X1901721Y3601627D1*
X1913935Y3595450D1*
X1938221D1*
X1950294Y3601627D1*
X1962508Y3613700D1*
X1968544Y3625914D1*
X2007760Y3698633D2*
X2019973Y3704810D1*
X2038223Y3722920D1*
Y3595450D1*
X2150299Y3722920D2*
X2089652D1*
X2083616Y3668310D1*
X2089652Y3674346D1*
X2107902Y3680523D1*
X2126012D1*
X2144262Y3674346D1*
X2156476Y3662273D1*
X2162512Y3644023D1*
Y3631950D1*
X2156476Y3613700D1*
X2144262Y3601487D1*
X2126012Y3595450D1*
X2107902D1*
X2089652Y3601487D1*
X2083616Y3607664D1*
X2077439Y3619737D1*
X2061633Y3105664D2*
X2055596Y3117737D1*
X2043383Y3129950D1*
X2031310Y3135987D1*
X2007023D1*
X1994810Y3129950D1*
X1982736Y3117737D1*
X1976560Y3105664D1*
X1970523Y3087414D1*
Y3056950D1*
X1976560Y3038840D1*
X1982736Y3026627D1*
X1994810Y3014554D1*
X2007023Y3008377D1*
X2031310D1*
X2043383Y3014554D1*
X2055596Y3026627D1*
X2061633Y3038840D1*
X2100848Y3111560D2*
X2113062Y3117737D1*
X2131312Y3135846D1*
Y3008377D1*
X2243387Y3117737D2*
X2237351Y3129810D1*
X2219101Y3135846D1*
X2207027D1*
X2188777Y3129810D1*
X2176564Y3111560D1*
X2170527Y3081237D1*
Y3050914D1*
X2176564Y3026627D1*
X2188777Y3014414D1*
X2207027Y3008377D1*
X2213064D1*
X2231174Y3014414D1*
X2243387Y3026627D1*
X2249424Y3044877D1*
Y3050914D1*
X2243387Y3069164D1*
X2231174Y3081237D1*
X2213064Y3087273D1*
X2207027D1*
X2188777Y3081237D1*
X2176564Y3069164D1*
X2170527Y3050914D1*
X4588571Y1975664D2*
X4582534Y1987737D1*
X4570321Y1999950D1*
X4558248Y2005987D1*
X4533961D1*
X4521748Y1999950D1*
X4509675Y1987737D1*
X4503498Y1975664D1*
X4497461Y1957414D1*
Y1926950D1*
X4503498Y1908840D1*
X4509675Y1896627D1*
X4521748Y1884554D1*
X4533961Y1878377D1*
X4558248D1*
X4570321Y1884554D1*
X4582534Y1896627D1*
X4588571Y1908840D1*
X4627787Y1981560D2*
X4640000Y1987737D1*
X4658250Y2005846D1*
Y1878377D1*
X4721752D2*
X4782539Y2005846D1*
X4697466D1*
X1156134Y2531359D2*
X1168207Y2537395D1*
X1180420Y2549609D1*
X1186457Y2561682D1*
Y2585969D1*
X1180420Y2598182D1*
X1168207Y2610255D1*
X1156134Y2616432D1*
X1137884Y2622469D1*
X1107420D1*
X1089310Y2616432D1*
X1077097Y2610255D1*
X1065024Y2598182D1*
X1058847Y2585969D1*
Y2561682D1*
X1065024Y2549609D1*
X1077097Y2537395D1*
X1089310Y2531359D1*
X1162030Y2492143D2*
X1168207Y2479930D1*
X1186316Y2461680D1*
X1058847D1*
X1186316Y2392141D2*
X1180280Y2410251D1*
X1168207Y2416428D1*
X1155993D1*
X1143920Y2410251D1*
X1137743Y2398178D1*
X1131707Y2373891D1*
X1125670Y2355641D1*
X1113457Y2343568D1*
X1101384Y2337531D1*
X1083134D1*
X1071060Y2343568D1*
X1064884Y2349605D1*
X1058847Y2367855D1*
Y2392141D1*
X1064884Y2410251D1*
X1071060Y2416428D1*
X1083134Y2422464D1*
X1101384D1*
X1113457Y2416428D1*
X1125670Y2404214D1*
X1131707Y2386105D1*
X1137743Y2361818D1*
X1143920Y2349605D1*
X1155993Y2343568D1*
X1168207D1*
X1180280Y2349605D1*
X1186316Y2367855D1*
Y2392141D1*
X1073866Y3366589D2*
X1061793Y3360553D1*
X1049580Y3348339D1*
X1043543Y3336266D1*
Y3311980D1*
X1049580Y3299766D1*
X1061793Y3287693D1*
X1073866Y3281516D1*
X1092116Y3275480D1*
X1122580D1*
X1140690Y3281516D1*
X1152903Y3287693D1*
X1164976Y3299766D1*
X1171153Y3311980D1*
Y3336266D1*
X1164976Y3348339D1*
X1152903Y3360553D1*
X1140690Y3366589D1*
X1067970Y3405805D2*
X1061793Y3418018D1*
X1043684Y3436268D1*
X1171153D1*
X1086080Y3554520D2*
X1104330Y3548344D1*
X1116543Y3536270D1*
X1122580Y3518020D1*
Y3511984D1*
X1116543Y3493734D1*
X1104330Y3481661D1*
X1086080Y3475484D1*
X1080043D1*
X1061793Y3481661D1*
X1049720Y3493734D1*
X1043684Y3511984D1*
Y3518020D1*
X1049720Y3536270D1*
X1061793Y3548344D1*
X1086080Y3554520D1*
X1116543D1*
X1146866Y3548344D1*
X1165116Y3536270D1*
X1171153Y3518020D1*
Y3505947D1*
X1165116Y3487697D1*
X1152903Y3481661D1*
X3512624Y2561923D2*
Y2434314D1*
X3555160D1*
X3573410Y2440491D1*
X3585624Y2452564D1*
X3591660Y2464777D1*
X3597697Y2482887D1*
Y2513350D1*
X3591660Y2531600D1*
X3585624Y2543673D1*
X3573410Y2555887D1*
X3555160Y2561923D1*
X3512624D1*
X3636913Y2537496D2*
X3649126Y2543673D1*
X3667376Y2561783D1*
Y2434314D1*
X2492624Y3780200D2*
X2547234D1*
X2565484Y3786377D1*
X2571660Y3792414D1*
X2577697Y3804487D1*
Y3816700D1*
X2571660Y3828773D1*
X2565484Y3834950D1*
X2547234Y3840987D1*
X2492624D1*
Y3713377D1*
X2535160Y3780200D2*
X2577697Y3713377D1*
X2616913Y3816560D2*
X2629126Y3822737D1*
X2647376Y3840846D1*
Y3713377D1*
X2389800Y2015319D2*
Y2069929D1*
X2383623Y2088179D1*
X2377586Y2094356D1*
X2365513Y2100392D1*
X2353300D1*
X2341227Y2094356D1*
X2335050Y2088179D1*
X2329013Y2069929D1*
Y2015319D1*
X2456623D1*
X2389800Y2057856D2*
X2456623Y2100392D1*
X2329154Y2151821D2*
Y2218504D1*
X2377727Y2182144D1*
Y2200394D1*
X2383763Y2212467D1*
X2389800Y2218504D1*
X2408050Y2224681D1*
X2420123D1*
X2438373Y2218504D1*
X2450586Y2206431D1*
X2456623Y2188181D1*
Y2169931D1*
X2450586Y2151821D1*
X2444410Y2145785D1*
X2432336Y2139608D1*
X2865670Y1999681D2*
Y1945071D1*
X2871847Y1926821D1*
X2877884Y1920644D1*
X2889957Y1914608D1*
X2902170D1*
X2914243Y1920644D1*
X2920420Y1926821D1*
X2926457Y1945071D1*
Y1999681D1*
X2798847D1*
X2865670Y1957144D2*
X2798847Y1914608D1*
X2926316Y1802533D2*
Y1863179D1*
X2871707Y1869215D1*
X2877743Y1863179D1*
X2883920Y1844929D1*
Y1826819D1*
X2877743Y1808569D1*
X2865670Y1796356D1*
X2847420Y1790319D1*
X2835347D1*
X2817097Y1796356D1*
X2804884Y1808569D1*
X2798847Y1826819D1*
Y1844929D1*
X2804884Y1863179D1*
X2811060Y1869215D1*
X2823134Y1875392D1*
X3464800Y2179804D2*
Y2234414D1*
X3458623Y2252664D1*
X3452586Y2258841D1*
X3440513Y2264877D1*
X3428300D1*
X3416227Y2258841D1*
X3410050Y2252664D1*
X3404013Y2234414D1*
Y2179804D1*
X3531623D1*
X3464800Y2222341D2*
X3531623Y2264877D1*
X3422263Y2376953D2*
X3410190Y2370916D1*
X3404154Y2352666D1*
Y2340593D1*
X3410190Y2322343D1*
X3428440Y2310130D1*
X3458763Y2304093D1*
X3489086D1*
X3513373Y2310130D1*
X3525586Y2322343D1*
X3531623Y2340593D1*
Y2346630D1*
X3525586Y2364739D1*
X3513373Y2376953D1*
X3495123Y2382989D1*
X3489086D1*
X3470836Y2376953D1*
X3458763Y2364739D1*
X3452727Y2346630D1*
Y2340593D1*
X3458763Y2322343D1*
X3470836Y2310130D1*
X3489086Y2304093D1*
X3194330Y2190319D2*
Y2244929D1*
X3188153Y2263179D1*
X3182116Y2269356D1*
X3170043Y2275392D1*
X3157830D1*
X3145757Y2269356D1*
X3139580Y2263179D1*
X3133543Y2244929D1*
Y2190319D1*
X3261153D1*
X3194330Y2232856D2*
X3261153Y2275392D1*
Y2338894D2*
X3133684Y2399681D1*
Y2314608D1*
X3758337Y2280200D2*
X3812947D1*
X3831197Y2286377D1*
X3837374Y2292414D1*
X3843410Y2304487D1*
Y2316700D1*
X3837374Y2328773D1*
X3831197Y2334950D1*
X3812947Y2340987D1*
X3758337D1*
Y2213377D1*
X3800874Y2280200D2*
X3843410Y2213377D1*
X3961663Y2298450D2*
X3955486Y2280200D1*
X3943413Y2267987D1*
X3925163Y2261950D1*
X3919126D1*
X3900876Y2267987D1*
X3888803Y2280200D1*
X3882626Y2298450D1*
Y2304487D1*
X3888803Y2322737D1*
X3900876Y2334810D1*
X3919126Y2340846D1*
X3925163D1*
X3943413Y2334810D1*
X3955486Y2322737D1*
X3961663Y2298450D1*
Y2267987D1*
X3955486Y2237664D1*
X3943413Y2219414D1*
X3925163Y2213377D1*
X3913090D1*
X3894840Y2219414D1*
X3888803Y2231627D1*
X3406987Y2972376D2*
X3315877D1*
X3297627Y2966340D1*
X3285554Y2954126D1*
X3279377Y2935876D1*
Y2923803D1*
X3285554Y2905553D1*
X3297627Y2893340D1*
X3315877Y2887303D1*
X3406987D1*
X3382560Y2848087D2*
X3388737Y2835874D1*
X3406846Y2817624D1*
X3279377D1*
X4131987Y1905199D2*
X4040877D1*
X4022627Y1899163D1*
X4010554Y1886949D1*
X4004377Y1868699D1*
Y1856626D1*
X4010554Y1838376D1*
X4022627Y1826163D1*
X4040877Y1820126D1*
X4131987D1*
X4004377Y1720124D2*
X4131846D1*
X4046914Y1780910D1*
Y1689801D1*
M02*
