M48
METRIC,0000.00
T01C0.3
T02C0.813
T03C1.28
T04C3.2
%
T01
X+003245Y+003185
X+003360Y+003110
X+003360Y+003055
X+003440Y+003060
X+003410Y+003135
X+003480Y+003140
X+003545Y+003135
X+003540Y+003080
X+003820Y+003085
X+003840Y+003140
X+003845Y+003210
X+003820Y+003260
X+003785Y+003300
X+003650Y+003350
X+003570Y+003360
X+003480Y+003520
X+003480Y+003585
X+003475Y+003650
X+003480Y+003730
X+003530Y+003770
X+003600Y+003775
X+003665Y+003775
X+003830Y+003990
X+003815Y+004065
X+003815Y+004140
X+003825Y+004210
X+003950Y+004200
X+003925Y+003990
X+003825Y+003025
X+003835Y+002745
X+003835Y+002685
X+003865Y+002625
X+003940Y+002610
X+004010Y+002615
X+004135Y+002725
X+003585Y+002690
X+003580Y+002745
X+003555Y+002635
X+003550Y+002525
X+003500Y+002480
X+003525Y+002410
X+003390Y+002345
X+003320Y+002385
X+003320Y+002555
X+003055Y+002480
X+002950Y+002590
X+002550Y+002330
X+002275Y+002345
X+002275Y+002415
X+002215Y+002465
X+002220Y+002545
X+002185Y+002630
X+002185Y+002795
X+002430Y+002925
X+002280Y+003220
X+002415Y+003415
X+002475Y+003715
X+002785Y+003525
X+002830Y+003480
X+002835Y+003420
X+001880Y+003570
X+001765Y+003500
X+001760Y+003380
X+001820Y+003240
X+001910Y+003125
X+001825Y+002715
X+001840Y+002625
X+001820Y+002535
X+001780Y+002460
X+001770Y+002365
X+001765Y+002295
X+001760Y+002230
X+001975Y+002210
X+002280Y+002275
X+002255Y+001815
X+002165Y+001815
X+002345Y+001815
X+002425Y+001815
X+002505Y+001815
X+002500Y+001600
X+002420Y+001590
X+002340Y+001600
X+002265Y+001600
X+002180Y+001605
X+002100Y+001605
X+002030Y+001585
X+001940Y+001575
X+001855Y+001575
X+001740Y+001570
X+001750Y+001635
X+001645Y+001575
X+001565Y+001585
X+001505Y+001580
X+001505Y+001640
X+001515Y+001695
X+001380Y+001720
X+001320Y+001720
X+001265Y+001695
X+001210Y+001685
X+001140Y+001695
X+001380Y+001915
X+001335Y+002000
X+001480Y+001905
X+001565Y+001935
X+001580Y+002020
X+001115Y+002940
X+003205Y+001825
X+003700Y+001840
X+003995Y+001580
X+004190Y+001710
X+004580Y+002010
X+004655Y+002010
X+004715Y+002085
T02
X+001455Y+002694
X+001455Y+003176
T03
X+003775Y+004385
X+003521Y+004385
X+003267Y+004385
X+003013Y+004385
X+002759Y+004385
X+004625Y+003466
X+004625Y+003212
X+004625Y+002958
X+004625Y+002704
X+004625Y+002450
X+003320Y+001385
X+003066Y+001385
T04
X+001370Y+001270
X+004420Y+001270
X+004420Y+004320
X+001370Y+004320
T00
M30
