G04 DipTrace 4.3.0.3*
G04 G3L.gbr*
%MOMM*%
G04 #@! TF.FileFunction,Copper,L3,Inr*
G04 #@! TF.Part,Single*
G04 #@! TA.AperFunction,ViaPad*
%ADD16C,0.45*%
G04 #@! TA.AperFunction,CopperBalancing*
%ADD18C,0.5*%
G04 #@! TA.AperFunction,Conductor*
%ADD19C,0.35*%
G04 #@! TA.AperFunction,CopperBalancing*
%ADD23C,0.33*%
G04 #@! TA.AperFunction,ComponentPad*
%ADD25R,1.92X1.92*%
%ADD26C,1.92*%
%ADD31C,1.2192*%
G04 #@! TA.AperFunction,ViaPad*
%ADD32C,0.6*%
%FSLAX35Y35*%
G04*
G71*
G90*
G75*
G01*
G04 Inner2*
%LPD*%
G36*
X3736453Y1403297D2*
X3774007Y1425490D1*
X3783507Y1424100D1*
X3783510Y1309803D1*
X3774010Y1311193D1*
X3711703Y1378547D1*
X3736453Y1403297D1*
G37*
G36*
X3713683Y3363433D2*
X3730000Y3384700D1*
X3732123Y3386820D1*
X3761820Y3357123D1*
X3759700Y3355000D1*
X3738433Y3338683D1*
X3713683Y3363433D1*
G37*
G36*
X3482500Y2479640D2*
X3470697Y2491480D1*
X3469160Y2494057D1*
X3506793Y2512703D1*
X3508330Y2510127D1*
X3517500Y2479640D1*
X3482500D1*
G37*
G36*
X3517500Y2560360D2*
X3508330Y2529873D1*
X3506793Y2527297D1*
X3469160Y2545943D1*
X3470697Y2548520D1*
X3482500Y2560360D1*
X3517500D1*
G37*
X3870010Y1360000D2*
D19*
X3755000D1*
X3575000Y1540000D1*
Y2155000D1*
X3500000Y2230000D1*
Y3125000D1*
X3760000Y3385000D1*
D16*
X2705000Y2840000D3*
X2905000Y2845000D3*
D32*
X2260000Y2630000D3*
X2100000Y2620000D3*
X1900000Y2595000D3*
X2360000Y2610000D3*
X2175000Y2600000D3*
X2010000Y2595000D3*
X1790000Y1655000D3*
X1755000Y1730000D3*
X1685000Y1735000D3*
X1605000Y1755000D3*
X1915000Y1430000D3*
X2015000Y1425000D3*
X1620000Y1695000D3*
X1695000Y1655000D3*
X2135000Y1415000D3*
X2140000Y1625000D3*
X3255000Y1395000D3*
X3180000Y1425000D3*
X3480000Y2520000D3*
X1840000Y1485000D3*
X2330000Y1615000D3*
X2575000Y1470000D3*
X3760000Y3385000D3*
X3500000Y3375000D3*
X1800000Y3080000D3*
X1900000Y2865000D3*
X2095000Y2855000D3*
X2255000Y2845000D3*
X3630000Y2360000D3*
X3360000Y2260000D3*
X3250000Y1160000D3*
X3035000Y1105000D3*
D18*
X2990000Y1715000D3*
D32*
X2095000Y1955000D3*
X1940000Y1850000D3*
X1665000Y1900000D3*
X1415000Y1995000D3*
X2020000Y1770000D3*
X2450000Y1810000D3*
X2875000Y2150000D3*
X2720000Y2160000D3*
X2715000Y2050000D3*
X2875000Y2045000D3*
X3285000Y1940000D3*
X3260000Y2845000D3*
X2910000Y3075000D3*
X2720000D3*
X2715000Y2955000D3*
X2905000D3*
X2235000Y1925000D3*
X1070023Y3385333D2*
D18*
X3980016D1*
X1070023Y3335667D2*
X3980016D1*
X1070023Y3286000D2*
X2493838D1*
X2643564D2*
X2976409D1*
X3126182D2*
X3980016D1*
X1070023Y3236333D2*
X2449906D1*
X2687497D2*
X2932523D1*
X3170068D2*
X3980016D1*
X1070023Y3186667D2*
X2436917D1*
X2700485D2*
X2919534D1*
X3183102D2*
X3980016D1*
X1070023Y3137000D2*
X1717731D1*
X1882269D2*
X2444255D1*
X2798284D2*
X2831715D1*
X3175765D2*
X3980016D1*
X1070023Y3087333D2*
X1699274D1*
X1900726D2*
X2476930D1*
X3143089D2*
X3980016D1*
X1070023Y3037667D2*
X1708844D1*
X1891156D2*
X2626546D1*
X3003454D2*
X3980016D1*
X1070023Y2988000D2*
X1767588D1*
X1832412D2*
X2619847D1*
X3000173D2*
X3980016D1*
X1070023Y2938333D2*
X1833031D1*
X1966943D2*
X2042347D1*
X2147640D2*
X2227510D1*
X2282490D2*
X2615472D1*
X3004548D2*
X3232529D1*
X3287464D2*
X3980016D1*
X1070023Y2888667D2*
X1801950D1*
X2345472D2*
X2626090D1*
X2789398D2*
X2823011D1*
X2986956D2*
X3169502D1*
X3350492D2*
X3980016D1*
X1070023Y2839000D2*
X1802588D1*
X2355817D2*
X2611507D1*
X2998304D2*
X3159202D1*
X3360791D2*
X3980016D1*
X1070023Y2789333D2*
X1835902D1*
X1964072D2*
X2019971D1*
X2338226D2*
X2627458D1*
X2782562D2*
X2831214D1*
X2978799D2*
X3176794D1*
X3343200D2*
X3980016D1*
X1070023Y2739667D2*
X3980016D1*
X1070023Y2690000D2*
X1881201D1*
X1918818D2*
X1991169D1*
X2418070D2*
X3980016D1*
X1070023Y2640333D2*
X1810381D1*
X2456077D2*
X3980016D1*
X1070023Y2590667D2*
X1799079D1*
X2459040D2*
X3980016D1*
X1070023Y2541000D2*
X1815622D1*
X2431742D2*
X3980016D1*
X1070023Y2491333D2*
X3751240D1*
X1287132Y2441667D2*
X3574554D1*
X3685452D2*
X3716878D1*
X1330882Y2392000D2*
X3534495D1*
X1349157Y2342333D2*
X3305628D1*
X3414385D2*
X3530622D1*
X1350843Y2292667D2*
X3264749D1*
X3455264D2*
X3556553D1*
X1336579Y2243000D2*
X2666742D1*
X2773219D2*
X2846208D1*
X2903831D2*
X3260511D1*
X3459502D2*
X3757256D1*
X1300303Y2193333D2*
X2624951D1*
X2965674D2*
X3285941D1*
X3434072D2*
X3719567D1*
X1327510Y2143667D2*
X2620394D1*
X2975791D2*
X3704437D1*
X1347972Y2094000D2*
X2624678D1*
X2962575D2*
X3705439D1*
X1502373Y2044333D2*
X2054834D1*
X2135153D2*
X2614150D1*
X2976019D2*
X3722848D1*
X1515999Y1994667D2*
X1644040D1*
X1685941D2*
X2002562D1*
X2306051D2*
X2631559D1*
X2961755D2*
X3201084D1*
X3368903D2*
X3764001D1*
X1501963Y1945000D2*
X1575179D1*
X1754801D2*
X1921169D1*
X1958831D2*
X1994541D1*
X2333896D2*
X3184131D1*
X3385856D2*
X3722484D1*
X1323818Y1895333D2*
X1564105D1*
X1765876D2*
X1850394D1*
X2331299D2*
X2401006D1*
X2498962D2*
X3195023D1*
X3374964D2*
X3705303D1*
X1346559Y1845667D2*
X1580876D1*
X1749150D2*
X1839092D1*
X2084066D2*
X2175921D1*
X2294066D2*
X2355889D1*
X2544124D2*
X3262197D1*
X3307790D2*
X3704528D1*
X1351800Y1796000D2*
X1855635D1*
X2117425D2*
X2350010D1*
X2549958D2*
X2943506D1*
X3036494D2*
X3719886D1*
X1341409Y1746333D2*
X1921943D1*
X2118018D2*
X2373161D1*
X2526852D2*
X2899574D1*
X3080426D2*
X3758031D1*
X1351982Y1696667D2*
X1953024D1*
X2086937D2*
X2895882D1*
X3084118D2*
X3725674D1*
X1351982Y1647000D2*
X2924548D1*
X3055452D2*
X3706396D1*
X1351982Y1597333D2*
X3703844D1*
X1351982Y1547667D2*
X3717197D1*
X1351982Y1498000D2*
X3703024D1*
X1351982Y1448333D2*
X3703024D1*
X1351982Y1398667D2*
X3703024D1*
X1070023Y1349000D2*
X3703024D1*
X1070023Y1299333D2*
X3703024D1*
X1070023Y1249667D2*
X3210700D1*
X3289287D2*
X3703024D1*
X1070023Y1200000D2*
X3016195D1*
X3053812D2*
X3157744D1*
X3342288D2*
X3703024D1*
X1070023Y1150333D2*
X2945374D1*
X3350492D2*
X3980016D1*
X1070478Y1100667D2*
X2934118D1*
X3135889D2*
X3169548D1*
X3330485D2*
X3979515D1*
X3715787Y1522000D2*
X3736667D1*
X3733614Y1526585D1*
X3722561Y1546885D1*
X3714511Y1568551D1*
X3709625Y1591143D1*
X3708005Y1614200D1*
X3709682Y1637253D1*
X3714623Y1659833D1*
X3722727Y1681479D1*
X3733830Y1701752D1*
X3747704Y1720239D1*
X3764068Y1736563D1*
X3769693Y1740763D1*
X3763762Y1745700D1*
X3747438Y1762064D1*
X3733609Y1780585D1*
X3722557Y1800885D1*
X3714506Y1822551D1*
X3709621Y1845143D1*
X3708000Y1868200D1*
X3709677Y1891253D1*
X3714619Y1913833D1*
X3722723Y1935479D1*
X3733825Y1955752D1*
X3747699Y1974239D1*
X3764064Y1990563D1*
X3769689Y1994763D1*
X3763757Y1999700D1*
X3747433Y2016064D1*
X3733604Y2034585D1*
X3722552Y2054885D1*
X3714501Y2076551D1*
X3709616Y2099143D1*
X3707995Y2122200D1*
X3709673Y2145253D1*
X3714614Y2167833D1*
X3722718Y2189479D1*
X3733820Y2209752D1*
X3747695Y2228239D1*
X3764059Y2244563D1*
X3769684Y2248763D1*
X3763752Y2253700D1*
X3747428Y2270064D1*
X3733600Y2288585D1*
X3722547Y2308885D1*
X3717901Y2321390D1*
X3714941Y2315268D1*
X3701768Y2296240D1*
X3684424Y2280918D1*
X3663917Y2270191D1*
X3641439Y2264684D1*
X3618296Y2264716D1*
X3595833Y2270286D1*
X3575356Y2281070D1*
X3558054Y2296440D1*
X3544934Y2315505D1*
X3536758Y2337156D1*
X3534000Y2360134D1*
X3536822Y2383104D1*
X3545059Y2404732D1*
X3558232Y2423760D1*
X3575576Y2439082D1*
X3596083Y2449809D1*
X3618561Y2455316D1*
X3641704Y2455284D1*
X3664167Y2449714D1*
X3684644Y2438930D1*
X3701946Y2423560D1*
X3711517Y2409652D1*
X3712411Y2413587D1*
X3719365Y2435631D1*
X3729384Y2456460D1*
X3742266Y2475652D1*
X3757748Y2492814D1*
X3775514Y2507599D1*
X3795205Y2519705D1*
X3816417Y2528886D1*
X3838720Y2534954D1*
X3861660Y2537786D1*
X3884769Y2537325D1*
X3907578Y2533580D1*
X3929621Y2526627D1*
X3950450Y2516607D1*
X3969642Y2503725D1*
X3985011Y2489861D1*
X3985000Y3395744D1*
X3983267Y3408904D1*
X3979826Y3417217D1*
X3974354Y3424349D1*
X3967222Y3429821D1*
X3958917Y3433262D1*
X3945750Y3434995D1*
X1104276Y3435000D1*
X1091096Y3433266D1*
X1082783Y3429825D1*
X1075650Y3424353D1*
X1070178Y3417221D1*
X1066738Y3408915D1*
X1065004Y3395746D1*
X1065002Y2420825D1*
X1079064Y2434562D1*
X1097584Y2448391D1*
X1117885Y2459443D1*
X1139551Y2467494D1*
X1162143Y2472379D1*
X1185200Y2474000D1*
X1208253Y2472323D1*
X1230832Y2467381D1*
X1252479Y2459277D1*
X1272752Y2448175D1*
X1291238Y2434301D1*
X1307562Y2417936D1*
X1321391Y2399416D1*
X1332443Y2379115D1*
X1340494Y2357449D1*
X1345379Y2334857D1*
X1347000Y2312000D1*
X1345323Y2288747D1*
X1340381Y2266168D1*
X1332277Y2244521D1*
X1321175Y2224248D1*
X1307301Y2205762D1*
X1290936Y2189438D1*
X1285275Y2185211D1*
X1294864Y2177054D1*
X1310689Y2160207D1*
X1323955Y2141280D1*
X1334393Y2120657D1*
X1341789Y2098758D1*
X1345994Y2076030D1*
X1346747Y2062525D1*
X1360576Y2074082D1*
X1381083Y2084809D1*
X1403561Y2090316D1*
X1426704Y2090284D1*
X1449167Y2084714D1*
X1469644Y2073930D1*
X1486946Y2058560D1*
X1500066Y2039495D1*
X1508242Y2017844D1*
X1511000Y1995000D1*
X1508178Y1971896D1*
X1499941Y1950268D1*
X1486768Y1931240D1*
X1469424Y1915918D1*
X1448917Y1905191D1*
X1426439Y1899684D1*
X1403296Y1899716D1*
X1380833Y1905286D1*
X1360356Y1916070D1*
X1343054Y1931440D1*
X1329934Y1950505D1*
X1321989Y1971543D1*
X1318478Y1966198D1*
X1304054Y1948136D1*
X1287207Y1932311D1*
X1285451Y1931081D1*
X1291238Y1926301D1*
X1307562Y1909936D1*
X1321391Y1891416D1*
X1332443Y1871115D1*
X1340494Y1849449D1*
X1345379Y1826857D1*
X1347000Y1804000D1*
X1345323Y1780747D1*
X1340381Y1758168D1*
X1332277Y1736521D1*
X1321175Y1716248D1*
X1317991Y1712006D1*
X1347000Y1712000D1*
Y1388000D1*
X1065018D1*
X1065000Y1104256D1*
X1066736Y1091079D1*
X1070176Y1082782D1*
X1075649Y1075648D1*
X1082783Y1070174D1*
X1091088Y1066733D1*
X1104251Y1065001D1*
X2947738Y1065000D1*
X2941758Y1082156D1*
X2939000Y1105134D1*
X2941822Y1128104D1*
X2950059Y1149732D1*
X2963232Y1168760D1*
X2980576Y1184082D1*
X3001083Y1194809D1*
X3023561Y1200316D1*
X3046704Y1200284D1*
X3069167Y1194714D1*
X3089644Y1183930D1*
X3106946Y1168560D1*
X3120066Y1149495D1*
X3128242Y1127844D1*
X3131000Y1105000D1*
X3128178Y1081896D1*
X3121751Y1065020D1*
X3236169Y1065000D1*
X3233416Y1065443D1*
X3228840Y1066361D1*
X3224315Y1067500D1*
X3219851Y1068857D1*
X3215458Y1070430D1*
X3211146Y1072214D1*
X3206926Y1074206D1*
X3202808Y1076400D1*
X3184173Y1090123D1*
X3169363Y1107907D1*
X3159240Y1128718D1*
X3154391Y1151348D1*
X3155098Y1174480D1*
X3161321Y1196771D1*
X3172698Y1216924D1*
X3188567Y1233770D1*
X3208007Y1246328D1*
X3229886Y1253869D1*
X3252935Y1255955D1*
X3275814Y1252464D1*
X3297192Y1243600D1*
X3315827Y1229877D1*
X3330637Y1212093D1*
X3340760Y1191282D1*
X3345609Y1168652D1*
X3346000Y1160000D1*
X3343178Y1136896D1*
X3334941Y1115268D1*
X3321768Y1096240D1*
X3304424Y1080918D1*
X3283917Y1070191D1*
X3279513Y1068649D1*
X3275039Y1067323D1*
X3270506Y1066216D1*
X3265925Y1065330D1*
X3263620Y1065000D1*
X3945724D1*
X3958920Y1066736D1*
X3967217Y1070175D1*
X3974351Y1075648D1*
X3979825Y1082781D1*
X3983267Y1091088D1*
X3985002Y1104255D1*
X3985003Y1198019D1*
X3845343Y1198000D1*
X3708009D1*
Y1522000D1*
X3715787D1*
X2790442Y2816936D2*
X2781561Y2795608D1*
X2767463Y2777305D1*
X2749108Y2763275D1*
X2727747Y2754473D1*
X2704836Y2751500D1*
X2681936Y2754558D1*
X2660608Y2763439D1*
X2642305Y2777537D1*
X2628275Y2795892D1*
X2619473Y2817253D1*
X2616500Y2840164D1*
X2619558Y2863064D1*
X2628439Y2884392D1*
X2638338Y2897243D1*
X2629934Y2910505D1*
X2621758Y2932156D1*
X2619000Y2955134D1*
X2621822Y2978104D1*
X2630059Y2999732D1*
X2642730Y3018035D1*
X2634934Y3030505D1*
X2626758Y3052156D1*
X2625069Y3066225D1*
X2603568Y3057922D1*
X2580543Y3053594D1*
X2557114Y3053570D1*
X2534080Y3057851D1*
X2512224Y3066293D1*
X2492292Y3078606D1*
X2474962Y3094372D1*
X2460824Y3113055D1*
X2450360Y3134017D1*
X2443925Y3156545D1*
X2441740Y3179871D1*
X2443878Y3203202D1*
X2450267Y3225743D1*
X2460689Y3246726D1*
X2474789Y3265437D1*
X2492087Y3281239D1*
X2511994Y3293592D1*
X2533832Y3302078D1*
X2556857Y3306406D1*
X2580286Y3306430D1*
X2603320Y3302149D1*
X2625176Y3293707D1*
X2645108Y3281394D1*
X2662438Y3265628D1*
X2676576Y3246945D1*
X2687040Y3225983D1*
X2693475Y3203455D1*
X2695660Y3180000D1*
X2694514Y3167561D1*
X2708561Y3170316D1*
X2731704Y3170284D1*
X2754167Y3164714D1*
X2774644Y3153930D1*
X2791946Y3138560D1*
X2805066Y3119495D1*
X2813242Y3097844D1*
X2814242Y3093286D1*
X2814999Y3088807D1*
X2815861Y3093812D1*
X2816887Y3098364D1*
X2818132Y3102861D1*
X2819594Y3107292D1*
X2821270Y3111647D1*
X2832619Y3131817D1*
X2848464Y3148684D1*
X2867886Y3161270D1*
X2889756Y3168841D1*
X2912802Y3170959D1*
X2924802Y3169145D1*
X2924340Y3179871D1*
X2926478Y3203202D1*
X2932867Y3225743D1*
X2943289Y3246726D1*
X2957389Y3265437D1*
X2974687Y3281239D1*
X2994594Y3293592D1*
X3016432Y3302078D1*
X3039457Y3306406D1*
X3062886Y3306430D1*
X3085920Y3302149D1*
X3107776Y3293707D1*
X3127708Y3281394D1*
X3145038Y3265628D1*
X3159176Y3246945D1*
X3169640Y3225983D1*
X3176075Y3203455D1*
X3178260Y3180000D1*
X3176122Y3156798D1*
X3169733Y3134257D1*
X3159311Y3113274D1*
X3145211Y3094563D1*
X3127913Y3078761D1*
X3108006Y3066408D1*
X3086168Y3057922D1*
X3063143Y3053594D1*
X3039714Y3053570D1*
X3016680Y3057851D1*
X3005176Y3062295D1*
X3003178Y3051896D1*
X2994941Y3030268D1*
X2982270Y3011965D1*
X2985564Y3007205D1*
X2995717Y2986408D1*
X3000597Y2963786D1*
X3001000Y2955000D1*
X2998178Y2931896D1*
X2989941Y2910268D1*
X2978685Y2894009D1*
X2981725Y2889108D1*
X2990527Y2867747D1*
X2993500Y2845000D1*
X2990442Y2821936D1*
X2981561Y2800608D1*
X2967463Y2782305D1*
X2949108Y2768275D1*
X2927747Y2759473D1*
X2904836Y2756500D1*
X2881936Y2759558D1*
X2860608Y2768439D1*
X2842305Y2782537D1*
X2828275Y2800892D1*
X2819473Y2822253D1*
X2816500Y2845164D1*
X2819558Y2868064D1*
X2828439Y2889392D1*
X2831454Y2893306D1*
X2819934Y2910505D1*
X2811758Y2932156D1*
X2810758Y2936714D1*
X2810001Y2941193D1*
X2808178Y2931896D1*
X2799941Y2910268D1*
X2786768Y2891240D1*
X2780688Y2885868D1*
X2781725Y2884108D1*
X2790527Y2862747D1*
X2793500Y2840000D1*
X2790442Y2816936D1*
X2294728Y2540511D2*
X2305356Y2531070D1*
X2325833Y2520286D1*
X2348296Y2514716D1*
X2371439Y2514684D1*
X2393917Y2520191D1*
X2414424Y2530918D1*
X2431768Y2546240D1*
X2444941Y2565268D1*
X2453178Y2586896D1*
X2456000Y2610000D1*
X2453242Y2632844D1*
X2445066Y2654495D1*
X2431946Y2673560D1*
X2414644Y2688930D1*
X2394167Y2699714D1*
X2371704Y2705284D1*
X2348561Y2705316D1*
X2325983Y2699757D1*
X2325272Y2699489D1*
X2314644Y2708930D1*
X2294167Y2719714D1*
X2271704Y2725284D1*
X2248561Y2725316D1*
X2226083Y2719809D1*
X2205576Y2709082D1*
X2189095Y2694691D1*
X2186704Y2695284D1*
X2163561Y2695316D1*
X2159392Y2694712D1*
X2154644Y2698930D1*
X2134167Y2709714D1*
X2111704Y2715284D1*
X2088561Y2715316D1*
X2066083Y2709809D1*
X2045576Y2699082D1*
X2031993Y2687733D1*
X2021704Y2690284D1*
X1998561Y2690316D1*
X1976083Y2684809D1*
X1955576Y2674082D1*
X1954965Y2673645D1*
X1954644Y2673930D1*
X1934167Y2684714D1*
X1911704Y2690284D1*
X1888561Y2690316D1*
X1866083Y2684809D1*
X1845576Y2674082D1*
X1828232Y2658760D1*
X1815059Y2639732D1*
X1806822Y2618104D1*
X1804000Y2595134D1*
X1806758Y2572156D1*
X1814934Y2550505D1*
X1828054Y2531440D1*
X1845356Y2516070D1*
X1865833Y2505286D1*
X1888296Y2499716D1*
X1911439Y2499684D1*
X1933917Y2505191D1*
X1954424Y2515918D1*
X1955035Y2516355D1*
X1955356Y2516070D1*
X1975833Y2505286D1*
X1998296Y2499716D1*
X2021439Y2499684D1*
X2043917Y2505191D1*
X2064424Y2515918D1*
X2078007Y2527267D1*
X2088296Y2524716D1*
X2111439Y2524684D1*
X2115608Y2525288D1*
X2120356Y2521070D1*
X2140833Y2510286D1*
X2163296Y2504716D1*
X2186439Y2504684D1*
X2208917Y2510191D1*
X2229424Y2520918D1*
X2245905Y2535309D1*
X2248296Y2534716D1*
X2271439Y2534684D1*
X2294017Y2540243D1*
X1893178Y3056896D2*
X1884941Y3035268D1*
X1871768Y3016240D1*
X1854424Y3000918D1*
X1833917Y2990191D1*
X1811439Y2984684D1*
X1788296Y2984716D1*
X1765833Y2990286D1*
X1745356Y3001070D1*
X1728054Y3016440D1*
X1714934Y3035505D1*
X1706758Y3057156D1*
X1704000Y3080134D1*
X1706822Y3103104D1*
X1715059Y3124732D1*
X1728232Y3143760D1*
X1745576Y3159082D1*
X1766083Y3169809D1*
X1788561Y3175316D1*
X1811704Y3175284D1*
X1834167Y3169714D1*
X1854644Y3158930D1*
X1871946Y3143560D1*
X1885066Y3124495D1*
X1893242Y3102844D1*
X1896000Y3080000D1*
X1893178Y3056896D1*
X1993178Y2841896D2*
X1984941Y2820268D1*
X1971768Y2801240D1*
X1954424Y2785918D1*
X1933917Y2775191D1*
X1911439Y2769684D1*
X1888296Y2769716D1*
X1865833Y2775286D1*
X1845356Y2786070D1*
X1828054Y2801440D1*
X1814934Y2820505D1*
X1806758Y2842156D1*
X1804000Y2865134D1*
X1806822Y2888104D1*
X1815059Y2909732D1*
X1828232Y2928760D1*
X1845576Y2944082D1*
X1866083Y2954809D1*
X1888561Y2960316D1*
X1911704Y2960284D1*
X1934167Y2954714D1*
X1954644Y2943930D1*
X1971946Y2928560D1*
X1985066Y2909495D1*
X1993242Y2887844D1*
X1996000Y2865000D1*
X1993178Y2841896D1*
X2171361Y2797874D2*
X2166768Y2791240D1*
X2149424Y2775918D1*
X2128917Y2765191D1*
X2106439Y2759684D1*
X2083296Y2759716D1*
X2060833Y2765286D1*
X2040356Y2776070D1*
X2023054Y2791440D1*
X2009934Y2810505D1*
X2001758Y2832156D1*
X1999000Y2855134D1*
X2001822Y2878104D1*
X2010059Y2899732D1*
X2023232Y2918760D1*
X2040576Y2934082D1*
X2061083Y2944809D1*
X2083561Y2950316D1*
X2106704Y2950284D1*
X2129167Y2944714D1*
X2149644Y2933930D1*
X2166946Y2918560D1*
X2178054Y2902418D1*
X2183232Y2908760D1*
X2200576Y2924082D1*
X2221083Y2934809D1*
X2243561Y2940316D1*
X2266704Y2940284D1*
X2289167Y2934714D1*
X2309644Y2923930D1*
X2326946Y2908560D1*
X2340066Y2889495D1*
X2348242Y2867844D1*
X2351000Y2845000D1*
X2348178Y2821896D1*
X2339941Y2800268D1*
X2326768Y2781240D1*
X2309424Y2765918D1*
X2288917Y2755191D1*
X2266439Y2749684D1*
X2243296Y2749716D1*
X2220833Y2755286D1*
X2200356Y2766070D1*
X2183054Y2781440D1*
X2171946Y2797582D1*
X3453178Y2236896D2*
X3444941Y2215268D1*
X3431768Y2196240D1*
X3414424Y2180918D1*
X3393917Y2170191D1*
X3371439Y2164684D1*
X3348296Y2164716D1*
X3325833Y2170286D1*
X3305356Y2181070D1*
X3288054Y2196440D1*
X3274934Y2215505D1*
X3266758Y2237156D1*
X3264000Y2260134D1*
X3266822Y2283104D1*
X3275059Y2304732D1*
X3288232Y2323760D1*
X3305576Y2339082D1*
X3326083Y2349809D1*
X3348561Y2355316D1*
X3371704Y2355284D1*
X3394167Y2349714D1*
X3414644Y2338930D1*
X3431946Y2323560D1*
X3445066Y2304495D1*
X3453242Y2282844D1*
X3456000Y2260000D1*
X3453178Y2236896D1*
X3078025Y1691922D2*
X3069520Y1670756D1*
X3056019Y1652370D1*
X3038369Y1637919D1*
X3017680Y1628312D1*
X2995252Y1624152D1*
X2972494Y1625700D1*
X2950836Y1632859D1*
X2931639Y1645179D1*
X2916109Y1661886D1*
X2905221Y1681931D1*
X2899661Y1704054D1*
X2899777Y1726864D1*
X2905562Y1748929D1*
X2916652Y1768862D1*
X2932352Y1785411D1*
X2951673Y1797535D1*
X2973403Y1804474D1*
X2996175Y1805790D1*
X3018560Y1801402D1*
X3039150Y1791585D1*
X3056652Y1776956D1*
X3069966Y1758434D1*
X3078255Y1737182D1*
X3081000Y1715000D1*
X3078025Y1691922D1*
X2151440Y1877698D2*
X2149424Y1875918D1*
X2128917Y1865191D1*
X2106439Y1859684D1*
X2083296Y1859716D1*
X2060833Y1865286D1*
X2040356Y1876070D1*
X2036585Y1878818D1*
X2032952Y1881747D1*
X2029443Y1884871D1*
X2030717Y1881408D1*
X2032136Y1876963D1*
X2033337Y1872454D1*
X2034318Y1867892D1*
X2034602Y1864869D1*
X2054167Y1859714D1*
X2074644Y1848930D1*
X2091946Y1833560D1*
X2105066Y1814495D1*
X2113242Y1792844D1*
X2116000Y1770000D1*
X2113178Y1746896D1*
X2104941Y1725268D1*
X2091768Y1706240D1*
X2074424Y1690918D1*
X2053917Y1680191D1*
X2031439Y1674684D1*
X2008296Y1674716D1*
X1985833Y1680286D1*
X1965356Y1691070D1*
X1948054Y1706440D1*
X1934934Y1725505D1*
X1926758Y1747156D1*
X1925807Y1755077D1*
X1905833Y1760286D1*
X1885356Y1771070D1*
X1868054Y1786440D1*
X1854934Y1805505D1*
X1846758Y1827156D1*
X1844000Y1850134D1*
X1846822Y1873104D1*
X1855059Y1894732D1*
X1868232Y1913760D1*
X1885576Y1929082D1*
X1906083Y1939809D1*
X1928561Y1945316D1*
X1951704Y1945284D1*
X1974167Y1939714D1*
X1994644Y1928930D1*
X1998415Y1926182D1*
X2002048Y1923253D1*
X2005557Y1920129D1*
X2004283Y1923592D1*
X2002864Y1928037D1*
X2001663Y1932546D1*
X2000682Y1937108D1*
X1999141Y1960200D1*
X2003171Y1982989D1*
X2012537Y2004152D1*
X2026696Y2022458D1*
X2044825Y2036844D1*
X2065870Y2046474D1*
X2088607Y2050787D1*
X2111716Y2049533D1*
X2133854Y2042786D1*
X2153733Y2030937D1*
X2170200Y2014674D1*
X2177866Y2002169D1*
X2180576Y2004082D1*
X2201083Y2014809D1*
X2223561Y2020316D1*
X2246704Y2020284D1*
X2269167Y2014714D1*
X2289644Y2003930D1*
X2306946Y1988560D1*
X2320066Y1969495D1*
X2328242Y1947844D1*
X2331000Y1925000D1*
X2328178Y1901896D1*
X2319941Y1880268D1*
X2306768Y1861240D1*
X2289424Y1845918D1*
X2268917Y1835191D1*
X2246439Y1829684D1*
X2223296Y1829716D1*
X2200833Y1835286D1*
X2180356Y1846070D1*
X2163054Y1861440D1*
X2151894Y1877657D1*
X1758178Y1876896D2*
X1749941Y1855268D1*
X1736768Y1836240D1*
X1719424Y1820918D1*
X1698917Y1810191D1*
X1676439Y1804684D1*
X1653296Y1804716D1*
X1630833Y1810286D1*
X1610356Y1821070D1*
X1593054Y1836440D1*
X1579934Y1855505D1*
X1571758Y1877156D1*
X1569000Y1900134D1*
X1571822Y1923104D1*
X1580059Y1944732D1*
X1593232Y1963760D1*
X1610576Y1979082D1*
X1631083Y1989809D1*
X1653561Y1995316D1*
X1676704Y1995284D1*
X1699167Y1989714D1*
X1719644Y1978930D1*
X1736946Y1963560D1*
X1750066Y1944495D1*
X1758242Y1922844D1*
X1761000Y1900000D1*
X1758178Y1876896D1*
X2543178Y1786896D2*
X2534941Y1765268D1*
X2521768Y1746240D1*
X2504424Y1730918D1*
X2483917Y1720191D1*
X2461439Y1714684D1*
X2438296Y1714716D1*
X2415833Y1720286D1*
X2395356Y1731070D1*
X2378054Y1746440D1*
X2364934Y1765505D1*
X2356758Y1787156D1*
X2354000Y1810134D1*
X2356822Y1833104D1*
X2365059Y1854732D1*
X2378232Y1873760D1*
X2395576Y1889082D1*
X2416083Y1899809D1*
X2438561Y1905316D1*
X2461704Y1905284D1*
X2484167Y1899714D1*
X2504644Y1888930D1*
X2521946Y1873560D1*
X2535066Y1854495D1*
X2543242Y1832844D1*
X2546000Y1810000D1*
X2543178Y1786896D1*
X2968178Y2126896D2*
X2959941Y2105268D1*
X2954989Y2098114D1*
X2960066Y2089495D1*
X2968242Y2067844D1*
X2971000Y2045000D1*
X2968178Y2021896D1*
X2959941Y2000268D1*
X2946768Y1981240D1*
X2929424Y1965918D1*
X2908917Y1955191D1*
X2886439Y1949684D1*
X2863296Y1949716D1*
X2840833Y1955286D1*
X2820356Y1966070D1*
X2803054Y1981440D1*
X2793714Y1995013D1*
X2786768Y1986240D1*
X2769424Y1970918D1*
X2748917Y1960191D1*
X2726439Y1954684D1*
X2703296Y1954716D1*
X2680833Y1960286D1*
X2660356Y1971070D1*
X2643054Y1986440D1*
X2629934Y2005505D1*
X2621758Y2027156D1*
X2619000Y2050134D1*
X2621822Y2073104D1*
X2630059Y2094732D1*
X2639282Y2108055D1*
X2634934Y2115505D1*
X2626758Y2137156D1*
X2624000Y2160134D1*
X2626822Y2183104D1*
X2635059Y2204732D1*
X2648232Y2223760D1*
X2665576Y2239082D1*
X2686083Y2249809D1*
X2708561Y2255316D1*
X2731704Y2255284D1*
X2754167Y2249714D1*
X2774644Y2238930D1*
X2791946Y2223560D1*
X2800722Y2210806D1*
X2809957Y2220607D1*
X2828744Y2234121D1*
X2850220Y2242747D1*
X2873135Y2245982D1*
X2896160Y2243639D1*
X2917954Y2235854D1*
X2937252Y2223080D1*
X2952932Y2206058D1*
X2964083Y2185779D1*
X2970057Y2163420D1*
X2971000Y2150000D1*
X2968178Y2126896D1*
X3378178Y1916896D2*
X3369941Y1895268D1*
X3356768Y1876240D1*
X3339424Y1860918D1*
X3318917Y1850191D1*
X3296439Y1844684D1*
X3273296Y1844716D1*
X3250833Y1850286D1*
X3230356Y1861070D1*
X3213054Y1876440D1*
X3199934Y1895505D1*
X3191758Y1917156D1*
X3189000Y1940134D1*
X3191822Y1963104D1*
X3200059Y1984732D1*
X3213232Y2003760D1*
X3230576Y2019082D1*
X3251083Y2029809D1*
X3273561Y2035316D1*
X3296704Y2035284D1*
X3319167Y2029714D1*
X3339644Y2018930D1*
X3356946Y2003560D1*
X3370066Y1984495D1*
X3378242Y1962844D1*
X3381000Y1940000D1*
X3378178Y1916896D1*
X3353178Y2821896D2*
X3344941Y2800268D1*
X3331768Y2781240D1*
X3314424Y2765918D1*
X3293917Y2755191D1*
X3271439Y2749684D1*
X3248296Y2749716D1*
X3225833Y2755286D1*
X3205356Y2766070D1*
X3188054Y2781440D1*
X3174934Y2800505D1*
X3166758Y2822156D1*
X3164000Y2845134D1*
X3166822Y2868104D1*
X3175059Y2889732D1*
X3188232Y2908760D1*
X3205576Y2924082D1*
X3226083Y2934809D1*
X3248561Y2940316D1*
X3271704Y2940284D1*
X3294167Y2934714D1*
X3314644Y2923930D1*
X3331946Y2908560D1*
X3345066Y2889495D1*
X3353242Y2867844D1*
X3356000Y2845000D1*
X3353178Y2821896D1*
X2833121Y3018608D2*
X2824934Y3030505D1*
X2816758Y3052156D1*
X2815758Y3056714D1*
X2815001Y3061193D1*
X2813178Y3051896D1*
X2804941Y3030268D1*
X2792270Y3011965D1*
X2800066Y2999495D1*
X2808242Y2977844D1*
X2809242Y2973286D1*
X2809999Y2968807D1*
X2810861Y2973812D1*
X2811887Y2978364D1*
X2813132Y2982861D1*
X2814594Y2987292D1*
X2816270Y2991647D1*
X2827619Y3011817D1*
X2833050Y3017598D1*
X2833121Y3018608D1*
X3870009Y1360000D2*
D23*
X3708077Y1198062D1*
X3870009Y1360000D2*
X3708071Y1521933D1*
D25*
X3870009Y1360000D3*
D26*
X3870005Y1614000D3*
X3870000Y1868000D3*
X3869995Y2122000D3*
X3869991Y2376000D3*
D25*
X1185000Y1550000D3*
D26*
Y1804000D3*
Y2058000D3*
Y2312000D3*
D31*
X2568700Y3180000D3*
X3051300D3*
M02*
