G04 DipTrace 4.3.0.3*
G04 GBL.gbr*
%MOMM*%
G04 #@! TF.FileFunction,Copper,L4,Bot*
G04 #@! TF.Part,Single*
%AMOUTLINE6*
4,1,28,
-0.50303,0.64998,
0.50297,0.65002,
0.5669,0.64161,
0.62648,0.61693,
0.67763,0.57768,
0.71689,0.52653,
0.74156,0.46696,
0.74998,0.40303,
0.75002,-0.40297,
0.7416,-0.4669,
0.71693,-0.52647,
0.67768,-0.57763,
0.62652,-0.61688,
0.56695,-0.64156,
0.50303,-0.64998,
-0.50297,-0.65002,
-0.5669,-0.64161,
-0.62648,-0.61693,
-0.67763,-0.57768,
-0.71689,-0.52653,
-0.74156,-0.46696,
-0.74998,-0.40303,
-0.75002,0.40297,
-0.7416,0.4669,
-0.71693,0.52647,
-0.67768,0.57763,
-0.62652,0.61688,
-0.56695,0.64156,
-0.50303,0.64998,
0*%
G04 #@! TA.AperFunction,ViaPad*
%ADD16C,0.45*%
G04 #@! TA.AperFunction,Conductor*
%ADD17C,0.8*%
G04 #@! TA.AperFunction,ViaPad*
%ADD18C,0.5*%
G04 #@! TA.AperFunction,Conductor*
%ADD19C,0.35*%
%ADD20C,1.2*%
%ADD21C,0.95*%
G04 #@! TA.AperFunction,CopperBalancing*
%ADD22C,0.635*%
%ADD23C,0.33*%
G04 #@! TA.AperFunction,ComponentPad*
%ADD25R,1.92X1.92*%
%ADD26C,1.92*%
%ADD27R,1.8X1.6*%
%ADD29R,0.95X2.15*%
%ADD30R,3.25X2.15*%
G04 #@! TA.AperFunction,ComponentPad*
%ADD31C,1.2192*%
G04 #@! TA.AperFunction,ViaPad*
%ADD32C,0.6*%
%ADD51OUTLINE6*%
%FSLAX35Y35*%
G04*
G71*
G90*
G75*
G01*
G04 Bottom*
%LPD*%
G36*
X2467860Y1615477D2*
X2527500Y1615397D1*
X2531967Y1613780D1*
Y1465367D1*
X2527500Y1466987D1*
X2438390Y1541103D1*
X2467860Y1615477D1*
G37*
G36*
X2459643Y1532680D2*
X2296253Y1555000D1*
X2287887Y1558313D1*
X2391637Y1673823D1*
X2400003Y1670507D1*
X2489113Y1607057D1*
X2459643Y1532680D1*
G37*
X2575000Y1530000D2*
D17*
X2334137Y1625437D1*
X2310003Y1635000D1*
G36*
X2240000Y1595000D2*
X2160000Y1554997D1*
X2080000Y1635000D1*
X2160000Y1715003D1*
X2240000Y1675000D1*
Y1595000D1*
G37*
G36*
X2140003Y1675000D2*
X2220003Y1715000D1*
X2310003Y1635000D1*
X2229003Y1555000D1*
X2220003D1*
X2140003Y1595000D1*
Y1675000D1*
G37*
X2070000Y1635000D2*
D17*
X2140000D1*
X2310003D1*
G36*
X1780000Y1970000D2*
X1755000Y2020000D1*
Y2026500D1*
X1855000D1*
Y2020000D1*
X1830000Y1970000D1*
X1780000D1*
G37*
G36*
X1930000Y1695000D2*
X1980000Y1700323D1*
X1988663Y1697883D1*
Y1604130D1*
X1980000Y1606573D1*
X1930000Y1645000D1*
Y1695000D1*
G37*
X1805000Y2085000D2*
D18*
Y1790000D1*
X1925000Y1670000D1*
X2035000D1*
X2070000Y1635000D1*
X2140000Y1625000D2*
D17*
Y1635000D1*
X2330000Y1615000D2*
X2334137Y1625437D1*
G36*
X3100717Y1601683D2*
X3190003Y1668810D1*
X3198277Y1672353D1*
X3301637Y1558547D1*
X3293363Y1555000D1*
X3132230Y1528150D1*
X3100717Y1601683D1*
G37*
G36*
X3171790Y1545103D2*
X3082500Y1466947D1*
X3078080Y1465207D1*
Y1615053D1*
X3082500Y1616793D1*
X3140277Y1618637D1*
X3171790Y1545103D1*
G37*
X3280003Y1635000D2*
D17*
X3035000Y1530000D1*
G36*
X2907500Y1570000D2*
X2987500Y1610000D1*
X2992250D1*
Y1450000D1*
X2987500D1*
X2907500Y1490000D1*
Y1570000D1*
G37*
G36*
X2932500Y1490000D2*
X2852500Y1450000D1*
X2847750D1*
Y1610000D1*
X2852500D1*
X2932500Y1570000D1*
Y1490000D1*
G37*
X3035000Y1530000D2*
D17*
X2805000D1*
G36*
X3090560Y2513283D2*
X3180000Y2590977D1*
X3188017Y2595070D1*
X3297820Y2484093D1*
X3289803Y2480000D1*
X3126943Y2442037D1*
X3090560Y2513283D1*
G37*
G36*
X3171940Y2465013D2*
X3082500Y2379947D1*
X3078190Y2377950D1*
Y2528563D1*
X3082500Y2530560D1*
X3135557Y2536263D1*
X3171940Y2465013D1*
G37*
X3270000Y2560000D2*
D17*
X3035000Y2440000D1*
G36*
X2907500Y2480000D2*
X2987500Y2520000D1*
X2992250D1*
Y2360000D1*
X2987500D1*
X2907500Y2400000D1*
Y2480000D1*
G37*
G36*
X2932500Y2400000D2*
X2852500Y2360000D1*
X2847750D1*
Y2520000D1*
X2852500D1*
X2932500Y2480000D1*
Y2400000D1*
G37*
X3035000Y2440000D2*
D17*
X2805000D1*
G36*
X1338600Y1490000D2*
X1281000Y1482800D1*
X1271400D1*
Y1617200D1*
X1281000D1*
X1338600Y1610000D1*
Y1490000D1*
G37*
G36*
X3392427Y2352720D2*
X3223383Y2480000D1*
X3217727Y2485657D1*
X3354343Y2598993D1*
X3360000Y2593337D1*
X3477280Y2437573D1*
X3392427Y2352720D1*
G37*
X1185000Y1550000D2*
D20*
X1530000D1*
X1790000Y1290000D1*
X3035000D1*
X3375000D1*
X3565000Y1480000D1*
Y2265000D1*
X3270000Y2560000D1*
G36*
X2987633Y1533533D2*
X2975167Y1366967D1*
Y1362217D1*
X3094833D1*
Y1366967D1*
X3082367Y1533533D1*
X2987633D1*
G37*
G36*
X3035000Y1230000D2*
X2962500Y1350000D1*
X2964457Y1350153D1*
X2966363Y1350613D1*
X2968173Y1351363D1*
X2969847Y1352387D1*
X2971340Y1353660D1*
X2972613Y1355153D1*
X2973637Y1356827D1*
X2974387Y1358637D1*
X2974847Y1360543D1*
X2975000Y1362500D1*
X3095000D1*
X3095153Y1360543D1*
X3095613Y1358637D1*
X3096363Y1356827D1*
X3097387Y1355153D1*
X3098660Y1353660D1*
X3100153Y1352387D1*
X3101827Y1351363D1*
X3103637Y1350613D1*
X3105543Y1350153D1*
X3107500Y1350000D1*
X3035000Y1230000D1*
G37*
Y1530000D2*
D21*
Y1362500D1*
D20*
Y1290000D1*
G36*
X1998433Y1816317D2*
X2019700Y1800000D1*
X2021820Y1797877D1*
X1992123Y1768180D1*
X1990000Y1770300D1*
X1973683Y1791567D1*
X1998433Y1816317D1*
G37*
G36*
X1961567Y1803683D2*
X1940300Y1820000D1*
X1938180Y1822123D1*
X1967877Y1851820D1*
X1970000Y1849700D1*
X1986317Y1828433D1*
X1961567Y1803683D1*
G37*
X2020000Y1770000D2*
D19*
X1940000Y1850000D1*
G36*
X2037500Y1818000D2*
X2041000Y1791423D1*
Y1788423D1*
X1999000D1*
Y1791423D1*
X2002500Y1818000D1*
X2037500D1*
G37*
G36*
X2048683Y1933433D2*
X2065000Y1954700D1*
X2067123Y1956820D1*
X2096820Y1927123D1*
X2094700Y1925000D1*
X2073433Y1908683D1*
X2048683Y1933433D1*
G37*
G36*
X2002500Y1800000D2*
X2006627Y1835000D1*
X2010180Y1842170D1*
X2077257D1*
X2073707Y1835000D1*
X2037500Y1800000D1*
X2002500D1*
G37*
X2020000Y1770000D2*
D19*
Y1880000D1*
X2095000Y1955000D1*
G36*
X2187000Y1942500D2*
X2213577Y1946000D1*
X2216577D1*
Y1904000D1*
X2213577D1*
X2187000Y1907500D1*
Y1942500D1*
G37*
G36*
X2117020Y1909423D2*
X2099117Y1925283D1*
X2097230Y1927617D1*
X2122907Y1960853D1*
X2124793Y1958520D1*
X2133830Y1942500D1*
X2117020Y1909423D1*
G37*
G36*
X2184997Y1942500D2*
X2219997Y1954997D1*
X2228957Y1954167D1*
X2228960Y1886260D1*
X2219997Y1887090D1*
X2184997Y1907500D1*
Y1942500D1*
G37*
G36*
X2195000Y1907500D2*
X2160000Y1887090D1*
X2151040Y1886260D1*
Y1954167D1*
X2160000Y1954997D1*
X2195000Y1942500D1*
Y1907500D1*
G37*
X2235000Y1925000D2*
D19*
X2125000D1*
X2095000Y1955000D1*
G36*
X1988000Y1832500D2*
X1961423Y1829000D1*
X1958423D1*
Y1871000D1*
X1961423D1*
X1988000Y1867500D1*
Y1832500D1*
G37*
G36*
X1945000Y1867500D2*
X1980000Y1907930D1*
X1987800Y1912420D1*
Y1843623D1*
X1980000Y1839133D1*
X1945000Y1832500D1*
Y1867500D1*
G37*
G36*
X2013303Y1848833D2*
X2007627Y1877373D1*
X2062250Y1897500D1*
X2057747Y1892627D1*
X2053637Y1887417D1*
X2049950Y1881900D1*
X2046710Y1876113D1*
X2043933Y1870087D1*
X2041637Y1863863D1*
X2039833Y1857477D1*
X2038540Y1850970D1*
X2037760Y1844380D1*
X2037500Y1837750D1*
X2013303Y1848833D1*
G37*
X1940000Y1850000D2*
D19*
X2005000D1*
X2070000Y1915000D1*
G36*
X2283000Y1907500D2*
X2256423Y1904000D1*
X2253423D1*
Y1946000D1*
X2256423D1*
X2283000Y1942500D1*
Y1907500D1*
G37*
X2235000Y1925000D2*
D19*
X2299997D1*
X2309997Y1915000D1*
G36*
X2819897Y2149647D2*
X2848473Y2164010D1*
X2851413Y2164597D1*
X2863403Y2124343D1*
X2860463Y2123757D1*
X2844647Y2124897D1*
X2819897Y2149647D1*
G37*
X2875000Y2150000D2*
D19*
X2845000D1*
X2805000Y2110000D1*
X3285000Y1940000D2*
Y1920003D1*
X3279997Y1915000D1*
G36*
X2769740Y2959993D2*
X2742790Y2943697D1*
X2739953Y2942717D1*
X2724023Y2981580D1*
X2726860Y2982557D1*
X2744993Y2984740D1*
X2769740Y2959993D1*
G37*
X2715000Y2955000D2*
D19*
X2740000D1*
X2805000Y3020000D1*
X3260000Y2845000D2*
X3265000D1*
X3270000Y2840000D1*
G36*
X2303000Y2827500D2*
X2276423Y2824000D1*
X2273423D1*
Y2866000D1*
X2276423D1*
X2303000Y2862500D1*
Y2827500D1*
G37*
X2255000Y2845000D2*
D19*
X2315000D1*
X2320000Y2840000D1*
G36*
X2052627Y2852373D2*
X2066447Y2864203D1*
X2069320Y2865063D1*
X2088103Y2827497D1*
X2085230Y2826637D1*
X2077373Y2827627D1*
X2052627Y2852373D1*
G37*
X2095000Y2855000D2*
D19*
X2080000D1*
X2065000Y2840000D1*
G36*
X2057627Y1927373D2*
X2065837Y1947963D1*
X2067367Y1950543D1*
X2102983Y1928283D1*
X2101453Y1925703D1*
X2082373Y1902627D1*
X2057627Y1927373D1*
G37*
X2095000Y1955000D2*
D19*
Y1940000D1*
X2070000Y1915000D1*
X2575000Y2440000D2*
D17*
X2320000Y2560000D1*
X2065000D1*
X1805000Y2275000D2*
D18*
Y2300000D1*
X2065000Y2560000D1*
X1900000Y2595000D2*
X2010000D1*
D19*
X2030000D1*
X2065000Y2560000D1*
X2100000Y2620000D2*
Y2595000D1*
X2065000Y2560000D1*
X2260000Y2630000D2*
Y2620000D1*
X2320000Y2560000D1*
X2010000Y2595000D2*
D3*
X2175000Y2600000D2*
X2120000D1*
X2100000Y2620000D1*
X2035000D1*
X2010000Y2595000D1*
X1900000D2*
X2010000D1*
X2360000Y2610000D2*
X2280000D1*
X2260000Y2630000D1*
X2175000Y2600000D2*
X2230000D1*
X2260000Y2630000D1*
D16*
X2705000Y2840000D3*
X2905000Y2845000D3*
D32*
X2260000Y2630000D3*
X2100000Y2620000D3*
X1900000Y2595000D3*
X2360000Y2610000D3*
X2175000Y2600000D3*
X2010000Y2595000D3*
X1790000Y1655000D3*
X1755000Y1730000D3*
X1685000Y1735000D3*
X1605000Y1755000D3*
X1915000Y1430000D3*
X2015000Y1425000D3*
X1620000Y1695000D3*
X1695000Y1655000D3*
X2135000Y1415000D3*
X2140000Y1625000D3*
X3255000Y1395000D3*
X3180000Y1425000D3*
X3480000Y2520000D3*
X1840000Y1485000D3*
X2330000Y1615000D3*
X2575000Y1470000D3*
X3760000Y3385000D3*
X3500000Y3375000D3*
X1800000Y3080000D3*
X1900000Y2865000D3*
X2095000Y2855000D3*
X2255000Y2845000D3*
X3630000Y2360000D3*
X3360000Y2260000D3*
X3250000Y1160000D3*
X3035000Y1105000D3*
D18*
X2990000Y1715000D3*
D32*
X2095000Y1955000D3*
X1940000Y1850000D3*
X1665000Y1900000D3*
X1415000Y1995000D3*
X2020000Y1770000D3*
X2450000Y1810000D3*
X2875000Y2150000D3*
X2720000Y2160000D3*
X2715000Y2050000D3*
X2875000Y2045000D3*
X3285000Y1940000D3*
X3260000Y2845000D3*
X2910000Y3075000D3*
X2720000D3*
X2715000Y2955000D3*
X2905000D3*
X2235000Y1925000D3*
X1688123Y2665083D2*
D22*
X1905887D1*
X2479087D2*
X2656880D1*
X1688123Y2601917D2*
X1905887D1*
X1688123Y2538750D2*
X1905887D1*
X1688123Y2475583D2*
X1905887D1*
X1688123Y2412417D2*
X2458410D1*
X1942237Y2349250D2*
X2458410D1*
X1949120Y2286083D2*
X2458410D1*
X1948300Y2222917D2*
X2573390D1*
X1749567Y2402600D2*
X1741823Y2401797D1*
X1734193Y2400313D1*
X1726723Y2398153D1*
X1719473Y2395343D1*
X1712503Y2391897D1*
X1705867Y2387847D1*
X1699617Y2383223D1*
X1693800Y2378060D1*
X1688467Y2372403D1*
X1683657Y2366293D1*
X1681750Y2363533D1*
X1681733Y2728250D1*
X1912250Y2728263D1*
Y2417250D1*
X2464750Y2417247D1*
Y2269750D1*
X2579750Y2269753D1*
X2579733Y2221750D1*
X1952717D1*
X1942130Y2224313D1*
X1942710Y2232073D1*
X1942750Y2245017D1*
X1942713Y2317810D1*
X1942147Y2325563D1*
X1940890Y2333237D1*
X1938960Y2340770D1*
X1936367Y2348100D1*
X1933133Y2355170D1*
X1929283Y2361927D1*
X1924850Y2368313D1*
X1919867Y2374280D1*
X1914373Y2379783D1*
X1908410Y2384773D1*
X1902030Y2389217D1*
X1895280Y2393077D1*
X1888213Y2396320D1*
X1880887Y2398923D1*
X1873357Y2400867D1*
X1865687Y2402130D1*
X1857927Y2402710D1*
X1847440Y2402750D1*
X1754807D1*
X1749567Y2402600D1*
X2472747Y2610250D2*
X2663243D1*
X2663250Y2728247D1*
X2472740Y2728250D1*
X2472727Y2697250D1*
X2472750Y2656083D1*
Y2610243D1*
X2575000Y2269840D2*
D23*
Y2610160D1*
Y2440000D2*
X2464813D1*
X2065000Y2417183D2*
Y2560000D1*
X1912340D1*
X2320000Y2417183D2*
Y2560000D1*
X1805000Y2402767D2*
Y2275000D1*
X1942790D1*
X1618123Y2105083D2*
D22*
X1650630D1*
X1959373D2*
X2563137D1*
X1618123Y2041917D2*
X1650677D1*
X2479360D2*
X2563137D1*
X2479360Y1978750D2*
X2563137D1*
X1773163Y1915583D2*
X1854207D1*
X2479360D2*
X2706920D1*
X1762727Y1852417D2*
X1830643D1*
X2550227D2*
X2706920D1*
X1618123Y1789250D2*
X1850470D1*
X2557243D2*
X2706920D1*
X1618123Y1726083D2*
X1900643D1*
X2516090D2*
X2706920D1*
X1618123Y1662917D2*
X1900643D1*
X1674723Y1599750D2*
X1900643D1*
X1737890Y1536583D2*
X1900643D1*
X1801053Y1473417D2*
X2448110D1*
X2707813Y1710520D2*
X2713260D1*
X2713250Y1929503D1*
X2569480Y1929480D1*
Y2116990D1*
X1953027Y2116980D1*
X1953020Y2068013D1*
X2473017Y2068020D1*
Y1910407D1*
X2482737Y1907680D1*
X2487127Y1906097D1*
X2507580Y1895427D1*
X2525143Y1880473D1*
X2538943Y1861983D1*
X2548280Y1840890D1*
X2552690Y1818247D1*
X2553020Y1810000D1*
X2550390Y1786867D1*
X2542723Y1765107D1*
X2530410Y1745600D1*
X2514063Y1729320D1*
X2494503Y1717090D1*
X2490250Y1715170D1*
X2485917Y1713443D1*
X2481507Y1711917D1*
X2476753Y1710520D1*
X2707813D1*
X2454480Y1423027D2*
Y1481983D1*
X1906980Y1481980D1*
Y1752417D1*
X1898957Y1755510D1*
X1878960Y1767010D1*
X1862023Y1782677D1*
X1848997Y1801713D1*
X1840533Y1823177D1*
X1837060Y1845980D1*
X1838747Y1868990D1*
X1845510Y1891043D1*
X1857010Y1911040D1*
X1872677Y1927977D1*
X1891713Y1941003D1*
X1906993Y1947030D1*
X1906980Y1961750D1*
X1900013Y1957810D1*
X1892963Y1954530D1*
X1885673Y1951820D1*
X1878193Y1949700D1*
X1870567Y1948180D1*
X1862847Y1947270D1*
X1855300Y1946980D1*
X1756687D1*
X1757910Y1944503D1*
X1765483Y1922713D1*
X1768020Y1900000D1*
X1765390Y1876867D1*
X1757723Y1855107D1*
X1745410Y1835600D1*
X1729063Y1819320D1*
X1709503Y1807090D1*
X1687713Y1799517D1*
X1664783Y1796980D1*
X1641867Y1799610D1*
X1620107Y1807277D1*
X1611743Y1812557D1*
X1611750Y1654927D1*
X1624060Y1644060D1*
X1845083Y1423037D1*
X2326390Y1423020D1*
X2454470D1*
X1611750Y2127790D2*
X1611767Y1987453D1*
X1620497Y1992910D1*
X1642287Y2000483D1*
X1665217Y2003020D1*
X1666357Y2002890D1*
X1663103Y2010653D1*
X1660687Y2018043D1*
X1658863Y2025603D1*
X1657650Y2033283D1*
X1657050Y2041037D1*
X1656980Y2044700D1*
Y2116980D1*
X1650000D1*
X1627040Y2120687D1*
X1611750Y2127790D1*
X2575000Y1530000D2*
D23*
Y1710430D1*
X2310007Y1481913D2*
X2310003Y1635000D1*
X2070000Y1481913D2*
Y1635000D1*
X1907070D1*
X1805000Y2085000D2*
Y1946903D1*
X1657060Y2085000D2*
X1952940D1*
D25*
X3870009Y1360000D3*
D26*
X3870005Y1614000D3*
X3870000Y1868000D3*
X3869995Y2122000D3*
X3869991Y2376000D3*
D27*
X3280004Y1635000D3*
X3279996Y1915000D3*
X2310004Y1635000D3*
X2309996Y1915000D3*
X2070000Y1635000D3*
Y1915000D3*
X3270000Y2560000D3*
Y2840000D3*
X2065000Y2560000D3*
Y2840000D3*
X2320000Y2560000D3*
Y2840000D3*
D51*
X1805000Y2275000D3*
Y2085000D3*
D29*
X3035000Y2440000D3*
X2805000D3*
X2575000D3*
D30*
X2805000Y3020000D3*
D29*
X3035000Y1530000D3*
X2805000D3*
X2575000D3*
D30*
X2805000Y2110000D3*
D25*
X1185000Y1550000D3*
D26*
Y1804000D3*
Y2058000D3*
Y2312000D3*
D31*
X2568700Y3180000D3*
X3051300D3*
M02*
