G04 DipTrace 4.3.0.3*
G04 GTO.gbr*
%MOMM*%
G04 #@! TF.FileFunction,Legend,Top*
G04 #@! TF.Part,Single*
%ADD10C,0.25*%
%ADD13C,0.12*%
%ADD43C,0.19608*%
%FSLAX35Y35*%
G04*
G71*
G90*
G75*
G01*
G04 TopSilk*
%LPD*%
X3737012Y1189998D2*
D13*
X4003012Y1190003D1*
X4002988Y2546003D1*
X3736988Y2545998D1*
X3737012Y1189998D1*
G36*
X3694410Y1335397D2*
X3691199Y1335608D1*
X3688043Y1336235D1*
X3684996Y1337270D1*
X3682110Y1338693D1*
X3679434Y1340480D1*
X3677015Y1342602D1*
X3674893Y1345021D1*
X3673105Y1347697D1*
X3671682Y1350583D1*
X3670648Y1353630D1*
X3670020Y1356786D1*
X3669809Y1359997D1*
X3670020Y1363208D1*
X3670647Y1366364D1*
X3671682Y1369411D1*
X3673105Y1372297D1*
X3674893Y1374972D1*
X3677014Y1377392D1*
X3679433Y1379513D1*
X3682109Y1381301D1*
X3684995Y1382724D1*
X3688042Y1383759D1*
X3691198Y1384387D1*
X3694409Y1384597D1*
D1*
X3697620Y1384387D1*
X3700776Y1383759D1*
X3703823Y1382725D1*
X3706709Y1381302D1*
X3709385Y1379514D1*
X3711804Y1377392D1*
X3713926Y1374973D1*
X3715713Y1372298D1*
X3717137Y1369412D1*
X3718171Y1366365D1*
X3718799Y1363209D1*
X3719009Y1359998D1*
X3718799Y1356787D1*
X3718171Y1353631D1*
X3717137Y1350584D1*
X3715714Y1347698D1*
X3713926Y1345022D1*
X3711804Y1342603D1*
X3709385Y1340481D1*
X3706710Y1338693D1*
X3703824Y1337270D1*
X3700777Y1336236D1*
X3697621Y1335608D1*
X3694410Y1335397D1*
D1*
G37*
X1864947Y1605050D2*
D10*
Y1734950D1*
X3429950Y2154947D2*
X3300050D1*
X3319950Y1099947D2*
X3190050D1*
X1694947Y3015050D2*
Y3144950D1*
X2960080Y1281000D2*
X3119920D1*
X2960080Y1299920D2*
X3119920D1*
X2960080D2*
Y1240080D1*
X3119920Y1299920D2*
Y1240080D1*
X2195043Y2950051D2*
X2324943Y2950056D1*
X2030043Y2955051D2*
X2159943Y2955056D1*
X1820080Y2745997D2*
X1979920Y2746003D1*
X1820079Y2764917D2*
X1979919Y2764923D1*
X1820079Y2764917D2*
X1820081Y2705077D1*
X1979919Y2764923D2*
X1979921Y2705083D1*
X1709920Y2034001D2*
X1550080Y2033999D1*
X1709921Y2015081D2*
X1550081Y2015079D1*
X1709921Y2015081D2*
X1709919Y2074921D1*
X1550081Y2015079D2*
X1550079Y2074919D1*
X1479950Y1904947D2*
X1350050D1*
X1974920Y1979000D2*
X1815080D1*
X1974920Y1960080D2*
X1815080D1*
X1974920D2*
Y2019920D1*
X1815080Y1960080D2*
Y2019920D1*
X2164950Y1849947D2*
X2035050D1*
X3834920Y2914920D2*
Y2855080D1*
X3675080Y2914920D2*
Y2855080D1*
Y2896087D2*
X3834920D1*
X3675080Y2915007D2*
X3834920D1*
X3594920Y2914920D2*
Y2855080D1*
X3435080Y2914920D2*
Y2855080D1*
Y2896087D2*
X3594920D1*
X3435080Y2915007D2*
X3594920D1*
X3115000Y2343000D2*
D13*
Y2395000D1*
X3063000D1*
Y1675000D2*
X3115000D1*
Y1727000D1*
X2395000D2*
Y1675000D1*
X2447000D1*
Y2395000D2*
X2395000D1*
Y2343000D1*
G36*
X3107000Y2486000D2*
X3106786Y2482737D1*
X3106148Y2479530D1*
X3105097Y2476433D1*
X3103651Y2473500D1*
X3101834Y2470781D1*
X3099678Y2468322D1*
X3097219Y2466166D1*
X3094500Y2464349D1*
X3091567Y2462903D1*
X3088470Y2461852D1*
X3085263Y2461214D1*
X3082000Y2461000D1*
X3078737Y2461214D1*
X3075530Y2461852D1*
X3072433Y2462903D1*
X3069500Y2464349D1*
X3066781Y2466166D1*
X3064322Y2468322D1*
X3062166Y2470781D1*
X3060349Y2473500D1*
X3058903Y2476433D1*
X3057852Y2479530D1*
X3057214Y2482737D1*
X3057000Y2486000D1*
D1*
X3057214Y2489263D1*
X3057852Y2492470D1*
X3058903Y2495567D1*
X3060349Y2498500D1*
X3062166Y2501219D1*
X3064322Y2503678D1*
X3066781Y2505834D1*
X3069500Y2507651D1*
X3072433Y2509097D1*
X3075530Y2510148D1*
X3078737Y2510786D1*
X3082000Y2511000D1*
X3085263Y2510786D1*
X3088470Y2510148D1*
X3091567Y2509097D1*
X3094500Y2507651D1*
X3097219Y2505834D1*
X3099678Y2503678D1*
X3101834Y2501219D1*
X3103651Y2498500D1*
X3105097Y2495567D1*
X3106148Y2492470D1*
X3106786Y2489263D1*
X3107000Y2486000D1*
D1*
G37*
X1052000Y1380000D2*
D13*
X1318000D1*
Y2482000D1*
X1052000D1*
Y1380000D1*
G36*
X1009400Y1525400D2*
X1006189Y1525610D1*
X1003033Y1526238D1*
X999986Y1527273D1*
X997100Y1528696D1*
X994424Y1530484D1*
X992005Y1532605D1*
X989884Y1535024D1*
X988096Y1537700D1*
X986673Y1540586D1*
X985638Y1543633D1*
X985010Y1546789D1*
X984800Y1550000D1*
X985010Y1553211D1*
X985638Y1556367D1*
X986673Y1559414D1*
X988096Y1562300D1*
X989884Y1564976D1*
X992005Y1567395D1*
X994424Y1569516D1*
X997100Y1571304D1*
X999986Y1572727D1*
X1003033Y1573762D1*
X1006189Y1574390D1*
X1009400Y1574600D1*
D1*
X1012611Y1574390D1*
X1015767Y1573762D1*
X1018814Y1572727D1*
X1021700Y1571304D1*
X1024376Y1569516D1*
X1026795Y1567395D1*
X1028916Y1564976D1*
X1030704Y1562300D1*
X1032127Y1559414D1*
X1033162Y1556367D1*
X1033790Y1553211D1*
X1034000Y1550000D1*
X1033790Y1546789D1*
X1033162Y1543633D1*
X1032127Y1540586D1*
X1030704Y1537700D1*
X1028916Y1535024D1*
X1026795Y1532605D1*
X1024376Y1530484D1*
X1021700Y1528696D1*
X1018814Y1527273D1*
X1015767Y1526238D1*
X1012611Y1525610D1*
X1009400Y1525400D1*
D1*
G37*
X2455253Y2944100D2*
D10*
X3164747D1*
X2455253Y3415900D2*
X3164747D1*
X2455253D2*
G03X2455253Y2944100I20868J-235900D01*
G01*
X3164747D2*
G03X3164747Y3415900I-20868J235900D01*
G01*
X3563960Y1363058D2*
D43*
X3563958Y1429740D1*
X3612532Y1393382D1*
Y1411632D1*
X3618568Y1423705D1*
X3624605Y1429741D1*
X3642855Y1435919D1*
X3654928D1*
X3673178Y1429742D1*
X3685391Y1417669D1*
X3691428Y1399420D1*
X3691429Y1381170D1*
X3685392Y1363060D1*
X3679216Y1357023D1*
X3667143Y1350846D1*
X3563817Y1475133D2*
X3691427Y1475135D1*
X3691426Y1517672D1*
X3685249Y1535922D1*
X3673176Y1548135D1*
X3660962Y1554171D1*
X3642852Y1560207D1*
X3612389D1*
X3594139Y1554170D1*
X3582066Y1548133D1*
X3569853Y1535920D1*
X3563816Y1517669D1*
X3563817Y1475133D1*
X3594136Y1690532D2*
X3582063Y1684495D1*
X3569850Y1672281D1*
X3563814Y1660208D1*
Y1635922D1*
X3569851Y1623708D1*
X3582065Y1611635D1*
X3594138Y1605459D1*
X3612388Y1599423D1*
X3642852D1*
X3660961Y1605460D1*
X3673174Y1611637D1*
X3685247Y1623710D1*
X3691424Y1635924D1*
X3691423Y1660211D1*
X3685246Y1672284D1*
X3673173Y1684497D1*
X3660959Y1690533D1*
X3582061Y1814820D2*
X3569848Y1802747D1*
X3563812Y1784497D1*
Y1760210D1*
X3569849Y1741961D1*
X3582063Y1729747D1*
X3594136Y1729748D1*
X3606349Y1735925D1*
X3612385Y1741961D1*
X3618422Y1754035D1*
X3630635Y1790535D1*
X3636671Y1802748D1*
X3642848Y1808785D1*
X3654921Y1814822D1*
X3673171D1*
X3685244Y1802749D1*
X3691421Y1784499D1*
X3691422Y1760213D1*
X3685245Y1741963D1*
X3673172Y1729749D1*
X3594132Y1945146D2*
X3582059Y1939109D1*
X3569846Y1926895D1*
X3563809Y1914822D1*
X3563810Y1890536D1*
X3569846Y1878322D1*
X3582060Y1866250D1*
X3594133Y1860073D1*
X3612383Y1854037D1*
X3642847D1*
X3660956Y1860074D1*
X3673170Y1866251D1*
X3685243Y1878325D1*
X3691419Y1890538D1*
Y1914825D1*
X3685242Y1926898D1*
X3673168Y1939111D1*
X3660955Y1945147D1*
X3642845D1*
X3642846Y1914824D1*
X2033099Y1560664D2*
X2027062Y1572737D1*
X2014849Y1584950D1*
X2002775Y1590987D1*
X1978489D1*
X1966275Y1584950D1*
X1954202Y1572737D1*
X1948025Y1560664D1*
X1941989Y1542414D1*
Y1511950D1*
X1948025Y1493840D1*
X1954202Y1481627D1*
X1966275Y1469554D1*
X1978489Y1463377D1*
X2002775D1*
X2014849Y1469554D1*
X2027062Y1481627D1*
X2033099Y1493840D1*
X2072314Y1566560D2*
X2084528Y1572737D1*
X2102778Y1590846D1*
Y1463377D1*
X3134336Y2318384D2*
X3122263Y2312347D1*
X3110050Y2300134D1*
X3104013Y2288061D1*
Y2263774D1*
X3110050Y2251561D1*
X3122263Y2239488D1*
X3134336Y2233311D1*
X3152586Y2227274D1*
X3183050D1*
X3201160Y2233311D1*
X3213373Y2239488D1*
X3225446Y2251561D1*
X3231623Y2263774D1*
Y2288061D1*
X3225446Y2300134D1*
X3213373Y2312347D1*
X3201160Y2318384D1*
X3134477Y2363776D2*
X3128440D1*
X3116227Y2369813D1*
X3110190Y2375849D1*
X3104154Y2388063D1*
Y2412349D1*
X3110190Y2424423D1*
X3116227Y2430459D1*
X3128440Y2436636D1*
X3140513D1*
X3152727Y2430459D1*
X3170836Y2418386D1*
X3231623Y2357599D1*
Y2442673D1*
X3446600Y1273501D2*
X3458673Y1279538D1*
X3470887Y1291751D1*
X3476923Y1303824D1*
Y1328111D1*
X3470887Y1340324D1*
X3458673Y1352397D1*
X3446600Y1358574D1*
X3428350Y1364611D1*
X3397887D1*
X3379777Y1358574D1*
X3367564Y1352397D1*
X3355491Y1340324D1*
X3349314Y1328111D1*
Y1303824D1*
X3355491Y1291751D1*
X3367564Y1279538D1*
X3379777Y1273501D1*
X3458673Y1161426D2*
X3470746Y1167462D1*
X3476783Y1185712D1*
Y1197785D1*
X3470746Y1216035D1*
X3452496Y1228249D1*
X3422173Y1234285D1*
X3391850D1*
X3367564Y1228249D1*
X3355350Y1216035D1*
X3349314Y1197785D1*
Y1191749D1*
X3355350Y1173639D1*
X3367564Y1161426D1*
X3385814Y1155389D1*
X3391850D1*
X3410100Y1161426D1*
X3422173Y1173639D1*
X3428210Y1191749D1*
Y1197785D1*
X3422173Y1216035D1*
X3410100Y1228249D1*
X3391850Y1234285D1*
X1898384Y3270664D2*
X1892347Y3282737D1*
X1880134Y3294950D1*
X1868061Y3300987D1*
X1843774D1*
X1831561Y3294950D1*
X1819488Y3282737D1*
X1813311Y3270664D1*
X1807274Y3252414D1*
Y3221950D1*
X1813311Y3203840D1*
X1819488Y3191627D1*
X1831561Y3179554D1*
X1843774Y3173377D1*
X1868061D1*
X1880134Y3179554D1*
X1892347Y3191627D1*
X1898384Y3203840D1*
X1961886Y3173377D2*
X2022673Y3300846D1*
X1937599D1*
X2890664Y1276519D2*
X2902737Y1282556D1*
X2914950Y1294769D1*
X2920987Y1306842D1*
Y1331129D1*
X2914950Y1343342D1*
X2902737Y1355416D1*
X2890664Y1361592D1*
X2872414Y1367629D1*
X2841950D1*
X2823840Y1361592D1*
X2811627Y1355416D1*
X2799554Y1343342D1*
X2793377Y1331129D1*
Y1306842D1*
X2799554Y1294769D1*
X2811627Y1282556D1*
X2823840Y1276519D1*
X2920846Y1206981D2*
X2914810Y1225090D1*
X2902737Y1231267D1*
X2890523D1*
X2878450Y1225090D1*
X2872273Y1213017D1*
X2866237Y1188731D1*
X2860200Y1170481D1*
X2847987Y1158408D1*
X2835914Y1152371D1*
X2817664D1*
X2805590Y1158408D1*
X2799414Y1164444D1*
X2793377Y1182694D1*
Y1206981D1*
X2799414Y1225090D1*
X2805590Y1231267D1*
X2817664Y1237304D1*
X2835914D1*
X2847987Y1231267D1*
X2860200Y1219054D1*
X2866237Y1200944D1*
X2872273Y1176658D1*
X2878450Y1164444D1*
X2890523Y1158408D1*
X2902737D1*
X2914810Y1164444D1*
X2920846Y1182694D1*
Y1206981D1*
X2350662Y2478608D2*
X2362735Y2484645D1*
X2374948Y2496859D1*
X2380984Y2508933D1*
X2380983Y2533219D1*
X2374946Y2545432D1*
X2362732Y2557505D1*
X2350659Y2563681D1*
X2332408Y2569717D1*
X2301945Y2569716D1*
X2283835Y2563679D1*
X2271622Y2557501D1*
X2259550Y2545428D1*
X2253373Y2533214D1*
X2253374Y2508927D1*
X2259552Y2496855D1*
X2271625Y2484642D1*
X2283839Y2478606D1*
X2338453Y2360356D2*
X2320203Y2366532D1*
X2307989Y2378604D1*
X2301952Y2396854D1*
Y2402891D1*
X2307987Y2421141D1*
X2320200Y2433214D1*
X2338450Y2439392D1*
X2344487D1*
X2362737Y2433216D1*
X2374810Y2421144D1*
X2380848Y2402894D1*
Y2396857D1*
X2374812Y2378607D1*
X2362740Y2366533D1*
X2338453Y2360356D1*
X2307990Y2360354D1*
X2277667Y2366530D1*
X2259416Y2378602D1*
X2253379Y2396852D1*
X2253378Y2408925D1*
X2259414Y2427175D1*
X2271627Y2433212D1*
X2033099Y2496164D2*
X2027062Y2508237D1*
X2014848Y2520450D1*
X2002774Y2526486D1*
X1978488Y2526485D1*
X1966275Y2520448D1*
X1954202Y2508234D1*
X1948026Y2496161D1*
X1941990Y2477911D1*
X1941991Y2447447D1*
X1948028Y2429338D1*
X1954206Y2417125D1*
X1966279Y2405052D1*
X1978493Y2398876D1*
X2002780Y2398877D1*
X2014852Y2405054D1*
X2027065Y2417128D1*
X2033101Y2429341D1*
X2072314Y2502062D2*
X2084527Y2508240D1*
X2102777Y2526350D1*
X2102782Y2398881D1*
X2178492Y2526353D2*
X2160243Y2520316D1*
X2148030Y2502065D1*
X2141995Y2471742D1*
Y2453492D1*
X2148033Y2423169D1*
X2160247Y2404920D1*
X2178498Y2398884D1*
X2190571D1*
X2208820Y2404921D1*
X2220893Y2423172D1*
X2227068Y2453495D1*
Y2471745D1*
X2220890Y2502068D1*
X2208816Y2520318D1*
X2190565Y2526353D1*
X2178492D1*
X2220890Y2502068D2*
X2148033Y2423169D1*
X1755662Y2771855D2*
X1767735Y2777892D1*
X1779948Y2790106D1*
X1785984Y2802179D1*
X1785983Y2826466D1*
X1779946Y2838679D1*
X1767732Y2850752D1*
X1755659Y2856928D1*
X1737408Y2862964D1*
X1706945Y2862963D1*
X1688836Y2856926D1*
X1676622Y2850748D1*
X1664550Y2838675D1*
X1658373Y2826461D1*
X1658374Y2802174D1*
X1664552Y2790101D1*
X1676625Y2777889D1*
X1688839Y2771852D1*
X1761560Y2732640D2*
X1767737Y2720427D1*
X1785848Y2702177D1*
X1658378Y2702172D1*
X1761563Y2662961D2*
X1767740Y2650747D1*
X1785850Y2632498D1*
X1658381Y2632493D1*
X1588867Y2375750D2*
X1576794Y2369713D1*
X1564581Y2357500D1*
X1558545Y2345426D1*
Y2321140D1*
X1564582Y2308927D1*
X1576795Y2296854D1*
X1588869Y2290677D1*
X1607119Y2284641D1*
X1637582D1*
X1655692Y2290678D1*
X1667905Y2296855D1*
X1679978Y2308929D1*
X1686155Y2321142D1*
X1686154Y2345429D1*
X1679977Y2357502D1*
X1667904Y2369715D1*
X1655690Y2375751D1*
X1582970Y2414966D2*
X1576793Y2427179D1*
X1558683Y2445429D1*
X1686152Y2445431D1*
X1558681Y2557504D2*
X1558682Y2496858D1*
X1613292Y2490822D1*
X1607255Y2496859D1*
X1601078Y2515109D1*
Y2533218D1*
X1607254Y2551468D1*
X1619327Y2563682D1*
X1637577Y2569719D1*
X1649650D1*
X1667900Y2563683D1*
X1680114Y2551470D1*
X1686151Y2533220D1*
Y2515110D1*
X1680115Y2496860D1*
X1673938Y2490823D1*
X1661865Y2484646D1*
X1373866Y1686633D2*
X1361793Y1680596D1*
X1349580Y1668383D1*
X1343543Y1656310D1*
Y1632023D1*
X1349580Y1619810D1*
X1361793Y1607736D1*
X1373866Y1601560D1*
X1392116Y1595523D1*
X1422580D1*
X1440690Y1601560D1*
X1452903Y1607736D1*
X1464976Y1619810D1*
X1471153Y1632023D1*
Y1656310D1*
X1464976Y1668383D1*
X1452903Y1680596D1*
X1440690Y1686633D1*
X1367970Y1725848D2*
X1361793Y1738062D1*
X1343684Y1756312D1*
X1471153D1*
X1361793Y1868387D2*
X1349720Y1862351D1*
X1343684Y1844101D1*
Y1832027D1*
X1349720Y1813777D1*
X1367970Y1801564D1*
X1398293Y1795527D1*
X1428616D1*
X1452903Y1801564D1*
X1465116Y1813777D1*
X1471153Y1832027D1*
Y1838064D1*
X1465116Y1856174D1*
X1452903Y1868387D1*
X1434653Y1874424D1*
X1428616D1*
X1410366Y1868387D1*
X1398293Y1856174D1*
X1392257Y1838064D1*
Y1832027D1*
X1398293Y1813777D1*
X1410366Y1801564D1*
X1428616Y1795527D1*
X1799336Y1566228D2*
X1787263Y1560191D1*
X1775050Y1547978D1*
X1769013Y1535904D1*
Y1511618D1*
X1775050Y1499404D1*
X1787263Y1487331D1*
X1799336Y1481154D1*
X1817586Y1475118D1*
X1848050D1*
X1866160Y1481154D1*
X1878373Y1487331D1*
X1890446Y1499404D1*
X1896623Y1511618D1*
Y1535904D1*
X1890446Y1547978D1*
X1878373Y1560191D1*
X1866160Y1566228D1*
X1793440Y1605443D2*
X1787263Y1617657D1*
X1769154Y1635907D1*
X1896623D1*
Y1699409D2*
X1769154Y1760195D1*
Y1675122D1*
X2588641Y2761600D2*
X2582605Y2773673D1*
X2570391Y2785887D1*
X2558318Y2791923D1*
X2534031D1*
X2521818Y2785887D1*
X2509745Y2773673D1*
X2503568Y2761600D1*
X2497531Y2743350D1*
Y2712887D1*
X2503568Y2694777D1*
X2509745Y2682564D1*
X2521818Y2670491D1*
X2534031Y2664314D1*
X2558318D1*
X2570391Y2670491D1*
X2582605Y2682564D1*
X2588641Y2694777D1*
X2627857Y2767496D2*
X2640070Y2773673D1*
X2658320Y2791783D1*
Y2664314D1*
X2727859Y2791783D2*
X2709749Y2785746D1*
X2703572Y2773673D1*
Y2761460D1*
X2709749Y2749387D1*
X2721822Y2743210D1*
X2746109Y2737173D1*
X2764359Y2731137D1*
X2776432Y2718923D1*
X2782469Y2706850D1*
Y2688600D1*
X2776432Y2676527D1*
X2770395Y2670350D1*
X2752145Y2664314D1*
X2727859D1*
X2709749Y2670350D1*
X2703572Y2676527D1*
X2697536Y2688600D1*
Y2706850D1*
X2703572Y2718923D1*
X2715786Y2731137D1*
X2733895Y2737173D1*
X2758182Y2743210D1*
X2770395Y2749387D1*
X2776432Y2761460D1*
Y2773673D1*
X2770395Y2785746D1*
X2752145Y2791783D1*
X2727859D1*
X2931589Y2761600D2*
X2925553Y2773673D1*
X2913339Y2785887D1*
X2901266Y2791923D1*
X2876980D1*
X2864766Y2785887D1*
X2852693Y2773673D1*
X2846516Y2761600D1*
X2840480Y2743350D1*
Y2712887D1*
X2846516Y2694777D1*
X2852693Y2682564D1*
X2864766Y2670491D1*
X2876980Y2664314D1*
X2901266D1*
X2913339Y2670491D1*
X2925553Y2682564D1*
X2931589Y2694777D1*
X2970805Y2767496D2*
X2983018Y2773673D1*
X3001268Y2791783D1*
Y2664314D1*
X3119520Y2749387D2*
X3113344Y2731137D1*
X3101270Y2718923D1*
X3083020Y2712887D1*
X3076984D1*
X3058734Y2718923D1*
X3046661Y2731137D1*
X3040484Y2749387D1*
Y2755423D1*
X3046661Y2773673D1*
X3058734Y2785746D1*
X3076984Y2791783D1*
X3083020D1*
X3101270Y2785746D1*
X3113344Y2773673D1*
X3119520Y2749387D1*
Y2718923D1*
X3113344Y2688600D1*
X3101270Y2670350D1*
X3083020Y2664314D1*
X3070947D1*
X3052697Y2670350D1*
X3046661Y2682564D1*
X2109336Y1931239D2*
X2097263Y1925203D1*
X2085050Y1912989D1*
X2079013Y1900916D1*
Y1876630D1*
X2085050Y1864416D1*
X2097263Y1852343D1*
X2109336Y1846166D1*
X2127586Y1840130D1*
X2158050D1*
X2176160Y1846166D1*
X2188373Y1852343D1*
X2200446Y1864416D1*
X2206623Y1876630D1*
Y1900916D1*
X2200446Y1912989D1*
X2188373Y1925203D1*
X2176160Y1931239D1*
X2109477Y1976632D2*
X2103440D1*
X2091227Y1982669D1*
X2085190Y1988705D1*
X2079154Y2000919D1*
Y2025205D1*
X2085190Y2037278D1*
X2091227Y2043315D1*
X2103440Y2049492D1*
X2115513D1*
X2127727Y2043315D1*
X2145836Y2031242D1*
X2206623Y1970455D1*
Y2055528D1*
X2079154Y2131244D2*
X2085190Y2112994D1*
X2103440Y2100780D1*
X2133763Y2094744D1*
X2152013D1*
X2182336Y2100780D1*
X2200586Y2112994D1*
X2206623Y2131244D1*
Y2143317D1*
X2200586Y2161567D1*
X2182336Y2173640D1*
X2152013Y2179817D1*
X2133763D1*
X2103440Y2173640D1*
X2085190Y2161567D1*
X2079154Y2143317D1*
Y2131244D1*
X2103440Y2173640D2*
X2182336Y2100780D1*
X3995987Y2969679D2*
X3868377D1*
Y2927143D1*
X3874554Y2908893D1*
X3886627Y2896679D1*
X3898840Y2890643D1*
X3916950Y2884606D1*
X3947414D1*
X3965664Y2890643D1*
X3977737Y2896679D1*
X3989950Y2908893D1*
X3995987Y2927143D1*
Y2969679D1*
X3971560Y2845391D2*
X3977737Y2833177D1*
X3995846Y2814927D1*
X3868377D1*
X3405987Y2969681D2*
X3278377D1*
Y2927144D1*
X3284554Y2908894D1*
X3296627Y2896681D1*
X3308840Y2890644D1*
X3326950Y2884608D1*
X3357414D1*
X3375664Y2890644D1*
X3387737Y2896681D1*
X3399950Y2908894D1*
X3405987Y2927144D1*
Y2969681D1*
X3405846Y2833179D2*
Y2766496D1*
X3357273Y2802856D1*
Y2784606D1*
X3351237Y2772533D1*
X3345200Y2766496D1*
X3326950Y2760319D1*
X3314877D1*
X3296627Y2766496D1*
X3284414Y2778569D1*
X3278377Y2796819D1*
Y2815069D1*
X3284414Y2833179D1*
X3290590Y2839215D1*
X3302664Y2845392D1*
X3770198Y2282381D2*
X3770199Y2227772D1*
X3776377Y2209522D1*
X3782414Y2203345D1*
X3794487Y2197309D1*
X3806700D1*
X3818773Y2203346D1*
X3824950Y2209523D1*
X3830986Y2227773D1*
X3830985Y2282383D1*
X3703375Y2282380D1*
X3770199Y2239845D2*
X3703377Y2197306D1*
X3806561Y2158093D2*
X3812738Y2145880D1*
X3830848Y2127631D1*
X3703379Y2127627D1*
X3309798Y3215315D2*
X3309797Y3269925D1*
X3303620Y3288175D1*
X3297583Y3294352D1*
X3285510Y3300388D1*
X3273296D1*
X3261223Y3294351D1*
X3255047Y3288174D1*
X3249010Y3269924D1*
X3249011Y3215314D1*
X3376621Y3215317D1*
X3309797Y3257852D2*
X3376619Y3300390D1*
X3279472Y3345781D2*
X3273436Y3345780D1*
X3261222Y3351817D1*
X3255186Y3357853D1*
X3249149Y3370067D1*
Y3394353D1*
X3255185Y3406426D1*
X3261221Y3412463D1*
X3273435Y3418640D1*
X3285508D1*
X3297721Y3412464D1*
X3315831Y3400391D1*
X3376619Y3339605D1*
X3376617Y3424678D1*
X3913865Y3218334D2*
X3913864Y3272943D1*
X3907686Y3291193D1*
X3901650Y3297370D1*
X3889576Y3303406D1*
X3877363D1*
X3865290Y3297369D1*
X3859113Y3291192D1*
X3853077Y3272942D1*
X3853078Y3218332D1*
X3980688Y3218335D1*
X3913864Y3260870D2*
X3980686Y3303408D1*
X3895611Y3421659D2*
X3913861Y3415482D1*
X3926075Y3403409D1*
X3932112Y3385159D1*
Y3379123D1*
X3926075Y3360873D1*
X3913862Y3348799D1*
X3895612Y3342622D1*
X3889576D1*
X3871326Y3348799D1*
X3859252Y3360871D1*
X3853215Y3379121D1*
Y3385158D1*
X3859252Y3403408D1*
X3871324Y3415481D1*
X3895611Y3421659D1*
X3926074D1*
X3956397Y3415483D1*
X3974648Y3403410D1*
X3980685Y3385160D1*
Y3373087D1*
X3974649Y3354837D1*
X3962435Y3348800D1*
X2477624Y2090923D2*
Y1999814D1*
X2483660Y1981564D1*
X2495874Y1969491D1*
X2514124Y1963314D1*
X2526197D1*
X2544447Y1969491D1*
X2556660Y1981564D1*
X2562697Y1999814D1*
Y2090923D1*
X2601913Y2066496D2*
X2614126Y2072673D1*
X2632376Y2090783D1*
Y1963314D1*
X1201723Y2985754D2*
X1074114Y2937181D1*
X1201723Y2888608D1*
X1171400Y2758283D2*
X1183473Y2764320D1*
X1195687Y2776533D1*
X1201723Y2788606D1*
Y2812893D1*
X1195687Y2825106D1*
X1183473Y2837179D1*
X1171400Y2843356D1*
X1153150Y2849393D1*
X1122687D1*
X1104577Y2843356D1*
X1092364Y2837179D1*
X1080291Y2825106D1*
X1074114Y2812893D1*
Y2788606D1*
X1080291Y2776533D1*
X1092364Y2764320D1*
X1104577Y2758283D1*
X1122687D1*
Y2788606D1*
X1201723Y2719067D2*
X1074114D1*
Y2676531D1*
X1080291Y2658281D1*
X1092364Y2646067D1*
X1104577Y2640031D1*
X1122687Y2633994D1*
X1153150D1*
X1171400Y2640031D1*
X1183473Y2646067D1*
X1195687Y2658281D1*
X1201723Y2676531D1*
Y2719067D1*
X1201583Y2521919D2*
Y2582565D1*
X1146973Y2588602D1*
X1153010Y2582565D1*
X1159187Y2564315D1*
Y2546206D1*
X1153010Y2527956D1*
X1140937Y2515742D1*
X1122687Y2509706D1*
X1110614D1*
X1092364Y2515742D1*
X1080150Y2527956D1*
X1074114Y2546206D1*
Y2564315D1*
X1080150Y2582565D1*
X1086327Y2588602D1*
X1098400Y2594779D1*
X2694283Y3372823D2*
X2742856Y3312037D1*
Y3245214D1*
X2791429Y3372823D2*
X2742856Y3312037D1*
X2836821Y3342360D2*
Y3348396D1*
X2842858Y3360610D1*
X2848894Y3366646D1*
X2861108Y3372683D1*
X2885394D1*
X2897467Y3366646D1*
X2903504Y3360610D1*
X2909681Y3348396D1*
Y3336323D1*
X2903504Y3324110D1*
X2891431Y3306000D1*
X2830644Y3245214D1*
X2915717D1*
M02*
