M48
METRIC,0000.00
T01C0.25
T02C0.3
T03C0.813
T04C1.28
%
T01
X+002705Y+002840
X+002905Y+002845
X+002990Y+001715
T02
X+002260Y+002630
X+002175Y+002600
X+002100Y+002620
X+002010Y+002595
X+001900Y+002595
X+001900Y+002865
X+002095Y+002855
X+002255Y+002845
X+002360Y+002610
X+002715Y+002955
X+002720Y+003075
X+002910Y+003075
X+002905Y+002955
X+003260Y+002845
X+003480Y+002520
X+003630Y+002360
X+003360Y+002260
X+003285Y+001940
X+002875Y+002045
X+002875Y+002150
X+002720Y+002160
X+002715Y+002050
X+002450Y+001810
X+002330Y+001615
X+002140Y+001625
X+002020Y+001770
X+001940Y+001850
X+002095Y+001955
X+002235Y+001925
X+001755Y+001730
X+001685Y+001735
X+001620Y+001695
X+001605Y+001755
X+001695Y+001655
X+001790Y+001655
X+001840Y+001485
X+001915Y+001430
X+002015Y+001425
X+002135Y+001415
X+002575Y+001470
X+003035Y+001105
X+003250Y+001160
X+003255Y+001395
X+003180Y+001425
X+001665Y+001900
X+001415Y+001995
X+001800Y+003080
X+003500Y+003375
X+003760Y+003385
T03
X+002569Y+003180
X+003051Y+003180
T04
X+003870Y+001360
X+003870Y+001614
X+003870Y+001868
X+003870Y+002122
X+003870Y+002376
X+001185Y+002312
X+001185Y+002058
X+001185Y+001804
X+001185Y+001550
T00
M30
